<?xml version="1.0" encoding="UTF-8" standalone="no"?>
<!DOCTYPE svg PUBLIC "-//W3C//DTD SVG 1.1//EN"
 "http://www.w3.org/Graphics/SVG/1.1/DTD/svg11.dtd">
<!-- Generated by graphviz version 2.40.1 (20161225.0304)
 -->
<!-- Title: graph_2_1 Pages: 1 -->
<svg width="258pt" height="52pt"
 viewBox="0.00 0.00 258.32 52.11" xmlns="http://www.w3.org/2000/svg" xmlns:xlink="http://www.w3.org/1999/xlink">
<g id="graph0" class="graph" transform="scale(1 1) rotate(0) translate(4 48.1065)">
<title>graph_2_1</title>
<polygon fill="#ffffff" stroke="transparent" points="-4,4 -4,-48.1065 254.3156,-48.1065 254.3156,4 -4,4"/>
<g id="node1" class="node">
<title></title>
</g>
<!-- 1 -->
<g id="node3" class="node">
<title>1</title>
<ellipse fill="none" stroke="#000000" cx="132.101" cy="-22.1065" rx="18" ry="18"/>
<text text-anchor="middle" x="132.101" y="-17.9065" font-family="Times,serif" font-size="14.00" fill="#000000">1</text>
</g>
<!-- &#45;&gt;1 -->
<g id="edge1" class="edge">
<title>&#45;&gt;1</title>
<path fill="none" stroke="#000000" d="M54.0661,-22.1065C69.3856,-22.1065 88.5175,-22.1065 104.0034,-22.1065"/>
<polygon fill="#000000" stroke="#000000" points="104.0503,-25.6066 114.0503,-22.1065 104.0503,-18.6066 104.0503,-25.6066"/>
<text text-anchor="middle" x="84.0505" y="-26.3065" font-family="Times,serif" font-size="14.00" fill="#000000">start</text>
</g>
<!-- 2 -->
<g id="node2" class="node">
<title>2</title>
<ellipse fill="none" stroke="#000000" cx="228.3156" cy="-22.1065" rx="18" ry="18"/>
<ellipse fill="none" stroke="#000000" cx="228.3156" cy="-22.1065" rx="22" ry="22"/>
<text text-anchor="middle" x="228.3156" y="-17.9065" font-family="Times,serif" font-size="14.00" fill="#000000">2</text>
</g>
<!-- 2&#45;&gt;1 -->
<g id="edge3" class="edge">
<title>2&#45;&gt;1</title>
<path fill="none" stroke="#000000" d="M209.8113,-9.6773C198.0067,-3.26 182.309,2.503 168.101,-1.3065 163.8655,-2.4421 159.613,-4.21 155.5899,-6.2463"/>
<polygon fill="#000000" stroke="#000000" points="153.6766,-3.3086 146.7355,-11.3131 157.1533,-9.3842 153.6766,-3.3086"/>
<text text-anchor="middle" x="178.2083" y="-5.3065" font-family="Times,serif" font-size="14.00" fill="#000000">a, b</text>
</g>
<!-- 1&#45;&gt;2 -->
<g id="edge2" class="edge">
<title>1&#45;&gt;2</title>
<path fill="none" stroke="#000000" d="M150.1982,-22.1065C163.1131,-22.1065 180.8323,-22.1065 196.1304,-22.1065"/>
<polygon fill="#000000" stroke="#000000" points="196.2458,-25.6066 206.2458,-22.1065 196.2458,-18.6066 196.2458,-25.6066"/>
<text text-anchor="middle" x="178.2083" y="-26.3065" font-family="Times,serif" font-size="14.00" fill="#000000">a, b</text>
</g>
</g>
</svg>
