<?xml version="1.0" encoding="UTF-8" standalone="no"?>
<!DOCTYPE svg PUBLIC "-//W3C//DTD SVG 1.1//EN"
 "http://www.w3.org/Graphics/SVG/1.1/DTD/svg11.dtd">
<!-- Generated by graphviz version 2.40.1 (20161225.0304)
 -->
<!-- Title: graph_2_1 Pages: 1 -->
<svg width="509pt" height="236pt"
 viewBox="0.00 0.00 509.04 236.19" xmlns="http://www.w3.org/2000/svg" xmlns:xlink="http://www.w3.org/1999/xlink">
<g id="graph0" class="graph" transform="scale(1 1) rotate(0) translate(4 232.1869)">
<title>graph_2_1</title>
<polygon fill="#ffffff" stroke="transparent" points="-4,4 -4,-232.1869 505.0355,-232.1869 505.0355,4 -4,4"/>
<g id="node1" class="node">
<title></title>
</g>
<!-- 11 -->
<g id="node3" class="node">
<title>11</title>
<ellipse fill="none" stroke="#000000" cx="134.7945" cy="-96.6935" rx="20.8887" ry="20.8887"/>
<text text-anchor="middle" x="134.7945" y="-92.4935" font-family="Times,serif" font-size="14.00" fill="#000000">11</text>
</g>
<!-- &#45;&gt;11 -->
<g id="edge1" class="edge">
<title>&#45;&gt;11</title>
<path fill="none" stroke="#000000" d="M54.2011,-96.6935C69.3023,-96.6935 88.1443,-96.6935 103.8118,-96.6935"/>
<polygon fill="#000000" stroke="#000000" points="104.0665,-100.1936 114.0664,-96.6935 104.0664,-93.1936 104.0665,-100.1936"/>
<text text-anchor="middle" x="84.0505" y="-100.8935" font-family="Times,serif" font-size="14.00" fill="#000000">start</text>
</g>
<!-- 33 -->
<g id="node2" class="node">
<title>33</title>
<ellipse fill="none" stroke="#000000" cx="476.3421" cy="-88.6935" rx="20.8568" ry="20.8568"/>
<ellipse fill="none" stroke="#000000" cx="476.3421" cy="-88.6935" rx="24.8884" ry="24.8884"/>
<text text-anchor="middle" x="476.3421" y="-84.4935" font-family="Times,serif" font-size="14.00" fill="#000000">33</text>
</g>
<!-- 33&#45;&gt;33 -->
<g id="edge18" class="edge">
<title>33&#45;&gt;33</title>
<path fill="none" stroke="#000000" d="M467.8518,-111.9685C467.0432,-122.3813 469.8733,-131.3869 476.3421,-131.3869 480.4861,-131.3869 483.1368,-127.691 484.2943,-122.2969"/>
<polygon fill="#000000" stroke="#000000" points="487.8072,-122.137 484.8323,-111.9685 480.8167,-121.7728 487.8072,-122.137"/>
<text text-anchor="middle" x="476.3421" y="-135.5869" font-family="Times,serif" font-size="14.00" fill="#000000">a, b</text>
</g>
<!-- 21 -->
<g id="node4" class="node">
<title>21</title>
<ellipse fill="none" stroke="#000000" cx="219.1814" cy="-126.6935" rx="20.8887" ry="20.8887"/>
<text text-anchor="middle" x="219.1814" y="-122.4935" font-family="Times,serif" font-size="14.00" fill="#000000">21</text>
</g>
<!-- 11&#45;&gt;21 -->
<g id="edge2" class="edge">
<title>11&#45;&gt;21</title>
<path fill="none" stroke="#000000" d="M154.3666,-103.6515C164.9412,-107.4108 178.2073,-112.127 189.9786,-116.3117"/>
<polygon fill="#000000" stroke="#000000" points="188.8283,-119.6173 199.423,-119.6693 191.1731,-113.0217 188.8283,-119.6173"/>
<text text-anchor="middle" x="176.9879" y="-115.8935" font-family="Times,serif" font-size="14.00" fill="#000000">a</text>
</g>
<!-- 12 -->
<g id="node5" class="node">
<title>12</title>
<ellipse fill="none" stroke="#000000" cx="219.1814" cy="-67.6935" rx="20.8887" ry="20.8887"/>
<text text-anchor="middle" x="219.1814" y="-63.4935" font-family="Times,serif" font-size="14.00" fill="#000000">12</text>
</g>
<!-- 11&#45;&gt;12 -->
<g id="edge3" class="edge">
<title>11&#45;&gt;12</title>
<path fill="none" stroke="#000000" d="M154.4501,-89.5913C160.5424,-87.4147 167.2844,-85.0312 173.4879,-82.8935 178.5935,-81.134 184.0317,-79.2948 189.3096,-77.528"/>
<polygon fill="#000000" stroke="#000000" points="190.7484,-80.738 199.1319,-74.2598 188.5384,-74.096 190.7484,-80.738"/>
<text text-anchor="middle" x="176.9879" y="-87.8935" font-family="Times,serif" font-size="14.00" fill="#000000">b</text>
</g>
<!-- 22 -->
<g id="node6" class="node">
<title>22</title>
<ellipse fill="none" stroke="#000000" cx="303.5683" cy="-113.6935" rx="20.8887" ry="20.8887"/>
<text text-anchor="middle" x="303.5683" y="-109.4935" font-family="Times,serif" font-size="14.00" fill="#000000">22</text>
</g>
<!-- 21&#45;&gt;22 -->
<g id="edge9" class="edge">
<title>21&#45;&gt;22</title>
<path fill="none" stroke="#000000" d="M240.041,-123.48C249.9535,-121.9529 261.9978,-120.0975 272.9229,-118.4144"/>
<polygon fill="#000000" stroke="#000000" points="273.598,-121.8518 282.9485,-116.87 272.5322,-114.9334 273.598,-121.8518"/>
<text text-anchor="middle" x="261.3748" y="-123.8935" font-family="Times,serif" font-size="14.00" fill="#000000">b</text>
</g>
<!-- 31 -->
<g id="node9" class="node">
<title>31</title>
<ellipse fill="none" stroke="#000000" cx="303.5683" cy="-172.6935" rx="20.8887" ry="20.8887"/>
<text text-anchor="middle" x="303.5683" y="-168.4935" font-family="Times,serif" font-size="14.00" fill="#000000">31</text>
</g>
<!-- 21&#45;&gt;31 -->
<g id="edge8" class="edge">
<title>21&#45;&gt;31</title>
<path fill="none" stroke="#000000" d="M237.4921,-136.6748C248.882,-142.8835 263.7341,-150.9795 276.4717,-157.9229"/>
<polygon fill="#000000" stroke="#000000" points="274.8379,-161.0185 285.2933,-162.7316 278.1882,-154.8723 274.8379,-161.0185"/>
<text text-anchor="middle" x="261.3748" y="-154.8935" font-family="Times,serif" font-size="14.00" fill="#000000">a</text>
</g>
<!-- 12&#45;&gt;22 -->
<g id="edge4" class="edge">
<title>12&#45;&gt;22</title>
<path fill="none" stroke="#000000" d="M237.4921,-77.6748C248.882,-83.8835 263.7341,-91.9795 276.4717,-98.9229"/>
<polygon fill="#000000" stroke="#000000" points="274.8379,-102.0185 285.2933,-103.7316 278.1882,-95.8723 274.8379,-102.0185"/>
<text text-anchor="middle" x="261.3748" y="-96.8935" font-family="Times,serif" font-size="14.00" fill="#000000">a</text>
</g>
<!-- 13 -->
<g id="node7" class="node">
<title>13</title>
<ellipse fill="none" stroke="#000000" cx="303.5683" cy="-20.6935" rx="20.8887" ry="20.8887"/>
<text text-anchor="middle" x="303.5683" y="-16.4935" font-family="Times,serif" font-size="14.00" fill="#000000">13</text>
</g>
<!-- 12&#45;&gt;13 -->
<g id="edge5" class="edge">
<title>12&#45;&gt;13</title>
<path fill="none" stroke="#000000" d="M237.4921,-57.4952C248.882,-51.1514 263.7341,-42.8794 276.4717,-35.7851"/>
<polygon fill="#000000" stroke="#000000" points="278.26,-38.7954 285.2933,-30.8718 274.8539,-32.68 278.26,-38.7954"/>
<text text-anchor="middle" x="261.3748" y="-49.8935" font-family="Times,serif" font-size="14.00" fill="#000000">b</text>
</g>
<!-- 23 -->
<g id="node8" class="node">
<title>23</title>
<ellipse fill="none" stroke="#000000" cx="387.9552" cy="-42.6935" rx="20.8887" ry="20.8887"/>
<text text-anchor="middle" x="387.9552" y="-38.4935" font-family="Times,serif" font-size="14.00" fill="#000000">23</text>
</g>
<!-- 22&#45;&gt;23 -->
<g id="edge11" class="edge">
<title>22&#45;&gt;23</title>
<path fill="none" stroke="#000000" d="M319.4408,-100.3389C331.9728,-89.7949 349.6627,-74.9113 363.9282,-62.9089"/>
<polygon fill="#000000" stroke="#000000" points="366.4683,-65.3458 371.8669,-56.2295 361.9616,-59.9894 366.4683,-65.3458"/>
<text text-anchor="middle" x="345.7617" y="-84.8935" font-family="Times,serif" font-size="14.00" fill="#000000">b</text>
</g>
<!-- 32 -->
<g id="node10" class="node">
<title>32</title>
<ellipse fill="none" stroke="#000000" cx="387.9552" cy="-135.6935" rx="20.8887" ry="20.8887"/>
<text text-anchor="middle" x="387.9552" y="-131.4935" font-family="Times,serif" font-size="14.00" fill="#000000">32</text>
</g>
<!-- 22&#45;&gt;32 -->
<g id="edge10" class="edge">
<title>22&#45;&gt;32</title>
<path fill="none" stroke="#000000" d="M323.996,-119.019C334.1541,-121.6673 346.63,-124.9198 357.8576,-127.8469"/>
<polygon fill="#000000" stroke="#000000" points="357.156,-131.2809 367.7156,-130.4169 358.922,-124.5073 357.156,-131.2809"/>
<text text-anchor="middle" x="345.7617" y="-128.8935" font-family="Times,serif" font-size="14.00" fill="#000000">a</text>
</g>
<!-- 13&#45;&gt;13 -->
<g id="edge7" class="edge">
<title>13&#45;&gt;13</title>
<path fill="none" stroke="#000000" d="M295.9701,-40.2043C294.8012,-50.2929 297.3339,-59.3869 303.5683,-59.3869 307.5622,-59.3869 310.0369,-55.6547 310.9925,-50.3198"/>
<polygon fill="#000000" stroke="#000000" points="314.4939,-50.263 311.1664,-40.2043 307.4949,-50.1426 314.4939,-50.263"/>
<text text-anchor="middle" x="303.5683" y="-63.5869" font-family="Times,serif" font-size="14.00" fill="#000000">b</text>
</g>
<!-- 13&#45;&gt;23 -->
<g id="edge6" class="edge">
<title>13&#45;&gt;23</title>
<path fill="none" stroke="#000000" d="M323.996,-26.019C334.1541,-28.6673 346.63,-31.9198 357.8576,-34.8469"/>
<polygon fill="#000000" stroke="#000000" points="357.156,-38.2809 367.7156,-37.4169 358.922,-31.5073 357.156,-38.2809"/>
<text text-anchor="middle" x="345.7617" y="-36.8935" font-family="Times,serif" font-size="14.00" fill="#000000">a</text>
</g>
<!-- 23&#45;&gt;33 -->
<g id="edge12" class="edge">
<title>23&#45;&gt;33</title>
<path fill="none" stroke="#000000" d="M406.6998,-52.4489C417.8726,-58.2637 432.3375,-65.7918 445.1871,-72.4792"/>
<polygon fill="#000000" stroke="#000000" points="443.7016,-75.6517 454.188,-77.1636 446.9333,-69.4423 443.7016,-75.6517"/>
<text text-anchor="middle" x="430.1486" y="-69.8935" font-family="Times,serif" font-size="14.00" fill="#000000">a</text>
</g>
<!-- 23&#45;&gt;23 -->
<g id="edge13" class="edge">
<title>23&#45;&gt;23</title>
<path fill="none" stroke="#000000" d="M380.357,-62.2043C379.1881,-72.2929 381.7208,-81.3869 387.9552,-81.3869 391.9491,-81.3869 394.4238,-77.6547 395.3794,-72.3198"/>
<polygon fill="#000000" stroke="#000000" points="398.8808,-72.263 395.5533,-62.2043 391.8818,-72.1426 398.8808,-72.263"/>
<text text-anchor="middle" x="387.9552" y="-85.5869" font-family="Times,serif" font-size="14.00" fill="#000000">b</text>
</g>
<!-- 31&#45;&gt;31 -->
<g id="edge14" class="edge">
<title>31&#45;&gt;31</title>
<path fill="none" stroke="#000000" d="M295.9701,-192.2043C294.8012,-202.2929 297.3339,-211.3869 303.5683,-211.3869 307.5622,-211.3869 310.0369,-207.6547 310.9925,-202.3198"/>
<polygon fill="#000000" stroke="#000000" points="314.4939,-202.263 311.1664,-192.2043 307.4949,-202.1426 314.4939,-202.263"/>
<text text-anchor="middle" x="303.5683" y="-215.5869" font-family="Times,serif" font-size="14.00" fill="#000000">a</text>
</g>
<!-- 31&#45;&gt;32 -->
<g id="edge15" class="edge">
<title>31&#45;&gt;32</title>
<path fill="none" stroke="#000000" d="M322.717,-164.2976C333.6143,-159.5196 347.4699,-153.4445 359.6067,-148.123"/>
<polygon fill="#000000" stroke="#000000" points="361.1294,-151.2771 368.8823,-144.0561 358.3184,-144.8663 361.1294,-151.2771"/>
<text text-anchor="middle" x="345.7617" y="-158.8935" font-family="Times,serif" font-size="14.00" fill="#000000">b</text>
</g>
<!-- 32&#45;&gt;33 -->
<g id="edge17" class="edge">
<title>32&#45;&gt;33</title>
<path fill="none" stroke="#000000" d="M406.269,-125.955C417.4991,-119.9834 432.1716,-112.1812 445.1869,-105.2603"/>
<polygon fill="#000000" stroke="#000000" points="447.1123,-108.2006 454.2983,-100.4153 443.8257,-102.0201 447.1123,-108.2006"/>
<text text-anchor="middle" x="430.1486" y="-118.8935" font-family="Times,serif" font-size="14.00" fill="#000000">b</text>
</g>
<!-- 32&#45;&gt;32 -->
<g id="edge16" class="edge">
<title>32&#45;&gt;32</title>
<path fill="none" stroke="#000000" d="M380.357,-155.2043C379.1881,-165.2929 381.7208,-174.3869 387.9552,-174.3869 391.9491,-174.3869 394.4238,-170.6547 395.3794,-165.3198"/>
<polygon fill="#000000" stroke="#000000" points="398.8808,-165.263 395.5533,-155.2043 391.8818,-165.1426 398.8808,-165.263"/>
<text text-anchor="middle" x="387.9552" y="-178.5869" font-family="Times,serif" font-size="14.00" fill="#000000">a</text>
</g>
</g>
</svg>
