<?xml version="1.0" encoding="UTF-8" standalone="no"?>
<!DOCTYPE svg PUBLIC "-//W3C//DTD SVG 1.1//EN"
 "http://www.w3.org/Graphics/SVG/1.1/DTD/svg11.dtd">
<!-- Generated by graphviz version 2.40.1 (20161225.0304)
 -->
<!-- Title: graph_3_5 Pages: 1 -->
<svg width="981pt" height="216pt"
 viewBox="0.00 0.00 980.56 215.69" xmlns="http://www.w3.org/2000/svg" xmlns:xlink="http://www.w3.org/1999/xlink">
<g id="graph0" class="graph" transform="scale(1 1) rotate(0) translate(4 211.6935)">
<title>graph_3_5</title>
<polygon fill="#ffffff" stroke="transparent" points="-4,4 -4,-211.6935 976.5597,-211.6935 976.5597,4 -4,4"/>
<g id="node1" class="node">
<title></title>
</g>
<!-- 1 -->
<g id="node3" class="node">
<title>1</title>
<ellipse fill="none" stroke="#000000" cx="132.101" cy="-109.6935" rx="18" ry="18"/>
<text text-anchor="middle" x="132.101" y="-105.4935" font-family="Times,serif" font-size="14.00" fill="#000000">1</text>
</g>
<!-- &#45;&gt;1 -->
<g id="edge1" class="edge">
<title>&#45;&gt;1</title>
<path fill="none" stroke="#000000" d="M54.0661,-109.6935C69.3856,-109.6935 88.5175,-109.6935 104.0034,-109.6935"/>
<polygon fill="#000000" stroke="#000000" points="104.0503,-113.1936 114.0503,-109.6935 104.0503,-106.1936 104.0503,-113.1936"/>
<text text-anchor="middle" x="84.0505" y="-113.8935" font-family="Times,serif" font-size="14.00" fill="#000000">start</text>
</g>
<!-- 20 -->
<g id="node2" class="node">
<title>20</title>
<ellipse fill="none" stroke="#000000" cx="947.8663" cy="-109.6935" rx="20.8568" ry="20.8568"/>
<ellipse fill="none" stroke="#000000" cx="947.8663" cy="-109.6935" rx="24.8884" ry="24.8884"/>
<text text-anchor="middle" x="947.8663" y="-105.4935" font-family="Times,serif" font-size="14.00" fill="#000000">20</text>
</g>
<!-- 20&#45;&gt;20 -->
<g id="edge25" class="edge">
<title>20&#45;&gt;20</title>
<path fill="none" stroke="#000000" d="M938.6378,-132.9685C937.7589,-143.3813 940.835,-152.3869 947.8663,-152.3869 952.3707,-152.3869 955.2519,-148.691 956.51,-143.2969"/>
<polygon fill="#000000" stroke="#000000" points="960.0238,-143.1504 957.0948,-132.9685 953.035,-142.7546 960.0238,-143.1504"/>
<text text-anchor="middle" x="947.8663" y="-156.5869" font-family="Times,serif" font-size="14.00" fill="#000000">a,b</text>
</g>
<!-- 2 -->
<g id="node4" class="node">
<title>2</title>
<ellipse fill="none" stroke="#000000" cx="220.8156" cy="-109.6935" rx="18" ry="18"/>
<text text-anchor="middle" x="220.8156" y="-105.4935" font-family="Times,serif" font-size="14.00" fill="#000000">2</text>
</g>
<!-- 1&#45;&gt;2 -->
<g id="edge2" class="edge">
<title>1&#45;&gt;2</title>
<path fill="none" stroke="#000000" d="M150.4827,-109.6935C162.5768,-109.6935 178.6486,-109.6935 192.3756,-109.6935"/>
<polygon fill="#000000" stroke="#000000" points="192.761,-113.1935 202.761,-109.6935 192.7609,-106.1935 192.761,-113.1935"/>
<text text-anchor="middle" x="176.4583" y="-113.8935" font-family="Times,serif" font-size="14.00" fill="#000000">a,b</text>
</g>
<!-- 2&#45;&gt;2 -->
<g id="edge3" class="edge">
<title>2&#45;&gt;2</title>
<path fill="none" stroke="#000000" d="M213.7844,-126.3575C212.2219,-136.3185 214.5656,-145.6935 220.8156,-145.6935 224.8195,-145.6935 227.2203,-141.8459 228.0179,-136.4617"/>
<polygon fill="#000000" stroke="#000000" points="231.5157,-136.2968 227.8469,-126.3575 224.5167,-136.4154 231.5157,-136.2968"/>
<text text-anchor="middle" x="220.8156" y="-149.8935" font-family="Times,serif" font-size="14.00" fill="#000000">a,b</text>
</g>
<!-- 3 -->
<g id="node5" class="node">
<title>3</title>
<ellipse fill="none" stroke="#000000" cx="307.1697" cy="-177.6935" rx="18" ry="18"/>
<text text-anchor="middle" x="307.1697" y="-173.4935" font-family="Times,serif" font-size="14.00" fill="#000000">3</text>
</g>
<!-- 2&#45;&gt;3 -->
<g id="edge4" class="edge">
<title>2&#45;&gt;3</title>
<path fill="none" stroke="#000000" d="M231.2786,-124.5712C237.8946,-133.2368 247.0251,-143.9464 256.8156,-151.6935 264.1355,-157.4856 272.9459,-162.5556 281.1366,-166.6432"/>
<polygon fill="#000000" stroke="#000000" points="279.8022,-169.8834 290.3407,-170.9748 282.783,-163.5497 279.8022,-169.8834"/>
<text text-anchor="middle" x="262.6459" y="-162.8935" font-family="Times,serif" font-size="14.00" fill="#000000">λ</text>
</g>
<!-- 6 -->
<g id="node6" class="node">
<title>6</title>
<ellipse fill="none" stroke="#000000" cx="363.8631" cy="-135.6935" rx="18" ry="18"/>
<text text-anchor="middle" x="363.8631" y="-131.4935" font-family="Times,serif" font-size="14.00" fill="#000000">6</text>
</g>
<!-- 2&#45;&gt;6 -->
<g id="edge5" class="edge">
<title>2&#45;&gt;6</title>
<path fill="none" stroke="#000000" d="M238.6434,-112.9338C263.057,-117.3712 307.14,-125.3836 335.9515,-130.6203"/>
<polygon fill="#000000" stroke="#000000" points="335.3459,-134.0675 345.8106,-132.4123 336.5977,-127.1803 335.3459,-134.0675"/>
<text text-anchor="middle" x="262.6459" y="-121.8935" font-family="Times,serif" font-size="14.00" fill="#000000">λ</text>
</g>
<!-- 9 -->
<g id="node7" class="node">
<title>9</title>
<ellipse fill="none" stroke="#000000" cx="307.1697" cy="-82.6935" rx="18" ry="18"/>
<text text-anchor="middle" x="307.1697" y="-78.4935" font-family="Times,serif" font-size="14.00" fill="#000000">9</text>
</g>
<!-- 2&#45;&gt;9 -->
<g id="edge6" class="edge">
<title>2&#45;&gt;9</title>
<path fill="none" stroke="#000000" d="M236.539,-100.7317C242.7005,-97.5394 249.9325,-94.1741 256.8156,-91.8935 263.9253,-89.5377 271.8115,-87.736 279.1922,-86.3787"/>
<polygon fill="#000000" stroke="#000000" points="279.8544,-89.817 289.1561,-84.7446 278.7214,-82.9092 279.8544,-89.817"/>
<text text-anchor="middle" x="262.6459" y="-95.8935" font-family="Times,serif" font-size="14.00" fill="#000000">λ</text>
</g>
<!-- 14 -->
<g id="node8" class="node">
<title>14</title>
<ellipse fill="none" stroke="#000000" cx="307.1697" cy="-23.6935" rx="20.8887" ry="20.8887"/>
<text text-anchor="middle" x="307.1697" y="-19.4935" font-family="Times,serif" font-size="14.00" fill="#000000">14</text>
</g>
<!-- 2&#45;&gt;14 -->
<g id="edge7" class="edge">
<title>2&#45;&gt;14</title>
<path fill="none" stroke="#000000" d="M232.345,-95.3253C239.1881,-87.0526 248.1881,-76.6026 256.8156,-67.8935 265.0045,-59.627 274.4821,-51.0722 282.9909,-43.7164"/>
<polygon fill="#000000" stroke="#000000" points="285.4373,-46.2301 290.7783,-37.08 280.897,-40.9023 285.4373,-46.2301"/>
<text text-anchor="middle" x="262.6459" y="-71.8935" font-family="Times,serif" font-size="14.00" fill="#000000">λ</text>
</g>
<!-- 4 -->
<g id="node9" class="node">
<title>4</title>
<ellipse fill="none" stroke="#000000" cx="420.5566" cy="-189.6935" rx="18" ry="18"/>
<text text-anchor="middle" x="420.5566" y="-185.4935" font-family="Times,serif" font-size="14.00" fill="#000000">4</text>
</g>
<!-- 3&#45;&gt;4 -->
<g id="edge8" class="edge">
<title>3&#45;&gt;4</title>
<path fill="none" stroke="#000000" d="M325.1361,-179.5949C343.1921,-181.5058 371.287,-184.4791 392.3233,-186.7055"/>
<polygon fill="#000000" stroke="#000000" points="391.9858,-190.1892 402.2987,-187.7612 392.7226,-183.2281 391.9858,-190.1892"/>
<text text-anchor="middle" x="363.8631" y="-188.8935" font-family="Times,serif" font-size="14.00" fill="#000000">a</text>
</g>
<!-- 7 -->
<g id="node12" class="node">
<title>7</title>
<ellipse fill="none" stroke="#000000" cx="477.25" cy="-136.6935" rx="18" ry="18"/>
<text text-anchor="middle" x="477.25" y="-132.4935" font-family="Times,serif" font-size="14.00" fill="#000000">7</text>
</g>
<!-- 6&#45;&gt;7 -->
<g id="edge11" class="edge">
<title>6&#45;&gt;7</title>
<path fill="none" stroke="#000000" d="M382.0807,-135.8541C400.0991,-136.013 427.9351,-136.2585 448.8562,-136.443"/>
<polygon fill="#000000" stroke="#000000" points="449.0471,-139.9448 459.0777,-136.5332 449.1089,-132.945 449.0471,-139.9448"/>
<text text-anchor="middle" x="420.5566" y="-139.8935" font-family="Times,serif" font-size="14.00" fill="#000000">b</text>
</g>
<!-- 10 -->
<g id="node14" class="node">
<title>10</title>
<ellipse fill="none" stroke="#000000" cx="420.5566" cy="-79.6935" rx="20.8887" ry="20.8887"/>
<text text-anchor="middle" x="420.5566" y="-75.4935" font-family="Times,serif" font-size="14.00" fill="#000000">10</text>
</g>
<!-- 9&#45;&gt;10 -->
<g id="edge14" class="edge">
<title>9&#45;&gt;10</title>
<path fill="none" stroke="#000000" d="M325.3872,-82.2115C342.6593,-81.7545 368.9526,-81.0588 389.5287,-80.5144"/>
<polygon fill="#000000" stroke="#000000" points="389.7856,-84.0089 399.6895,-80.2456 389.6004,-77.0114 389.7856,-84.0089"/>
<text text-anchor="middle" x="363.8631" y="-84.8935" font-family="Times,serif" font-size="14.00" fill="#000000">a</text>
</g>
<!-- 15 -->
<g id="node18" class="node">
<title>15</title>
<ellipse fill="none" stroke="#000000" cx="420.5566" cy="-20.6935" rx="20.8887" ry="20.8887"/>
<text text-anchor="middle" x="420.5566" y="-16.4935" font-family="Times,serif" font-size="14.00" fill="#000000">15</text>
</g>
<!-- 14&#45;&gt;15 -->
<g id="edge19" class="edge">
<title>14&#45;&gt;15</title>
<path fill="none" stroke="#000000" d="M327.9666,-23.1432C345.1207,-22.6893 369.7233,-22.0384 389.2566,-21.5216"/>
<polygon fill="#000000" stroke="#000000" points="389.6036,-25.0137 399.5075,-21.2504 389.4184,-18.0162 389.6036,-25.0137"/>
<text text-anchor="middle" x="363.8631" y="-26.8935" font-family="Times,serif" font-size="14.00" fill="#000000">b</text>
</g>
<!-- 5 -->
<g id="node10" class="node">
<title>5</title>
<ellipse fill="none" stroke="#000000" cx="590.6369" cy="-186.6935" rx="18" ry="18"/>
<text text-anchor="middle" x="590.6369" y="-182.4935" font-family="Times,serif" font-size="14.00" fill="#000000">5</text>
</g>
<!-- 4&#45;&gt;5 -->
<g id="edge9" class="edge">
<title>4&#45;&gt;5</title>
<path fill="none" stroke="#000000" d="M438.7581,-189.3724C468.4248,-188.8491 527.4087,-187.8087 562.5013,-187.1897"/>
<polygon fill="#000000" stroke="#000000" points="562.6295,-190.6881 572.5662,-187.0122 562.506,-183.6892 562.6295,-190.6881"/>
<text text-anchor="middle" x="477.25" y="-192.8935" font-family="Times,serif" font-size="14.00" fill="#000000">a</text>
</g>
<!-- 19 -->
<g id="node11" class="node">
<title>19</title>
<ellipse fill="none" stroke="#000000" cx="849.7648" cy="-109.6935" rx="20.8887" ry="20.8887"/>
<text text-anchor="middle" x="849.7648" y="-105.4935" font-family="Times,serif" font-size="14.00" fill="#000000">19</text>
</g>
<!-- 5&#45;&gt;19 -->
<g id="edge10" class="edge">
<title>5&#45;&gt;19</title>
<path fill="none" stroke="#000000" d="M608.6264,-185.5866C643.2216,-182.9681 720.9498,-174.6949 781.4107,-150.6935 796.4178,-144.7361 811.9445,-135.692 824.3998,-127.6126"/>
<polygon fill="#000000" stroke="#000000" points="826.4991,-130.4195 832.8749,-121.9579 822.6139,-124.5966 826.4991,-130.4195"/>
<text text-anchor="middle" x="704.0238" y="-179.8935" font-family="Times,serif" font-size="14.00" fill="#000000">λ</text>
</g>
<!-- 19&#45;&gt;20 -->
<g id="edge24" class="edge">
<title>19&#45;&gt;20</title>
<path fill="none" stroke="#000000" d="M870.5696,-109.6935C882.7604,-109.6935 898.4824,-109.6935 912.5609,-109.6935"/>
<polygon fill="#000000" stroke="#000000" points="912.9209,-113.1935 922.9208,-109.6935 912.9208,-106.1935 912.9209,-113.1935"/>
<text text-anchor="middle" x="896.8155" y="-113.8935" font-family="Times,serif" font-size="14.00" fill="#000000">a,b</text>
</g>
<!-- 8 -->
<g id="node13" class="node">
<title>8</title>
<ellipse fill="none" stroke="#000000" cx="704.0238" cy="-136.6935" rx="18" ry="18"/>
<text text-anchor="middle" x="704.0238" y="-132.4935" font-family="Times,serif" font-size="14.00" fill="#000000">8</text>
</g>
<!-- 7&#45;&gt;8 -->
<g id="edge12" class="edge">
<title>7&#45;&gt;8</title>
<path fill="none" stroke="#000000" d="M495.4245,-136.6935C534.8175,-136.6935 628.3208,-136.6935 675.6025,-136.6935"/>
<polygon fill="#000000" stroke="#000000" points="675.7628,-140.1936 685.7628,-136.6935 675.7627,-133.1936 675.7628,-140.1936"/>
<text text-anchor="middle" x="590.6369" y="-140.8935" font-family="Times,serif" font-size="14.00" fill="#000000">b</text>
</g>
<!-- 8&#45;&gt;19 -->
<g id="edge13" class="edge">
<title>8&#45;&gt;19</title>
<path fill="none" stroke="#000000" d="M721.8945,-133.3827C746.1298,-128.8929 789.7694,-120.8082 819.247,-115.3472"/>
<polygon fill="#000000" stroke="#000000" points="820.2092,-118.7286 829.4043,-113.4654 818.934,-111.8457 820.2092,-118.7286"/>
<text text-anchor="middle" x="760.7173" y="-133.8935" font-family="Times,serif" font-size="14.00" fill="#000000">λ</text>
</g>
<!-- 11 -->
<g id="node15" class="node">
<title>11</title>
<ellipse fill="none" stroke="#000000" cx="533.9435" cy="-79.6935" rx="20.8887" ry="20.8887"/>
<text text-anchor="middle" x="533.9435" y="-75.4935" font-family="Times,serif" font-size="14.00" fill="#000000">11</text>
</g>
<!-- 10&#45;&gt;11 -->
<g id="edge15" class="edge">
<title>10&#45;&gt;11</title>
<path fill="none" stroke="#000000" d="M441.3535,-79.6935C458.5076,-79.6935 483.1102,-79.6935 502.6436,-79.6935"/>
<polygon fill="#000000" stroke="#000000" points="502.8945,-83.1936 512.8944,-79.6935 502.8944,-76.1936 502.8945,-83.1936"/>
<text text-anchor="middle" x="477.25" y="-83.8935" font-family="Times,serif" font-size="14.00" fill="#000000">b</text>
</g>
<!-- 12 -->
<g id="node16" class="node">
<title>12</title>
<ellipse fill="none" stroke="#000000" cx="647.3304" cy="-79.6935" rx="20.8887" ry="20.8887"/>
<text text-anchor="middle" x="647.3304" y="-75.4935" font-family="Times,serif" font-size="14.00" fill="#000000">12</text>
</g>
<!-- 11&#45;&gt;12 -->
<g id="edge16" class="edge">
<title>11&#45;&gt;12</title>
<path fill="none" stroke="#000000" d="M554.7404,-79.6935C571.8945,-79.6935 596.4971,-79.6935 616.0305,-79.6935"/>
<polygon fill="#000000" stroke="#000000" points="616.2814,-83.1936 626.2813,-79.6935 616.2813,-76.1936 616.2814,-83.1936"/>
<text text-anchor="middle" x="590.6369" y="-83.8935" font-family="Times,serif" font-size="14.00" fill="#000000">a</text>
</g>
<!-- 13 -->
<g id="node17" class="node">
<title>13</title>
<ellipse fill="none" stroke="#000000" cx="760.7173" cy="-79.6935" rx="20.8887" ry="20.8887"/>
<text text-anchor="middle" x="760.7173" y="-75.4935" font-family="Times,serif" font-size="14.00" fill="#000000">13</text>
</g>
<!-- 12&#45;&gt;13 -->
<g id="edge17" class="edge">
<title>12&#45;&gt;13</title>
<path fill="none" stroke="#000000" d="M668.1273,-79.6935C685.2814,-79.6935 709.884,-79.6935 729.4174,-79.6935"/>
<polygon fill="#000000" stroke="#000000" points="729.6683,-83.1936 739.6682,-79.6935 729.6682,-76.1936 729.6683,-83.1936"/>
<text text-anchor="middle" x="704.0238" y="-83.8935" font-family="Times,serif" font-size="14.00" fill="#000000">b</text>
</g>
<!-- 13&#45;&gt;19 -->
<g id="edge18" class="edge">
<title>13&#45;&gt;19</title>
<path fill="none" stroke="#000000" d="M780.4798,-86.3514C792.239,-90.3131 807.3771,-95.4131 820.5023,-99.8349"/>
<polygon fill="#000000" stroke="#000000" points="819.4634,-103.1782 830.0575,-103.0541 821.6983,-96.5445 819.4634,-103.1782"/>
<text text-anchor="middle" x="805.241" y="-99.8935" font-family="Times,serif" font-size="14.00" fill="#000000">λ</text>
</g>
<!-- 16 -->
<g id="node19" class="node">
<title>16</title>
<ellipse fill="none" stroke="#000000" cx="533.9435" cy="-20.6935" rx="20.8887" ry="20.8887"/>
<text text-anchor="middle" x="533.9435" y="-16.4935" font-family="Times,serif" font-size="14.00" fill="#000000">16</text>
</g>
<!-- 15&#45;&gt;16 -->
<g id="edge20" class="edge">
<title>15&#45;&gt;16</title>
<path fill="none" stroke="#000000" d="M441.3535,-20.6935C458.5076,-20.6935 483.1102,-20.6935 502.6436,-20.6935"/>
<polygon fill="#000000" stroke="#000000" points="502.8945,-24.1936 512.8944,-20.6935 502.8944,-17.1936 502.8945,-24.1936"/>
<text text-anchor="middle" x="477.25" y="-24.8935" font-family="Times,serif" font-size="14.00" fill="#000000">a</text>
</g>
<!-- 17 -->
<g id="node20" class="node">
<title>17</title>
<ellipse fill="none" stroke="#000000" cx="647.3304" cy="-20.6935" rx="20.8887" ry="20.8887"/>
<text text-anchor="middle" x="647.3304" y="-16.4935" font-family="Times,serif" font-size="14.00" fill="#000000">17</text>
</g>
<!-- 16&#45;&gt;17 -->
<g id="edge21" class="edge">
<title>16&#45;&gt;17</title>
<path fill="none" stroke="#000000" d="M554.7404,-20.6935C571.8945,-20.6935 596.4971,-20.6935 616.0305,-20.6935"/>
<polygon fill="#000000" stroke="#000000" points="616.2814,-24.1936 626.2813,-20.6935 616.2813,-17.1936 616.2814,-24.1936"/>
<text text-anchor="middle" x="590.6369" y="-24.8935" font-family="Times,serif" font-size="14.00" fill="#000000">b</text>
</g>
<!-- 18 -->
<g id="node21" class="node">
<title>18</title>
<ellipse fill="none" stroke="#000000" cx="760.7173" cy="-20.6935" rx="20.8887" ry="20.8887"/>
<text text-anchor="middle" x="760.7173" y="-16.4935" font-family="Times,serif" font-size="14.00" fill="#000000">18</text>
</g>
<!-- 17&#45;&gt;18 -->
<g id="edge22" class="edge">
<title>17&#45;&gt;18</title>
<path fill="none" stroke="#000000" d="M668.1273,-20.6935C685.2814,-20.6935 709.884,-20.6935 729.4174,-20.6935"/>
<polygon fill="#000000" stroke="#000000" points="729.6683,-24.1936 739.6682,-20.6935 729.6682,-17.1936 729.6683,-24.1936"/>
<text text-anchor="middle" x="704.0238" y="-24.8935" font-family="Times,serif" font-size="14.00" fill="#000000">a</text>
</g>
<!-- 18&#45;&gt;19 -->
<g id="edge23" class="edge">
<title>18&#45;&gt;19</title>
<path fill="none" stroke="#000000" d="M775.4217,-35.39C789.6005,-49.5613 811.2465,-71.1957 827.5311,-87.4717"/>
<polygon fill="#000000" stroke="#000000" points="825.4913,-90.3814 835.0386,-94.9751 830.4398,-85.4303 825.4913,-90.3814"/>
<text text-anchor="middle" x="805.241" y="-73.8935" font-family="Times,serif" font-size="14.00" fill="#000000">λ</text>
</g>
</g>
</svg>
