<?xml version="1.0" encoding="UTF-8" standalone="no"?>
<!DOCTYPE svg PUBLIC "-//W3C//DTD SVG 1.1//EN"
 "http://www.w3.org/Graphics/SVG/1.1/DTD/svg11.dtd">
<!-- Generated by graphviz version 2.40.1 (20161225.0304)
 -->
<!-- Title: graph_3_2 Pages: 1 -->
<svg width="1244pt" height="273pt"
 viewBox="0.00 0.00 1244.13 273.05" xmlns="http://www.w3.org/2000/svg" xmlns:xlink="http://www.w3.org/1999/xlink">
<g id="graph0" class="graph" transform="scale(1 1) rotate(0) translate(4 269.0512)">
<title>graph_3_2</title>
<polygon fill="#ffffff" stroke="transparent" points="-4,4 -4,-269.0512 1240.1312,-269.0512 1240.1312,4 -4,4"/>
<g id="node1" class="node">
<title></title>
</g>
<!-- 0 -->
<g id="node3" class="node">
<title>0</title>
<ellipse fill="none" stroke="#000000" cx="132.101" cy="-51.0512" rx="18" ry="18"/>
<text text-anchor="middle" x="132.101" y="-46.8512" font-family="Times,serif" font-size="14.00" fill="#000000">0</text>
</g>
<!-- &#45;&gt;0 -->
<g id="edge1" class="edge">
<title>&#45;&gt;0</title>
<path fill="none" stroke="#000000" d="M54.0661,-51.0512C69.3856,-51.0512 88.5175,-51.0512 104.0034,-51.0512"/>
<polygon fill="#000000" stroke="#000000" points="104.0503,-54.5513 114.0503,-51.0512 104.0503,-47.5513 104.0503,-54.5513"/>
<text text-anchor="middle" x="84.0505" y="-55.2512" font-family="Times,serif" font-size="14.00" fill="#000000">start</text>
</g>
<!-- 13 -->
<g id="node2" class="node">
<title>13</title>
<ellipse fill="none" stroke="#000000" cx="1211.4378" cy="-76.0512" rx="20.8568" ry="20.8568"/>
<ellipse fill="none" stroke="#000000" cx="1211.4378" cy="-76.0512" rx="24.8884" ry="24.8884"/>
<text text-anchor="middle" x="1211.4378" y="-71.8512" font-family="Times,serif" font-size="14.00" fill="#000000">13</text>
</g>
<!-- 1 -->
<g id="node4" class="node">
<title>1</title>
<ellipse fill="none" stroke="#000000" cx="210.3156" cy="-51.0512" rx="18" ry="18"/>
<text text-anchor="middle" x="210.3156" y="-46.8512" font-family="Times,serif" font-size="14.00" fill="#000000">1</text>
</g>
<!-- 0&#45;&gt;1 -->
<g id="edge2" class="edge">
<title>0&#45;&gt;1</title>
<path fill="none" stroke="#000000" d="M150.2416,-51.0512C159.7184,-51.0512 171.5274,-51.0512 182.1612,-51.0512"/>
<polygon fill="#000000" stroke="#000000" points="182.2734,-54.5513 192.2734,-51.0512 182.2733,-47.5513 182.2734,-54.5513"/>
<text text-anchor="middle" x="171.2083" y="-55.2512" font-family="Times,serif" font-size="14.00" fill="#000000">a</text>
</g>
<!-- 2 -->
<g id="node5" class="node">
<title>2</title>
<ellipse fill="none" stroke="#000000" cx="293.9762" cy="-88.0512" rx="18" ry="18"/>
<text text-anchor="middle" x="293.9762" y="-83.8512" font-family="Times,serif" font-size="14.00" fill="#000000">2</text>
</g>
<!-- 1&#45;&gt;2 -->
<g id="edge3" class="edge">
<title>1&#45;&gt;2</title>
<path fill="none" stroke="#000000" d="M226.8442,-58.3612C238.6465,-63.5809 254.7531,-70.7042 268.2313,-76.6652"/>
<polygon fill="#000000" stroke="#000000" points="266.9207,-79.9125 277.4819,-80.7563 269.7521,-73.5106 266.9207,-79.9125"/>
<text text-anchor="middle" x="252.1459" y="-76.2512" font-family="Times,serif" font-size="14.00" fill="#000000">λ</text>
</g>
<!-- 9 -->
<g id="node6" class="node">
<title>9</title>
<ellipse fill="none" stroke="#000000" cx="859.3872" cy="-51.0512" rx="18" ry="18"/>
<text text-anchor="middle" x="859.3872" y="-46.8512" font-family="Times,serif" font-size="14.00" fill="#000000">9</text>
</g>
<!-- 1&#45;&gt;9 -->
<g id="edge4" class="edge">
<title>1&#45;&gt;9</title>
<path fill="none" stroke="#000000" d="M227.7571,-45.7234C244.5537,-41.069 270.7596,-35.0512 293.9762,-35.0512 293.9762,-35.0512 293.9762,-35.0512 775.7266,-35.0512 794.7715,-35.0512 815.8279,-39.1006 832.0518,-43.1251"/>
<polygon fill="#000000" stroke="#000000" points="831.3846,-46.5685 841.9457,-45.7234 833.1626,-39.7981 831.3846,-46.5685"/>
<text text-anchor="middle" x="534.066" y="-39.2512" font-family="Times,serif" font-size="14.00" fill="#000000">λ</text>
</g>
<!-- 3 -->
<g id="node7" class="node">
<title>3</title>
<ellipse fill="none" stroke="#000000" cx="372.1908" cy="-141.0512" rx="18" ry="18"/>
<text text-anchor="middle" x="372.1908" y="-136.8512" font-family="Times,serif" font-size="14.00" fill="#000000">3</text>
</g>
<!-- 2&#45;&gt;3 -->
<g id="edge5" class="edge">
<title>2&#45;&gt;3</title>
<path fill="none" stroke="#000000" d="M309.0568,-98.2701C320.3099,-105.8955 335.8965,-116.4574 348.7669,-125.1786"/>
<polygon fill="#000000" stroke="#000000" points="346.9147,-128.1514 357.1565,-130.8636 350.8415,-122.3565 346.9147,-128.1514"/>
<text text-anchor="middle" x="333.0835" y="-121.2512" font-family="Times,serif" font-size="14.00" fill="#000000">a</text>
</g>
<!-- 10 -->
<g id="node13" class="node">
<title>10</title>
<ellipse fill="none" stroke="#000000" cx="945.7413" cy="-51.0512" rx="20.8887" ry="20.8887"/>
<text text-anchor="middle" x="945.7413" y="-46.8512" font-family="Times,serif" font-size="14.00" fill="#000000">10</text>
</g>
<!-- 9&#45;&gt;10 -->
<g id="edge15" class="edge">
<title>9&#45;&gt;10</title>
<path fill="none" stroke="#000000" d="M877.7007,-51.0512C888.5307,-51.0512 902.5266,-51.0512 915.0063,-51.0512"/>
<polygon fill="#000000" stroke="#000000" points="915.0299,-54.5513 925.0298,-51.0512 915.0298,-47.5513 915.0299,-54.5513"/>
<text text-anchor="middle" x="901.2175" y="-55.2512" font-family="Times,serif" font-size="14.00" fill="#000000">λ</text>
</g>
<!-- 4 -->
<g id="node8" class="node">
<title>4</title>
<ellipse fill="none" stroke="#000000" cx="455.8514" cy="-194.0512" rx="18" ry="18"/>
<text text-anchor="middle" x="455.8514" y="-189.8512" font-family="Times,serif" font-size="14.00" fill="#000000">4</text>
</g>
<!-- 3&#45;&gt;4 -->
<g id="edge6" class="edge">
<title>3&#45;&gt;4</title>
<path fill="none" stroke="#000000" d="M387.5354,-150.7722C399.9181,-158.6168 417.561,-169.7937 431.8155,-178.8241"/>
<polygon fill="#000000" stroke="#000000" points="430.2834,-181.9968 440.604,-184.3918 434.0296,-176.0835 430.2834,-181.9968"/>
<text text-anchor="middle" x="414.0211" y="-175.2512" font-family="Times,serif" font-size="14.00" fill="#000000">λ</text>
</g>
<!-- 7 -->
<g id="node9" class="node">
<title>7</title>
<ellipse fill="none" stroke="#000000" cx="696.7266" cy="-141.0512" rx="18" ry="18"/>
<text text-anchor="middle" x="696.7266" y="-136.8512" font-family="Times,serif" font-size="14.00" fill="#000000">7</text>
</g>
<!-- 3&#45;&gt;7 -->
<g id="edge7" class="edge">
<title>3&#45;&gt;7</title>
<path fill="none" stroke="#000000" d="M390.4693,-141.0512C407.418,-141.0512 433.3386,-141.0512 455.8514,-141.0512 455.8514,-141.0512 455.8514,-141.0512 613.066,-141.0512 631.3577,-141.0512 651.899,-141.0512 668.0498,-141.0512"/>
<polygon fill="#000000" stroke="#000000" points="668.4481,-144.5513 678.4481,-141.0512 668.448,-137.5513 668.4481,-144.5513"/>
<text text-anchor="middle" x="534.066" y="-145.2512" font-family="Times,serif" font-size="14.00" fill="#000000">λ</text>
</g>
<!-- 5 -->
<g id="node10" class="node">
<title>5</title>
<ellipse fill="none" stroke="#000000" cx="534.066" cy="-247.0512" rx="18" ry="18"/>
<text text-anchor="middle" x="534.066" y="-242.8512" font-family="Times,serif" font-size="14.00" fill="#000000">5</text>
</g>
<!-- 4&#45;&gt;5 -->
<g id="edge8" class="edge">
<title>4&#45;&gt;5</title>
<path fill="none" stroke="#000000" d="M470.932,-204.2701C482.1851,-211.8955 497.7717,-222.4574 510.6421,-231.1786"/>
<polygon fill="#000000" stroke="#000000" points="508.7899,-234.1514 519.0317,-236.8636 512.7167,-228.3565 508.7899,-234.1514"/>
<text text-anchor="middle" x="494.9587" y="-226.2512" font-family="Times,serif" font-size="14.00" fill="#000000">a</text>
</g>
<!-- 8 -->
<g id="node12" class="node">
<title>8</title>
<ellipse fill="none" stroke="#000000" cx="775.7266" cy="-88.0512" rx="18" ry="18"/>
<text text-anchor="middle" x="775.7266" y="-83.8512" font-family="Times,serif" font-size="14.00" fill="#000000">8</text>
</g>
<!-- 7&#45;&gt;8 -->
<g id="edge12" class="edge">
<title>7&#45;&gt;8</title>
<path fill="none" stroke="#000000" d="M711.9586,-130.8322C723.3247,-123.2068 739.0679,-112.645 752.0675,-103.9237"/>
<polygon fill="#000000" stroke="#000000" points="754.187,-106.7165 760.5414,-98.2387 750.2871,-100.9035 754.187,-106.7165"/>
<text text-anchor="middle" x="736.2266" y="-121.2512" font-family="Times,serif" font-size="14.00" fill="#000000">b</text>
</g>
<!-- 6 -->
<g id="node11" class="node">
<title>6</title>
<ellipse fill="none" stroke="#000000" cx="613.066" cy="-194.0512" rx="18" ry="18"/>
<text text-anchor="middle" x="613.066" y="-189.8512" font-family="Times,serif" font-size="14.00" fill="#000000">6</text>
</g>
<!-- 5&#45;&gt;6 -->
<g id="edge9" class="edge">
<title>5&#45;&gt;6</title>
<path fill="none" stroke="#000000" d="M549.298,-236.8322C560.6641,-229.2068 576.4073,-218.645 589.4069,-209.9237"/>
<polygon fill="#000000" stroke="#000000" points="591.5264,-212.7165 597.8808,-204.2387 587.6265,-206.9035 591.5264,-212.7165"/>
<text text-anchor="middle" x="573.566" y="-226.2512" font-family="Times,serif" font-size="14.00" fill="#000000">b</text>
</g>
<!-- 6&#45;&gt;4 -->
<g id="edge10" class="edge">
<title>6&#45;&gt;4</title>
<path fill="none" stroke="#000000" d="M594.7576,-194.0512C567.4931,-194.0512 516.0018,-194.0512 483.9481,-194.0512"/>
<polygon fill="#000000" stroke="#000000" points="483.8859,-190.5513 473.8859,-194.0512 483.8859,-197.5513 483.8859,-190.5513"/>
<text text-anchor="middle" x="534.066" y="-198.2512" font-family="Times,serif" font-size="14.00" fill="#000000">λ</text>
</g>
<!-- 6&#45;&gt;7 -->
<g id="edge11" class="edge">
<title>6&#45;&gt;7</title>
<path fill="none" stroke="#000000" d="M628.4106,-184.3302C640.7933,-176.4856 658.4362,-165.3086 672.6907,-156.2782"/>
<polygon fill="#000000" stroke="#000000" points="674.9048,-159.0188 681.4792,-150.7106 671.1586,-153.1056 674.9048,-159.0188"/>
<text text-anchor="middle" x="654.8963" y="-175.2512" font-family="Times,serif" font-size="14.00" fill="#000000">λ</text>
</g>
<!-- 8&#45;&gt;2 -->
<g id="edge13" class="edge">
<title>8&#45;&gt;2</title>
<path fill="none" stroke="#000000" d="M757.5276,-88.0512C741.5156,-88.0512 717.5738,-88.0512 696.7266,-88.0512 372.1908,-88.0512 372.1908,-88.0512 372.1908,-88.0512 355.5821,-88.0512 336.9895,-88.0512 322.1002,-88.0512"/>
<polygon fill="#000000" stroke="#000000" points="321.9943,-84.5513 311.9943,-88.0512 321.9942,-91.5513 321.9943,-84.5513"/>
<text text-anchor="middle" x="534.066" y="-92.2512" font-family="Times,serif" font-size="14.00" fill="#000000">λ</text>
</g>
<!-- 8&#45;&gt;9 -->
<g id="edge14" class="edge">
<title>8&#45;&gt;9</title>
<path fill="none" stroke="#000000" d="M792.2552,-80.7412C804.0575,-75.5215 820.1641,-68.3981 833.6423,-62.4372"/>
<polygon fill="#000000" stroke="#000000" points="835.1631,-65.5917 842.8929,-58.346 832.3317,-59.1898 835.1631,-65.5917"/>
<text text-anchor="middle" x="817.5569" y="-76.2512" font-family="Times,serif" font-size="14.00" fill="#000000">λ</text>
</g>
<!-- 10&#45;&gt;13 -->
<g id="edge16" class="edge">
<title>10&#45;&gt;13</title>
<path fill="none" stroke="#000000" d="M963.3408,-62.3921C975.513,-69.4768 992.3859,-77.843 1008.6493,-81.0512 1078.4914,-94.8285 1098.0268,-94.2226 1168.7443,-86.0512 1171.5802,-85.7235 1174.5014,-85.2772 1177.422,-84.7542"/>
<polygon fill="#000000" stroke="#000000" points="1178.1336,-88.1811 1187.2249,-82.7406 1176.7252,-81.3243 1178.1336,-88.1811"/>
<text text-anchor="middle" x="1073.8665" y="-96.2512" font-family="Times,serif" font-size="14.00" fill="#000000">λ</text>
</g>
<!-- 11 -->
<g id="node14" class="node">
<title>11</title>
<ellipse fill="none" stroke="#000000" cx="1029.3428" cy="-51.0512" rx="20.8887" ry="20.8887"/>
<text text-anchor="middle" x="1029.3428" y="-46.8512" font-family="Times,serif" font-size="14.00" fill="#000000">11</text>
</g>
<!-- 10&#45;&gt;11 -->
<g id="edge17" class="edge">
<title>10&#45;&gt;11</title>
<path fill="none" stroke="#000000" d="M966.8374,-51.0512C976.415,-51.0512 987.9327,-51.0512 998.4576,-51.0512"/>
<polygon fill="#000000" stroke="#000000" points="998.543,-54.5513 1008.5429,-51.0512 998.5429,-47.5513 998.543,-54.5513"/>
<text text-anchor="middle" x="987.542" y="-55.2512" font-family="Times,serif" font-size="14.00" fill="#000000">a</text>
</g>
<!-- 12 -->
<g id="node15" class="node">
<title>12</title>
<ellipse fill="none" stroke="#000000" cx="1118.3903" cy="-51.0512" rx="20.8887" ry="20.8887"/>
<text text-anchor="middle" x="1118.3903" y="-46.8512" font-family="Times,serif" font-size="14.00" fill="#000000">12</text>
</g>
<!-- 11&#45;&gt;12 -->
<g id="edge18" class="edge">
<title>11&#45;&gt;12</title>
<path fill="none" stroke="#000000" d="M1050.4458,-51.0512C1061.4246,-51.0512 1075.0595,-51.0512 1087.2272,-51.0512"/>
<polygon fill="#000000" stroke="#000000" points="1087.4388,-54.5513 1097.4387,-51.0512 1087.4387,-47.5513 1087.4388,-54.5513"/>
<text text-anchor="middle" x="1073.8665" y="-55.2512" font-family="Times,serif" font-size="14.00" fill="#000000">b</text>
</g>
<!-- 12&#45;&gt;13 -->
<g id="edge20" class="edge">
<title>12&#45;&gt;13</title>
<path fill="none" stroke="#000000" d="M1138.5802,-56.4758C1149.9949,-59.5427 1164.5633,-63.4569 1177.6684,-66.978"/>
<polygon fill="#000000" stroke="#000000" points="1176.7625,-70.3587 1187.3282,-69.5734 1178.5789,-63.5984 1176.7625,-70.3587"/>
<text text-anchor="middle" x="1162.914" y="-69.2512" font-family="Times,serif" font-size="14.00" fill="#000000">λ</text>
</g>
<!-- 12&#45;&gt;10 -->
<g id="edge19" class="edge">
<title>12&#45;&gt;10</title>
<path fill="none" stroke="#000000" d="M1103.2772,-36.679C1090.3043,-25.4021 1070.5071,-10.5876 1050.0362,-4.2512 1032.4646,1.1879 1026.1108,1.5316 1008.6493,-4.2512 993.4678,-9.2789 978.9715,-19.5485 967.7289,-29.1899"/>
<polygon fill="#000000" stroke="#000000" points="965.2402,-26.721 960.1542,-36.0153 969.9261,-31.9213 965.2402,-26.721"/>
<text text-anchor="middle" x="1029.3428" y="-9.2512" font-family="Times,serif" font-size="14.00" fill="#000000">λ</text>
</g>
</g>
</svg>
