<?xml version="1.0" encoding="UTF-8" standalone="no"?>
<!DOCTYPE svg PUBLIC "-//W3C//DTD SVG 1.1//EN"
 "http://www.w3.org/Graphics/SVG/1.1/DTD/svg11.dtd">
<!-- Generated by graphviz version 2.40.1 (20161225.0304)
 -->
<!-- Title: graph_2_1 Pages: 1 -->
<svg width="443pt" height="87pt"
 viewBox="0.00 0.00 442.74 86.80" xmlns="http://www.w3.org/2000/svg" xmlns:xlink="http://www.w3.org/1999/xlink">
<g id="graph0" class="graph" transform="scale(1 1) rotate(0) translate(4 82.8)">
<title>graph_2_1</title>
<polygon fill="#ffffff" stroke="transparent" points="-4,4 -4,-82.8 438.7448,-82.8 438.7448,4 -4,4"/>
<g id="node1" class="node">
<title></title>
</g>
<!-- 1 -->
<g id="node3" class="node">
<title>1</title>
<ellipse fill="none" stroke="#000000" cx="132.101" cy="-22" rx="18" ry="18"/>
<text text-anchor="middle" x="132.101" y="-17.8" font-family="Times,serif" font-size="14.00" fill="#000000">1</text>
</g>
<!-- &#45;&gt;1 -->
<g id="edge1" class="edge">
<title>&#45;&gt;1</title>
<path fill="none" stroke="#000000" d="M54.0661,-22C69.3856,-22 88.5175,-22 104.0034,-22"/>
<polygon fill="#000000" stroke="#000000" points="104.0503,-25.5001 114.0503,-22 104.0503,-18.5001 104.0503,-25.5001"/>
<text text-anchor="middle" x="84.0505" y="-26.2" font-family="Times,serif" font-size="14.00" fill="#000000">start</text>
</g>
<!-- 4 -->
<g id="node2" class="node">
<title>4</title>
<ellipse fill="none" stroke="#000000" cx="412.7448" cy="-22" rx="18" ry="18"/>
<ellipse fill="none" stroke="#000000" cx="412.7448" cy="-22" rx="22" ry="22"/>
<text text-anchor="middle" x="412.7448" y="-17.8" font-family="Times,serif" font-size="14.00" fill="#000000">4</text>
</g>
<!-- 4&#45;&gt;4 -->
<g id="edge5" class="edge">
<title>4&#45;&gt;4</title>
<path fill="none" stroke="#000000" d="M403.6994,-42.1697C402.3078,-52.599 405.3229,-62 412.7448,-62 417.6154,-62 420.5882,-57.9513 421.6631,-52.2203"/>
<polygon fill="#000000" stroke="#000000" points="425.1634,-52.2132 421.7902,-42.1697 418.164,-52.1246 425.1634,-52.2132"/>
<text text-anchor="middle" x="412.7448" y="-66.2" font-family="Times,serif" font-size="14.00" fill="#000000">a, b</text>
</g>
<!-- 2 -->
<g id="node4" class="node">
<title>2</title>
<ellipse fill="none" stroke="#000000" cx="224.3156" cy="-22" rx="18" ry="18"/>
<text text-anchor="middle" x="224.3156" y="-17.8" font-family="Times,serif" font-size="14.00" fill="#000000">2</text>
</g>
<!-- 1&#45;&gt;2 -->
<g id="edge2" class="edge">
<title>1&#45;&gt;2</title>
<path fill="none" stroke="#000000" d="M150.3196,-22C163.3286,-22 181.0821,-22 195.9384,-22"/>
<polygon fill="#000000" stroke="#000000" points="196.1348,-25.5001 206.1348,-22 196.1348,-18.5001 196.1348,-25.5001"/>
<text text-anchor="middle" x="178.2083" y="-26.2" font-family="Times,serif" font-size="14.00" fill="#000000">a, b</text>
</g>
<!-- 3 -->
<g id="node5" class="node">
<title>3</title>
<ellipse fill="none" stroke="#000000" cx="316.5302" cy="-22" rx="18" ry="18"/>
<text text-anchor="middle" x="316.5302" y="-17.8" font-family="Times,serif" font-size="14.00" fill="#000000">3</text>
</g>
<!-- 2&#45;&gt;3 -->
<g id="edge3" class="edge">
<title>2&#45;&gt;3</title>
<path fill="none" stroke="#000000" d="M242.5342,-22C255.5432,-22 273.2967,-22 288.153,-22"/>
<polygon fill="#000000" stroke="#000000" points="288.3494,-25.5001 298.3494,-22 288.3494,-18.5001 288.3494,-25.5001"/>
<text text-anchor="middle" x="270.4229" y="-26.2" font-family="Times,serif" font-size="14.00" fill="#000000">a, b</text>
</g>
<!-- 3&#45;&gt;4 -->
<g id="edge4" class="edge">
<title>3&#45;&gt;4</title>
<path fill="none" stroke="#000000" d="M334.6274,-22C347.5423,-22 365.2615,-22 380.5596,-22"/>
<polygon fill="#000000" stroke="#000000" points="380.675,-25.5001 390.675,-22 380.675,-18.5001 380.675,-25.5001"/>
<text text-anchor="middle" x="362.6375" y="-26.2" font-family="Times,serif" font-size="14.00" fill="#000000">a, b</text>
</g>
</g>
</svg>
