<?xml version="1.0" encoding="UTF-8" standalone="no"?>
<!DOCTYPE svg PUBLIC "-//W3C//DTD SVG 1.1//EN"
 "http://www.w3.org/Graphics/SVG/1.1/DTD/svg11.dtd">
<!-- Generated by graphviz version 2.40.1 (20161225.0304)
 -->
<!-- Title: graph_3_5 Pages: 1 -->
<svg width="669pt" height="161pt"
 viewBox="0.00 0.00 669.24 161.49" xmlns="http://www.w3.org/2000/svg" xmlns:xlink="http://www.w3.org/1999/xlink">
<g id="graph0" class="graph" transform="scale(1 1) rotate(0) translate(4 157.4935)">
<title>graph_3_5</title>
<polygon fill="#ffffff" stroke="transparent" points="-4,4 -4,-157.4935 665.2448,-157.4935 665.2448,4 -4,4"/>
<g id="node1" class="node">
<title></title>
</g>
<!-- 1 -->
<g id="node3" class="node">
<title>1</title>
<ellipse fill="none" stroke="#000000" cx="132.101" cy="-61.6935" rx="18" ry="18"/>
<text text-anchor="middle" x="132.101" y="-57.4935" font-family="Times,serif" font-size="14.00" fill="#000000">1</text>
</g>
<!-- &#45;&gt;1 -->
<g id="edge1" class="edge">
<title>&#45;&gt;1</title>
<path fill="none" stroke="#000000" d="M54.0661,-61.6935C69.3856,-61.6935 88.5175,-61.6935 104.0034,-61.6935"/>
<polygon fill="#000000" stroke="#000000" points="104.0503,-65.1936 114.0503,-61.6935 104.0503,-58.1936 104.0503,-65.1936"/>
<text text-anchor="middle" x="84.0505" y="-65.8935" font-family="Times,serif" font-size="14.00" fill="#000000">start</text>
</g>
<!-- 9 -->
<g id="node2" class="node">
<title>9</title>
<ellipse fill="none" stroke="#000000" cx="639.2448" cy="-65.6935" rx="18" ry="18"/>
<ellipse fill="none" stroke="#000000" cx="639.2448" cy="-65.6935" rx="22" ry="22"/>
<text text-anchor="middle" x="639.2448" y="-61.4935" font-family="Times,serif" font-size="14.00" fill="#000000">9</text>
</g>
<!-- 9&#45;&gt;9 -->
<g id="edge15" class="edge">
<title>9&#45;&gt;9</title>
<path fill="none" stroke="#000000" d="M630.5107,-86.2743C629.3022,-96.5382 632.2136,-105.6935 639.2448,-105.6935 643.7492,-105.6935 646.5628,-101.9361 647.6856,-96.537"/>
<polygon fill="#000000" stroke="#000000" points="651.1917,-96.3702 647.9789,-86.2743 644.1946,-96.1702 651.1917,-96.3702"/>
<text text-anchor="middle" x="639.2448" y="-109.8935" font-family="Times,serif" font-size="14.00" fill="#000000">a,b</text>
</g>
<!-- 2 -->
<g id="node4" class="node">
<title>2</title>
<ellipse fill="none" stroke="#000000" cx="220.8156" cy="-61.6935" rx="18" ry="18"/>
<text text-anchor="middle" x="220.8156" y="-57.4935" font-family="Times,serif" font-size="14.00" fill="#000000">2</text>
</g>
<!-- 1&#45;&gt;2 -->
<g id="edge2" class="edge">
<title>1&#45;&gt;2</title>
<path fill="none" stroke="#000000" d="M150.4827,-61.6935C162.5768,-61.6935 178.6486,-61.6935 192.3756,-61.6935"/>
<polygon fill="#000000" stroke="#000000" points="192.761,-65.1936 202.761,-61.6935 192.7609,-58.1936 192.761,-65.1936"/>
<text text-anchor="middle" x="176.4583" y="-65.8935" font-family="Times,serif" font-size="14.00" fill="#000000">a,b</text>
</g>
<!-- 3 -->
<g id="node5" class="node">
<title>3</title>
<ellipse fill="none" stroke="#000000" cx="299.8156" cy="-98.6935" rx="18" ry="18"/>
<text text-anchor="middle" x="299.8156" y="-94.4935" font-family="Times,serif" font-size="14.00" fill="#000000">3</text>
</g>
<!-- 2&#45;&gt;3 -->
<g id="edge3" class="edge">
<title>2&#45;&gt;3</title>
<path fill="none" stroke="#000000" d="M237.1845,-69.3599C247.8828,-74.3705 262.0766,-81.0183 274.2468,-86.7182"/>
<polygon fill="#000000" stroke="#000000" points="272.9272,-89.965 283.4677,-91.0369 275.8963,-83.6258 272.9272,-89.965"/>
<text text-anchor="middle" x="260.3156" y="-85.8935" font-family="Times,serif" font-size="14.00" fill="#000000">a</text>
</g>
<!-- 4 -->
<g id="node6" class="node">
<title>4</title>
<ellipse fill="none" stroke="#000000" cx="299.8156" cy="-34.6935" rx="18" ry="18"/>
<text text-anchor="middle" x="299.8156" y="-30.4935" font-family="Times,serif" font-size="14.00" fill="#000000">4</text>
</g>
<!-- 2&#45;&gt;4 -->
<g id="edge4" class="edge">
<title>2&#45;&gt;4</title>
<path fill="none" stroke="#000000" d="M237.0846,-53.8986C243.1878,-51.1492 250.2388,-48.177 256.8156,-45.8935 261.6618,-44.2108 266.8919,-42.6466 271.9793,-41.2528"/>
<polygon fill="#000000" stroke="#000000" points="273.2476,-44.54 282.0529,-38.6479 271.4951,-37.7629 273.2476,-44.54"/>
<text text-anchor="middle" x="260.3156" y="-50.8935" font-family="Times,serif" font-size="14.00" fill="#000000">b</text>
</g>
<!-- 5 -->
<g id="node7" class="node">
<title>5</title>
<ellipse fill="none" stroke="#000000" cx="546.5302" cy="-65.6935" rx="18" ry="18"/>
<text text-anchor="middle" x="546.5302" y="-61.4935" font-family="Times,serif" font-size="14.00" fill="#000000">5</text>
</g>
<!-- 3&#45;&gt;5 -->
<g id="edge5" class="edge">
<title>3&#45;&gt;5</title>
<path fill="none" stroke="#000000" d="M315.0797,-108.9304C321.3027,-112.7441 328.6981,-116.8357 335.8156,-119.6935 393.5941,-142.8923 415.9501,-141.801 475.8156,-124.6935 496.8915,-118.6707 515.674,-102.1783 528.5752,-88.157"/>
<polygon fill="#000000" stroke="#000000" points="531.5127,-90.115 535.4645,-80.2848 526.245,-85.505 531.5127,-90.115"/>
<text text-anchor="middle" x="418.3156" y="-140.8935" font-family="Times,serif" font-size="14.00" fill="#000000">a</text>
</g>
<!-- 6 -->
<g id="node8" class="node">
<title>6</title>
<ellipse fill="none" stroke="#000000" cx="378.8156" cy="-98.6935" rx="18" ry="18"/>
<text text-anchor="middle" x="378.8156" y="-94.4935" font-family="Times,serif" font-size="14.00" fill="#000000">6</text>
</g>
<!-- 3&#45;&gt;6 -->
<g id="edge6" class="edge">
<title>3&#45;&gt;6</title>
<path fill="none" stroke="#000000" d="M318.1384,-98.6935C327.7103,-98.6935 339.6379,-98.6935 350.3785,-98.6935"/>
<polygon fill="#000000" stroke="#000000" points="350.5922,-102.1936 360.5922,-98.6935 350.5922,-95.1936 350.5922,-102.1936"/>
<text text-anchor="middle" x="339.3156" y="-102.8935" font-family="Times,serif" font-size="14.00" fill="#000000">b</text>
</g>
<!-- 4&#45;&gt;5 -->
<g id="edge7" class="edge">
<title>4&#45;&gt;5</title>
<path fill="none" stroke="#000000" d="M315.6284,-26.0616C327.6598,-19.903 344.8189,-11.9806 360.8156,-7.6935 387.1207,-.6436 394.7664,1.2685 421.8156,-1.8935 462.3624,-6.6334 476.2148,-3.581 510.5302,-25.6935 517.5983,-30.2481 524.1461,-36.5441 529.6659,-42.7941"/>
<polygon fill="#000000" stroke="#000000" points="527.0043,-45.0679 536.0695,-50.5517 532.4027,-40.6117 527.0043,-45.0679"/>
<text text-anchor="middle" x="418.3156" y="-6.8935" font-family="Times,serif" font-size="14.00" fill="#000000">b</text>
</g>
<!-- 7 -->
<g id="node9" class="node">
<title>7</title>
<ellipse fill="none" stroke="#000000" cx="378.8156" cy="-34.6935" rx="18" ry="18"/>
<text text-anchor="middle" x="378.8156" y="-30.4935" font-family="Times,serif" font-size="14.00" fill="#000000">7</text>
</g>
<!-- 4&#45;&gt;7 -->
<g id="edge8" class="edge">
<title>4&#45;&gt;7</title>
<path fill="none" stroke="#000000" d="M318.1384,-34.6935C327.7103,-34.6935 339.6379,-34.6935 350.3785,-34.6935"/>
<polygon fill="#000000" stroke="#000000" points="350.5922,-38.1936 360.5922,-34.6935 350.5922,-31.1936 350.5922,-38.1936"/>
<text text-anchor="middle" x="339.3156" y="-38.8935" font-family="Times,serif" font-size="14.00" fill="#000000">a</text>
</g>
<!-- 5&#45;&gt;9 -->
<g id="edge9" class="edge">
<title>5&#45;&gt;9</title>
<path fill="none" stroke="#000000" d="M564.8476,-65.6935C576.7909,-65.6935 592.7115,-65.6935 606.7599,-65.6935"/>
<polygon fill="#000000" stroke="#000000" points="607.0411,-69.1936 617.041,-65.6935 607.041,-62.1936 607.0411,-69.1936"/>
<text text-anchor="middle" x="590.8875" y="-69.8935" font-family="Times,serif" font-size="14.00" fill="#000000">a,b</text>
</g>
<!-- 6&#45;&gt;5 -->
<g id="edge10" class="edge">
<title>6&#45;&gt;5</title>
<path fill="none" stroke="#000000" d="M396.3525,-103.0538C404.1353,-104.494 413.4157,-105.537 421.8156,-104.6935 461.8464,-100.6734 472.9359,-101.0215 510.5302,-86.6935 514.5616,-85.157 518.668,-83.1971 522.5957,-81.0943"/>
<polygon fill="#000000" stroke="#000000" points="524.4057,-84.0908 531.317,-76.0605 520.9064,-78.0282 524.4057,-84.0908"/>
<text text-anchor="middle" x="457.8156" y="-107.8935" font-family="Times,serif" font-size="14.00" fill="#000000">b</text>
</g>
<!-- 8 -->
<g id="node10" class="node">
<title>8</title>
<ellipse fill="none" stroke="#000000" cx="457.8156" cy="-65.6935" rx="18" ry="18"/>
<text text-anchor="middle" x="457.8156" y="-61.4935" font-family="Times,serif" font-size="14.00" fill="#000000">8</text>
</g>
<!-- 6&#45;&gt;8 -->
<g id="edge11" class="edge">
<title>6&#45;&gt;8</title>
<path fill="none" stroke="#000000" d="M395.5695,-91.695C406.0433,-87.3199 419.754,-81.5926 431.6409,-76.6272"/>
<polygon fill="#000000" stroke="#000000" points="433.2076,-79.7659 441.0859,-72.6818 430.5095,-73.3068 433.2076,-79.7659"/>
<text text-anchor="middle" x="418.3156" y="-87.8935" font-family="Times,serif" font-size="14.00" fill="#000000">a</text>
</g>
<!-- 7&#45;&gt;5 -->
<g id="edge12" class="edge">
<title>7&#45;&gt;5</title>
<path fill="none" stroke="#000000" d="M395.9426,-28.3124C415.5664,-21.9413 448.532,-14.1283 475.8156,-21.8935 493.7037,-26.9846 511.4907,-38.0386 524.751,-47.7674"/>
<polygon fill="#000000" stroke="#000000" points="522.6961,-50.602 532.7668,-53.8932 526.9466,-45.0402 522.6961,-50.602"/>
<text text-anchor="middle" x="457.8156" y="-26.8935" font-family="Times,serif" font-size="14.00" fill="#000000">a</text>
</g>
<!-- 7&#45;&gt;8 -->
<g id="edge13" class="edge">
<title>7&#45;&gt;8</title>
<path fill="none" stroke="#000000" d="M396.6115,-39.4565C404.4422,-41.7308 413.6885,-44.6614 421.8156,-47.8935 425.3951,-49.317 429.1063,-50.9552 432.7258,-52.6491"/>
<polygon fill="#000000" stroke="#000000" points="431.4175,-55.9053 441.9385,-57.1537 434.4923,-49.6168 431.4175,-55.9053"/>
<text text-anchor="middle" x="418.3156" y="-52.8935" font-family="Times,serif" font-size="14.00" fill="#000000">b</text>
</g>
<!-- 8&#45;&gt;5 -->
<g id="edge14" class="edge">
<title>8&#45;&gt;5</title>
<path fill="none" stroke="#000000" d="M476.1973,-65.6935C488.2914,-65.6935 504.3632,-65.6935 518.0902,-65.6935"/>
<polygon fill="#000000" stroke="#000000" points="518.4756,-69.1936 528.4756,-65.6935 518.4755,-62.1936 518.4756,-69.1936"/>
<text text-anchor="middle" x="502.1729" y="-69.8935" font-family="Times,serif" font-size="14.00" fill="#000000">a,b</text>
</g>
</g>
</svg>
