<?xml version="1.0" encoding="UTF-8" standalone="no"?>
<!DOCTYPE svg PUBLIC "-//W3C//DTD SVG 1.1//EN"
 "http://www.w3.org/Graphics/SVG/1.1/DTD/svg11.dtd">
<!-- Generated by graphviz version 2.40.1 (20161225.0304)
 -->
<!-- Title: graph_2_2 Pages: 1 -->
<svg width="625pt" height="245pt"
 viewBox="0.00 0.00 624.64 244.80" xmlns="http://www.w3.org/2000/svg" xmlns:xlink="http://www.w3.org/1999/xlink">
<g id="graph0" class="graph" transform="scale(1 1) rotate(0) translate(4 240.8)">
<title>graph_2_2</title>
<polygon fill="#ffffff" stroke="transparent" points="-4,4 -4,-240.8 620.637,-240.8 620.637,4 -4,4"/>
<g id="node1" class="node">
<title></title>
</g>
<!-- 11 -->
<g id="node7" class="node">
<title>11</title>
<ellipse fill="none" stroke="#000000" cx="134.7945" cy="-145" rx="20.8887" ry="20.8887"/>
<text text-anchor="middle" x="134.7945" y="-140.8" font-family="Times,serif" font-size="14.00" fill="#000000">11</text>
</g>
<!-- &#45;&gt;11 -->
<g id="edge1" class="edge">
<title>&#45;&gt;11</title>
<path fill="none" stroke="#000000" d="M54.2011,-145C69.3023,-145 88.1443,-145 103.8118,-145"/>
<polygon fill="#000000" stroke="#000000" points="104.0665,-148.5001 114.0664,-145 104.0664,-141.5001 104.0665,-148.5001"/>
<text text-anchor="middle" x="84.0505" y="-149.2" font-family="Times,serif" font-size="14.00" fill="#000000">start</text>
</g>
<!-- 12 -->
<g id="node2" class="node">
<title>12</title>
<ellipse fill="none" stroke="#000000" cx="223.1814" cy="-58" rx="20.8568" ry="20.8568"/>
<ellipse fill="none" stroke="#000000" cx="223.1814" cy="-58" rx="24.8884" ry="24.8884"/>
<text text-anchor="middle" x="223.1814" y="-53.8" font-family="Times,serif" font-size="14.00" fill="#000000">12</text>
</g>
<!-- 13 -->
<g id="node3" class="node">
<title>13</title>
<ellipse fill="none" stroke="#000000" cx="315.5683" cy="-106" rx="20.8568" ry="20.8568"/>
<ellipse fill="none" stroke="#000000" cx="315.5683" cy="-106" rx="24.8884" ry="24.8884"/>
<text text-anchor="middle" x="315.5683" y="-101.8" font-family="Times,serif" font-size="14.00" fill="#000000">13</text>
</g>
<!-- 12&#45;&gt;13 -->
<g id="edge5" class="edge">
<title>12&#45;&gt;13</title>
<path fill="none" stroke="#000000" d="M245.5457,-69.6195C257.2342,-75.6923 271.7257,-83.2214 284.4877,-89.852"/>
<polygon fill="#000000" stroke="#000000" points="282.9225,-92.9829 293.4099,-94.4875 286.1498,-86.7712 282.9225,-92.9829"/>
<text text-anchor="middle" x="269.3748" y="-88.2" font-family="Times,serif" font-size="14.00" fill="#000000">b</text>
</g>
<!-- 22 -->
<g id="node5" class="node">
<title>22</title>
<ellipse fill="none" stroke="#000000" cx="591.9436" cy="-76" rx="20.8568" ry="20.8568"/>
<ellipse fill="none" stroke="#000000" cx="591.9436" cy="-76" rx="24.8884" ry="24.8884"/>
<text text-anchor="middle" x="591.9436" y="-71.8" font-family="Times,serif" font-size="14.00" fill="#000000">22</text>
</g>
<!-- 12&#45;&gt;22 -->
<g id="edge4" class="edge">
<title>12&#45;&gt;22</title>
<path fill="none" stroke="#000000" d="M247.8657,-55.9374C266.4629,-54.5601 292.5984,-53 315.5683,-53 315.5683,-53 315.5683,-53 499.5567,-53 519.7298,-53 541.6663,-58.2276 559.0997,-63.6983"/>
<polygon fill="#000000" stroke="#000000" points="558.2032,-67.0883 568.7966,-66.9098 560.404,-60.4432 558.2032,-67.0883"/>
<text text-anchor="middle" x="407.1698" y="-57.2" font-family="Times,serif" font-size="14.00" fill="#000000">a</text>
</g>
<!-- 23 -->
<g id="node6" class="node">
<title>23</title>
<ellipse fill="none" stroke="#000000" cx="407.1698" cy="-113" rx="20.8568" ry="20.8568"/>
<ellipse fill="none" stroke="#000000" cx="407.1698" cy="-113" rx="24.8884" ry="24.8884"/>
<text text-anchor="middle" x="407.1698" y="-108.8" font-family="Times,serif" font-size="14.00" fill="#000000">23</text>
</g>
<!-- 13&#45;&gt;23 -->
<g id="edge6" class="edge">
<title>13&#45;&gt;23</title>
<path fill="none" stroke="#000000" d="M340.5988,-107.9128C350.3721,-108.6596 361.7462,-109.5288 372.2983,-110.3352"/>
<polygon fill="#000000" stroke="#000000" points="372.249,-113.8415 382.4867,-111.1138 372.7825,-106.8619 372.249,-113.8415"/>
<text text-anchor="middle" x="361.369" y="-114.2" font-family="Times,serif" font-size="14.00" fill="#000000">a</text>
</g>
<!-- 13&#45;&gt;11 -->
<g id="edge7" class="edge">
<title>13&#45;&gt;11</title>
<path fill="none" stroke="#000000" d="M291.2404,-111.2485C258.5377,-118.3037 200.4202,-130.842 164.9695,-138.4901"/>
<polygon fill="#000000" stroke="#000000" points="164.2171,-135.0718 155.1801,-140.602 165.6933,-141.9144 164.2171,-135.0718"/>
<text text-anchor="middle" x="223.1814" y="-134.2" font-family="Times,serif" font-size="14.00" fill="#000000">b</text>
</g>
<!-- 21 -->
<g id="node4" class="node">
<title>21</title>
<ellipse fill="none" stroke="#000000" cx="499.5567" cy="-163" rx="20.8568" ry="20.8568"/>
<ellipse fill="none" stroke="#000000" cx="499.5567" cy="-163" rx="24.8884" ry="24.8884"/>
<text text-anchor="middle" x="499.5567" y="-158.8" font-family="Times,serif" font-size="14.00" fill="#000000">21</text>
</g>
<!-- 21&#45;&gt;22 -->
<g id="edge9" class="edge">
<title>21&#45;&gt;22</title>
<path fill="none" stroke="#000000" d="M517.8094,-145.8116C531.6018,-132.8233 550.7176,-114.8221 566.0834,-100.3523"/>
<polygon fill="#000000" stroke="#000000" points="568.8481,-102.5564 573.7288,-93.1527 564.0492,-97.4603 568.8481,-102.5564"/>
<text text-anchor="middle" x="545.7501" y="-126.2" font-family="Times,serif" font-size="14.00" fill="#000000">b</text>
</g>
<!-- 21&#45;&gt;11 -->
<g id="edge8" class="edge">
<title>21&#45;&gt;11</title>
<path fill="none" stroke="#000000" d="M474.8653,-164.65C456.2644,-165.7519 430.1276,-167 407.1698,-167 223.1814,-167 223.1814,-167 223.1814,-167 203.0147,-167 181.0056,-161.5402 163.9947,-156.0604"/>
<polygon fill="#000000" stroke="#000000" points="164.7044,-152.6048 154.11,-152.6945 162.448,-159.2312 164.7044,-152.6048"/>
<text text-anchor="middle" x="315.5683" y="-171.2" font-family="Times,serif" font-size="14.00" fill="#000000">a</text>
</g>
<!-- 22&#45;&gt;12 -->
<g id="edge10" class="edge">
<title>22&#45;&gt;12</title>
<path fill="none" stroke="#000000" d="M578.7851,-54.8298C562.9886,-32.342 534.2411,0 499.5567,0 315.5683,0 315.5683,0 315.5683,0 289.4557,0 264.6709,-16.8255 247.3586,-32.3519"/>
<polygon fill="#000000" stroke="#000000" points="244.8311,-29.9245 239.9523,-39.3292 249.6311,-35.0197 244.8311,-29.9245"/>
<text text-anchor="middle" x="407.1698" y="-4.2" font-family="Times,serif" font-size="14.00" fill="#000000">a</text>
</g>
<!-- 22&#45;&gt;23 -->
<g id="edge11" class="edge">
<title>22&#45;&gt;23</title>
<path fill="none" stroke="#000000" d="M567.5999,-80.8747C535.4434,-87.3139 478.6065,-98.6952 441.9339,-106.0387"/>
<polygon fill="#000000" stroke="#000000" points="440.8244,-102.6913 431.7063,-108.0867 442.1989,-109.555 440.8244,-102.6913"/>
<text text-anchor="middle" x="499.5567" y="-104.2" font-family="Times,serif" font-size="14.00" fill="#000000">b</text>
</g>
<!-- 23&#45;&gt;13 -->
<g id="edge12" class="edge">
<title>23&#45;&gt;13</title>
<path fill="none" stroke="#000000" d="M386.7926,-98.8807C380.0036,-94.9484 372.1966,-91.2065 364.4763,-89.2 358.5758,-87.6664 352.3643,-88.1285 346.422,-89.6355"/>
<polygon fill="#000000" stroke="#000000" points="345.0731,-86.3989 336.7781,-92.9901 347.3729,-93.0103 345.0731,-86.3989"/>
<text text-anchor="middle" x="361.369" y="-94.2" font-family="Times,serif" font-size="14.00" fill="#000000">a</text>
</g>
<!-- 23&#45;&gt;21 -->
<g id="edge13" class="edge">
<title>23&#45;&gt;21</title>
<path fill="none" stroke="#000000" d="M429.9742,-122.9292C438.5241,-126.8381 448.2507,-131.5097 456.8632,-136.2 461.1528,-138.536 465.6012,-141.1273 469.9354,-143.7515"/>
<polygon fill="#000000" stroke="#000000" points="468.2404,-146.8187 478.5838,-149.113 471.9287,-140.8692 468.2404,-146.8187"/>
<text text-anchor="middle" x="453.3632" y="-140.2" font-family="Times,serif" font-size="14.00" fill="#000000">b</text>
</g>
<!-- 11&#45;&gt;12 -->
<g id="edge3" class="edge">
<title>11&#45;&gt;12</title>
<path fill="none" stroke="#000000" d="M145.1148,-126.8926C152.1609,-115.5209 162.2349,-101.0133 173.4879,-90.2 179.0937,-84.8133 185.724,-79.7992 192.2844,-75.4076"/>
<polygon fill="#000000" stroke="#000000" points="194.5128,-78.139 201.0843,-69.8284 190.7646,-72.227 194.5128,-78.139"/>
<text text-anchor="middle" x="176.9879" y="-95.2" font-family="Times,serif" font-size="14.00" fill="#000000">b</text>
</g>
<!-- 11&#45;&gt;21 -->
<g id="edge2" class="edge">
<title>11&#45;&gt;21</title>
<path fill="none" stroke="#000000" d="M145.4121,-163.1554C159.9159,-185.3519 188.1641,-220 223.1814,-220 223.1814,-220 223.1814,-220 407.1698,-220 433.1558,-220 457.9504,-203.4646 475.2986,-188.2059"/>
<polygon fill="#000000" stroke="#000000" points="477.7514,-190.7049 482.7229,-181.3489 473.002,-185.5626 477.7514,-190.7049"/>
<text text-anchor="middle" x="315.5683" y="-224.2" font-family="Times,serif" font-size="14.00" fill="#000000">a</text>
</g>
</g>
</svg>
