<?xml version="1.0" encoding="UTF-8" standalone="no"?>
<!DOCTYPE svg PUBLIC "-//W3C//DTD SVG 1.1//EN"
 "http://www.w3.org/Graphics/SVG/1.1/DTD/svg11.dtd">
<!-- Generated by graphviz version 2.40.1 (20161225.0304)
 -->
<!-- Title: graph_3_3 Pages: 1 -->
<svg width="1271pt" height="393pt"
 viewBox="0.00 0.00 1271.36 392.80" xmlns="http://www.w3.org/2000/svg" xmlns:xlink="http://www.w3.org/1999/xlink">
<g id="graph0" class="graph" transform="scale(1 1) rotate(0) translate(4 388.8)">
<title>graph_3_3</title>
<polygon fill="#ffffff" stroke="transparent" points="-4,4 -4,-388.8 1267.3562,-388.8 1267.3562,4 -4,4"/>
<g id="node1" class="node">
<title></title>
</g>
<!-- 0 -->
<g id="node3" class="node">
<title>0</title>
<ellipse fill="none" stroke="#000000" cx="132.101" cy="-254" rx="18" ry="18"/>
<text text-anchor="middle" x="132.101" y="-249.8" font-family="Times,serif" font-size="14.00" fill="#000000">0</text>
</g>
<!-- &#45;&gt;0 -->
<g id="edge1" class="edge">
<title>&#45;&gt;0</title>
<path fill="none" stroke="#000000" d="M54.0661,-254C69.3856,-254 88.5175,-254 104.0034,-254"/>
<polygon fill="#000000" stroke="#000000" points="104.0503,-257.5001 114.0503,-254 104.0503,-250.5001 104.0503,-257.5001"/>
<text text-anchor="middle" x="84.0505" y="-258.2" font-family="Times,serif" font-size="14.00" fill="#000000">start</text>
</g>
<!-- 20 -->
<g id="node2" class="node">
<title>20</title>
<ellipse fill="none" stroke="#000000" cx="1238.6628" cy="-290" rx="20.8568" ry="20.8568"/>
<ellipse fill="none" stroke="#000000" cx="1238.6628" cy="-290" rx="24.8884" ry="24.8884"/>
<text text-anchor="middle" x="1238.6628" y="-285.8" font-family="Times,serif" font-size="14.00" fill="#000000">20</text>
</g>
<!-- 1 -->
<g id="node4" class="node">
<title>1</title>
<ellipse fill="none" stroke="#000000" cx="205.101" cy="-254" rx="18" ry="18"/>
<text text-anchor="middle" x="205.101" y="-249.8" font-family="Times,serif" font-size="14.00" fill="#000000">1</text>
</g>
<!-- 0&#45;&gt;1 -->
<g id="edge2" class="edge">
<title>0&#45;&gt;1</title>
<path fill="none" stroke="#000000" d="M150.1459,-254C158.2182,-254 167.9246,-254 176.9193,-254"/>
<polygon fill="#000000" stroke="#000000" points="177.0107,-257.5001 187.0106,-254 177.0106,-250.5001 177.0107,-257.5001"/>
</g>
<!-- 2 -->
<g id="node5" class="node">
<title>2</title>
<ellipse fill="none" stroke="#000000" cx="288.7616" cy="-281" rx="18" ry="18"/>
<text text-anchor="middle" x="288.7616" y="-276.8" font-family="Times,serif" font-size="14.00" fill="#000000">2</text>
</g>
<!-- 1&#45;&gt;2 -->
<g id="edge3" class="edge">
<title>1&#45;&gt;2</title>
<path fill="none" stroke="#000000" d="M222.4355,-259.5944C233.7651,-263.2508 248.7962,-268.1019 261.6843,-272.2613"/>
<polygon fill="#000000" stroke="#000000" points="260.8576,-275.6722 271.4493,-275.4127 263.0076,-269.0105 260.8576,-275.6722"/>
<text text-anchor="middle" x="246.9313" y="-274.2" font-family="Times,serif" font-size="14.00" fill="#000000">λ</text>
</g>
<!-- 4 -->
<g id="node6" class="node">
<title>4</title>
<ellipse fill="none" stroke="#000000" cx="288.7616" cy="-227" rx="18" ry="18"/>
<text text-anchor="middle" x="288.7616" y="-222.8" font-family="Times,serif" font-size="14.00" fill="#000000">4</text>
</g>
<!-- 1&#45;&gt;4 -->
<g id="edge4" class="edge">
<title>1&#45;&gt;4</title>
<path fill="none" stroke="#000000" d="M222.4355,-248.4056C233.7651,-244.7492 248.7962,-239.8981 261.6843,-235.7387"/>
<polygon fill="#000000" stroke="#000000" points="263.0076,-238.9895 271.4493,-232.5873 260.8576,-232.3278 263.0076,-238.9895"/>
<text text-anchor="middle" x="246.9313" y="-247.2" font-family="Times,serif" font-size="14.00" fill="#000000">λ</text>
</g>
<!-- 3 -->
<g id="node7" class="node">
<title>3</title>
<ellipse fill="none" stroke="#000000" cx="367.7616" cy="-281" rx="18" ry="18"/>
<text text-anchor="middle" x="367.7616" y="-276.8" font-family="Times,serif" font-size="14.00" fill="#000000">3</text>
</g>
<!-- 2&#45;&gt;3 -->
<g id="edge5" class="edge">
<title>2&#45;&gt;3</title>
<path fill="none" stroke="#000000" d="M307.0844,-281C316.6563,-281 328.5839,-281 339.3245,-281"/>
<polygon fill="#000000" stroke="#000000" points="339.5382,-284.5001 349.5382,-281 339.5382,-277.5001 339.5382,-284.5001"/>
<text text-anchor="middle" x="328.2616" y="-285.2" font-family="Times,serif" font-size="14.00" fill="#000000">b</text>
</g>
<!-- 5 -->
<g id="node9" class="node">
<title>5</title>
<ellipse fill="none" stroke="#000000" cx="367.7616" cy="-227" rx="18" ry="18"/>
<text text-anchor="middle" x="367.7616" y="-222.8" font-family="Times,serif" font-size="14.00" fill="#000000">5</text>
</g>
<!-- 4&#45;&gt;5 -->
<g id="edge7" class="edge">
<title>4&#45;&gt;5</title>
<path fill="none" stroke="#000000" d="M307.0844,-227C316.6563,-227 328.5839,-227 339.3245,-227"/>
<polygon fill="#000000" stroke="#000000" points="339.5382,-230.5001 349.5382,-227 339.5382,-223.5001 339.5382,-230.5001"/>
<text text-anchor="middle" x="328.2616" y="-231.2" font-family="Times,serif" font-size="14.00" fill="#000000">c</text>
</g>
<!-- 6 -->
<g id="node8" class="node">
<title>6</title>
<ellipse fill="none" stroke="#000000" cx="451.4222" cy="-254" rx="18" ry="18"/>
<text text-anchor="middle" x="451.4222" y="-249.8" font-family="Times,serif" font-size="14.00" fill="#000000">6</text>
</g>
<!-- 3&#45;&gt;6 -->
<g id="edge6" class="edge">
<title>3&#45;&gt;6</title>
<path fill="none" stroke="#000000" d="M385.0961,-275.4056C396.4257,-271.7492 411.4568,-266.8981 424.3449,-262.7387"/>
<polygon fill="#000000" stroke="#000000" points="425.6682,-265.9895 434.1099,-259.5873 423.5182,-259.3278 425.6682,-265.9895"/>
<text text-anchor="middle" x="409.5919" y="-274.2" font-family="Times,serif" font-size="14.00" fill="#000000">λ</text>
</g>
<!-- 6&#45;&gt;20 -->
<g id="edge10" class="edge">
<title>6&#45;&gt;20</title>
<path fill="none" stroke="#000000" d="M455.6564,-271.8125C464.4564,-303.875 487.9481,-368 535.0828,-368 535.0828,-368 535.0828,-368 1145.6153,-368 1177.0166,-368 1203.3801,-341.5878 1219.9358,-319.5024"/>
<polygon fill="#000000" stroke="#000000" points="1222.8215,-321.4841 1225.7908,-311.3138 1217.1273,-317.4126 1222.8215,-321.4841"/>
<text text-anchor="middle" x="839.395" y="-372.2" font-family="Times,serif" font-size="14.00" fill="#000000">λ</text>
</g>
<!-- 7 -->
<g id="node10" class="node">
<title>7</title>
<ellipse fill="none" stroke="#000000" cx="535.0828" cy="-140" rx="18" ry="18"/>
<text text-anchor="middle" x="535.0828" y="-135.8" font-family="Times,serif" font-size="14.00" fill="#000000">7</text>
</g>
<!-- 6&#45;&gt;7 -->
<g id="edge9" class="edge">
<title>6&#45;&gt;7</title>
<path fill="none" stroke="#000000" d="M462.3594,-239.0965C476.6551,-219.6164 501.8275,-185.3153 518.482,-162.6211"/>
<polygon fill="#000000" stroke="#000000" points="521.3127,-164.6795 524.4075,-154.5467 515.6693,-160.538 521.3127,-164.6795"/>
<text text-anchor="middle" x="493.2525" y="-208.2" font-family="Times,serif" font-size="14.00" fill="#000000">λ</text>
</g>
<!-- 5&#45;&gt;6 -->
<g id="edge8" class="edge">
<title>5&#45;&gt;6</title>
<path fill="none" stroke="#000000" d="M385.0961,-232.5944C396.4257,-236.2508 411.4568,-241.1019 424.3449,-245.2613"/>
<polygon fill="#000000" stroke="#000000" points="423.5182,-248.6722 434.1099,-248.4127 425.6682,-242.0105 423.5182,-248.6722"/>
<text text-anchor="middle" x="409.5919" y="-247.2" font-family="Times,serif" font-size="14.00" fill="#000000">λ</text>
</g>
<!-- 8 -->
<g id="node11" class="node">
<title>8</title>
<ellipse fill="none" stroke="#000000" cx="621.4369" cy="-211" rx="18" ry="18"/>
<text text-anchor="middle" x="621.4369" y="-206.8" font-family="Times,serif" font-size="14.00" fill="#000000">8</text>
</g>
<!-- 7&#45;&gt;8 -->
<g id="edge11" class="edge">
<title>7&#45;&gt;8</title>
<path fill="none" stroke="#000000" d="M549.3424,-151.7242C562.9233,-162.8903 583.5682,-179.8646 599.2905,-192.7914"/>
<polygon fill="#000000" stroke="#000000" points="597.4954,-195.8465 607.4426,-199.494 601.941,-190.4395 597.4954,-195.8465"/>
<text text-anchor="middle" x="576.9131" y="-182.2" font-family="Times,serif" font-size="14.00" fill="#000000">λ</text>
</g>
<!-- 14 -->
<g id="node12" class="node">
<title>14</title>
<ellipse fill="none" stroke="#000000" cx="621.4369" cy="-116" rx="20.8887" ry="20.8887"/>
<text text-anchor="middle" x="621.4369" y="-111.8" font-family="Times,serif" font-size="14.00" fill="#000000">14</text>
</g>
<!-- 7&#45;&gt;14 -->
<g id="edge12" class="edge">
<title>7&#45;&gt;14</title>
<path fill="none" stroke="#000000" d="M552.5578,-135.1432C563.6796,-132.0522 578.3786,-127.967 591.3407,-124.3645"/>
<polygon fill="#000000" stroke="#000000" points="592.5646,-127.6571 601.2622,-121.6071 590.6901,-120.9127 592.5646,-127.6571"/>
<text text-anchor="middle" x="576.9131" y="-134.2" font-family="Times,serif" font-size="14.00" fill="#000000">λ</text>
</g>
<!-- 9 -->
<g id="node13" class="node">
<title>9</title>
<ellipse fill="none" stroke="#000000" cx="710.4844" cy="-264" rx="18" ry="18"/>
<text text-anchor="middle" x="710.4844" y="-259.8" font-family="Times,serif" font-size="14.00" fill="#000000">9</text>
</g>
<!-- 8&#45;&gt;9 -->
<g id="edge13" class="edge">
<title>8&#45;&gt;9</title>
<path fill="none" stroke="#000000" d="M636.9477,-220.2319C650.5271,-228.3141 670.4837,-240.1921 686.182,-249.5355"/>
<polygon fill="#000000" stroke="#000000" points="684.4692,-252.5891 694.8524,-254.6961 688.0494,-246.5739 684.4692,-252.5891"/>
<text text-anchor="middle" x="665.9606" y="-245.2" font-family="Times,serif" font-size="14.00" fill="#000000">λ</text>
</g>
<!-- 12 -->
<g id="node14" class="node">
<title>12</title>
<ellipse fill="none" stroke="#000000" cx="972.9663" cy="-211" rx="20.8887" ry="20.8887"/>
<text text-anchor="middle" x="972.9663" y="-206.8" font-family="Times,serif" font-size="14.00" fill="#000000">12</text>
</g>
<!-- 8&#45;&gt;12 -->
<g id="edge14" class="edge">
<title>8&#45;&gt;12</title>
<path fill="none" stroke="#000000" d="M639.515,-211C657.506,-211 685.9035,-211 710.4844,-211 710.4844,-211 710.4844,-211 883.9188,-211 903.2506,-211 924.9431,-211 942.0775,-211"/>
<polygon fill="#000000" stroke="#000000" points="942.0953,-214.5001 952.0953,-211 942.0953,-207.5001 942.0953,-214.5001"/>
<text text-anchor="middle" x="794.8713" y="-215.2" font-family="Times,serif" font-size="14.00" fill="#000000">λ</text>
</g>
<!-- 15 -->
<g id="node19" class="node">
<title>15</title>
<ellipse fill="none" stroke="#000000" cx="710.4844" cy="-116" rx="20.8887" ry="20.8887"/>
<text text-anchor="middle" x="710.4844" y="-111.8" font-family="Times,serif" font-size="14.00" fill="#000000">15</text>
</g>
<!-- 14&#45;&gt;15 -->
<g id="edge21" class="edge">
<title>14&#45;&gt;15</title>
<path fill="none" stroke="#000000" d="M642.5399,-116C653.5187,-116 667.1536,-116 679.3213,-116"/>
<polygon fill="#000000" stroke="#000000" points="679.5329,-119.5001 689.5328,-116 679.5328,-112.5001 679.5329,-119.5001"/>
<text text-anchor="middle" x="665.9606" y="-120.2" font-family="Times,serif" font-size="14.00" fill="#000000">λ</text>
</g>
<!-- 18 -->
<g id="node20" class="node">
<title>18</title>
<ellipse fill="none" stroke="#000000" cx="972.9663" cy="-109" rx="20.8887" ry="20.8887"/>
<text text-anchor="middle" x="972.9663" y="-104.8" font-family="Times,serif" font-size="14.00" fill="#000000">18</text>
</g>
<!-- 14&#45;&gt;18 -->
<g id="edge22" class="edge">
<title>14&#45;&gt;18</title>
<path fill="none" stroke="#000000" d="M632.9826,-98.336C648.0906,-77.5991 676.6615,-46 710.4844,-46 710.4844,-46 710.4844,-46 883.9188,-46 911.8368,-46 937.1309,-66.8922 953.5648,-84.6144"/>
<polygon fill="#000000" stroke="#000000" points="951.2315,-87.2603 960.4697,-92.4475 956.4826,-82.6315 951.2315,-87.2603"/>
<text text-anchor="middle" x="794.8713" y="-50.2" font-family="Times,serif" font-size="14.00" fill="#000000">λ</text>
</g>
<!-- 10 -->
<g id="node15" class="node">
<title>10</title>
<ellipse fill="none" stroke="#000000" cx="794.8713" cy="-319" rx="20.8887" ry="20.8887"/>
<text text-anchor="middle" x="794.8713" y="-314.8" font-family="Times,serif" font-size="14.00" fill="#000000">10</text>
</g>
<!-- 9&#45;&gt;10 -->
<g id="edge15" class="edge">
<title>9&#45;&gt;10</title>
<path fill="none" stroke="#000000" d="M725.571,-273.8329C737.5844,-281.6627 754.6819,-292.8062 768.8881,-302.0652"/>
<polygon fill="#000000" stroke="#000000" points="766.9997,-305.0122 777.2885,-307.5403 770.8219,-299.1478 766.9997,-305.0122"/>
<text text-anchor="middle" x="752.6778" y="-297.2" font-family="Times,serif" font-size="14.00" fill="#000000">a</text>
</g>
<!-- 13 -->
<g id="node17" class="node">
<title>13</title>
<ellipse fill="none" stroke="#000000" cx="1056.5678" cy="-186" rx="20.8887" ry="20.8887"/>
<text text-anchor="middle" x="1056.5678" y="-181.8" font-family="Times,serif" font-size="14.00" fill="#000000">13</text>
</g>
<!-- 12&#45;&gt;13 -->
<g id="edge19" class="edge">
<title>12&#45;&gt;13</title>
<path fill="none" stroke="#000000" d="M993.2039,-204.9482C1003.2674,-201.9388 1015.6272,-198.2428 1026.7504,-194.9165"/>
<polygon fill="#000000" stroke="#000000" points="1027.9385,-198.2144 1036.5166,-191.9961 1025.933,-191.5079 1027.9385,-198.2144"/>
<text text-anchor="middle" x="1014.767" y="-204.2" font-family="Times,serif" font-size="14.00" fill="#000000">c</text>
</g>
<!-- 11 -->
<g id="node16" class="node">
<title>11</title>
<ellipse fill="none" stroke="#000000" cx="883.9188" cy="-264" rx="20.8887" ry="20.8887"/>
<text text-anchor="middle" x="883.9188" y="-259.8" font-family="Times,serif" font-size="14.00" fill="#000000">11</text>
</g>
<!-- 10&#45;&gt;11 -->
<g id="edge16" class="edge">
<title>10&#45;&gt;11</title>
<path fill="none" stroke="#000000" d="M812.8914,-307.8699C825.7695,-299.9158 843.2988,-289.0888 857.7207,-280.1812"/>
<polygon fill="#000000" stroke="#000000" points="859.5606,-283.1586 866.2294,-274.9258 855.8821,-277.203 859.5606,-283.1586"/>
<text text-anchor="middle" x="839.395" y="-298.2" font-family="Times,serif" font-size="14.00" fill="#000000">b</text>
</g>
<!-- 11&#45;&gt;9 -->
<g id="edge17" class="edge">
<title>11&#45;&gt;9</title>
<path fill="none" stroke="#000000" d="M862.9857,-264C832.0499,-264 774.032,-264 739.1616,-264"/>
<polygon fill="#000000" stroke="#000000" points="738.7171,-260.5001 728.7171,-264 738.717,-267.5001 738.7171,-260.5001"/>
<text text-anchor="middle" x="794.8713" y="-268.2" font-family="Times,serif" font-size="14.00" fill="#000000">λ</text>
</g>
<!-- 11&#45;&gt;12 -->
<g id="edge18" class="edge">
<title>11&#45;&gt;12</title>
<path fill="none" stroke="#000000" d="M901.9389,-253.2747C914.6121,-245.7317 931.7898,-235.5077 946.0776,-227.0038"/>
<polygon fill="#000000" stroke="#000000" points="948.1699,-229.8316 954.973,-221.7094 944.5898,-223.8164 948.1699,-229.8316"/>
<text text-anchor="middle" x="928.4425" y="-245.2" font-family="Times,serif" font-size="14.00" fill="#000000">λ</text>
</g>
<!-- 19 -->
<g id="node18" class="node">
<title>19</title>
<ellipse fill="none" stroke="#000000" cx="1145.6153" cy="-121" rx="20.8887" ry="20.8887"/>
<text text-anchor="middle" x="1145.6153" y="-116.8" font-family="Times,serif" font-size="14.00" fill="#000000">19</text>
</g>
<!-- 13&#45;&gt;19 -->
<g id="edge20" class="edge">
<title>13&#45;&gt;19</title>
<path fill="none" stroke="#000000" d="M1073.3169,-173.774C1086.5411,-164.1211 1105.2079,-150.4952 1120.2613,-139.5071"/>
<polygon fill="#000000" stroke="#000000" points="1122.6249,-142.115 1128.6385,-133.3922 1118.4978,-136.4611 1122.6249,-142.115"/>
<text text-anchor="middle" x="1101.0915" y="-162.2" font-family="Times,serif" font-size="14.00" fill="#000000">λ</text>
</g>
<!-- 19&#45;&gt;20 -->
<g id="edge29" class="edge">
<title>19&#45;&gt;20</title>
<path fill="none" stroke="#000000" d="M1155.7501,-139.4077C1171.6183,-168.2287 1202.5019,-224.3219 1221.7705,-259.3189"/>
<polygon fill="#000000" stroke="#000000" points="1218.7497,-261.0892 1226.6388,-268.1612 1224.8817,-257.713 1218.7497,-261.0892"/>
<text text-anchor="middle" x="1190.139" y="-215.2" font-family="Times,serif" font-size="14.00" fill="#000000">λ</text>
</g>
<!-- 19&#45;&gt;7 -->
<g id="edge28" class="edge">
<title>19&#45;&gt;7</title>
<path fill="none" stroke="#000000" d="M1140.7163,-100.7473C1131.0395,-66.3016 1105.9939,0 1056.5678,0 621.4369,0 621.4369,0 621.4369,0 569.2899,0 547.5991,-71.2313 539.448,-112.0755"/>
<polygon fill="#000000" stroke="#000000" points="535.9925,-111.5144 537.6159,-121.9841 542.8758,-112.7871 535.9925,-111.5144"/>
<text text-anchor="middle" x="839.395" y="-4.2" font-family="Times,serif" font-size="14.00" fill="#000000">λ</text>
</g>
<!-- 16 -->
<g id="node21" class="node">
<title>16</title>
<ellipse fill="none" stroke="#000000" cx="794.8713" cy="-154" rx="20.8887" ry="20.8887"/>
<text text-anchor="middle" x="794.8713" y="-149.8" font-family="Times,serif" font-size="14.00" fill="#000000">16</text>
</g>
<!-- 15&#45;&gt;16 -->
<g id="edge23" class="edge">
<title>15&#45;&gt;16</title>
<path fill="none" stroke="#000000" d="M729.6331,-124.6228C740.5303,-129.5299 754.386,-135.7692 766.5227,-141.2345"/>
<polygon fill="#000000" stroke="#000000" points="765.2431,-144.4967 775.7983,-145.4113 768.1173,-138.1139 765.2431,-144.4967"/>
<text text-anchor="middle" x="752.6778" y="-141.2" font-family="Times,serif" font-size="14.00" fill="#000000">b</text>
</g>
<!-- 18&#45;&gt;19 -->
<g id="edge27" class="edge">
<title>18&#45;&gt;19</title>
<path fill="none" stroke="#000000" d="M993.7918,-110.4475C1023.8647,-112.5377 1079.6653,-116.4161 1114.5967,-118.844"/>
<polygon fill="#000000" stroke="#000000" points="1114.4973,-122.3455 1124.7159,-119.5474 1114.9827,-115.3623 1114.4973,-122.3455"/>
<text text-anchor="middle" x="1056.5678" y="-121.2" font-family="Times,serif" font-size="14.00" fill="#000000">λ</text>
</g>
<!-- 17 -->
<g id="node22" class="node">
<title>17</title>
<ellipse fill="none" stroke="#000000" cx="883.9188" cy="-109" rx="20.8887" ry="20.8887"/>
<text text-anchor="middle" x="883.9188" y="-104.8" font-family="Times,serif" font-size="14.00" fill="#000000">17</text>
</g>
<!-- 16&#45;&gt;17 -->
<g id="edge24" class="edge">
<title>16&#45;&gt;17</title>
<path fill="none" stroke="#000000" d="M813.7559,-144.4567C826.1171,-138.21 842.4779,-129.942 856.2911,-122.9616"/>
<polygon fill="#000000" stroke="#000000" points="858.0202,-126.0094 865.3667,-118.3753 854.8629,-119.7618 858.0202,-126.0094"/>
<text text-anchor="middle" x="839.395" y="-139.2" font-family="Times,serif" font-size="14.00" fill="#000000">a</text>
</g>
<!-- 17&#45;&gt;15 -->
<g id="edge25" class="edge">
<title>17&#45;&gt;15</title>
<path fill="none" stroke="#000000" d="M863.2609,-107.6165C841.1814,-106.3818 805.164,-105.0696 774.1778,-107.2 763.3196,-107.9465 751.4933,-109.4009 741.0114,-110.9156"/>
<polygon fill="#000000" stroke="#000000" points="740.4242,-107.4646 731.0632,-112.4265 741.4754,-114.3852 740.4242,-107.4646"/>
<text text-anchor="middle" x="794.8713" y="-112.2" font-family="Times,serif" font-size="14.00" fill="#000000">λ</text>
</g>
<!-- 17&#45;&gt;18 -->
<g id="edge26" class="edge">
<title>17&#45;&gt;18</title>
<path fill="none" stroke="#000000" d="M905.0218,-109C916.0006,-109 929.6355,-109 941.8032,-109"/>
<polygon fill="#000000" stroke="#000000" points="942.0148,-112.5001 952.0147,-109 942.0147,-105.5001 942.0148,-112.5001"/>
<text text-anchor="middle" x="928.4425" y="-113.2" font-family="Times,serif" font-size="14.00" fill="#000000">λ</text>
</g>
</g>
</svg>
