<?xml version="1.0" encoding="UTF-8" standalone="no"?>
<!DOCTYPE svg PUBLIC "-//W3C//DTD SVG 1.1//EN"
 "http://www.w3.org/Graphics/SVG/1.1/DTD/svg11.dtd">
<!-- Generated by graphviz version 2.40.1 (20161225.0304)
 -->
<!-- Title: graph_4_1 Pages: 1 -->
<svg width="402pt" height="163pt"
 viewBox="0.00 0.00 402.32 163.00" xmlns="http://www.w3.org/2000/svg" xmlns:xlink="http://www.w3.org/1999/xlink">
<g id="graph0" class="graph" transform="scale(1 1) rotate(0) translate(4 159)">
<title>graph_4_1</title>
<polygon fill="#ffffff" stroke="transparent" points="-4,4 -4,-159 398.3156,-159 398.3156,4 -4,4"/>
<g id="node1" class="node">
<title></title>
</g>
<!-- 1 -->
<g id="node3" class="node">
<title>1</title>
<ellipse fill="none" stroke="#000000" cx="132.101" cy="-54" rx="18" ry="18"/>
<text text-anchor="middle" x="132.101" y="-49.8" font-family="Times,serif" font-size="14.00" fill="#000000">1</text>
</g>
<!-- &#45;&gt;1 -->
<g id="edge1" class="edge">
<title>&#45;&gt;1</title>
<path fill="none" stroke="#000000" d="M54.0661,-54C69.3856,-54 88.5175,-54 104.0034,-54"/>
<polygon fill="#000000" stroke="#000000" points="104.0503,-57.5001 114.0503,-54 104.0503,-50.5001 104.0503,-57.5001"/>
<text text-anchor="middle" x="84.0505" y="-58.2" font-family="Times,serif" font-size="14.00" fill="#000000">start</text>
</g>
<!-- 4 -->
<g id="node2" class="node">
<title>4</title>
<ellipse fill="none" stroke="#000000" cx="215.101" cy="-112" rx="18" ry="18"/>
<ellipse fill="none" stroke="#000000" cx="215.101" cy="-112" rx="22" ry="22"/>
<text text-anchor="middle" x="215.101" y="-107.8" font-family="Times,serif" font-size="14.00" fill="#000000">4</text>
</g>
<!-- 5 -->
<g id="node6" class="node">
<title>5</title>
<ellipse fill="none" stroke="#000000" cx="297.3156" cy="-137" rx="18" ry="18"/>
<text text-anchor="middle" x="297.3156" y="-132.8" font-family="Times,serif" font-size="14.00" fill="#000000">5</text>
</g>
<!-- 4&#45;&gt;5 -->
<g id="edge6" class="edge">
<title>4&#45;&gt;5</title>
<path fill="none" stroke="#000000" d="M236.2733,-118.4381C246.6913,-121.606 259.3632,-125.4593 270.4556,-128.8324"/>
<polygon fill="#000000" stroke="#000000" points="269.5028,-132.2008 280.0886,-131.7616 271.5394,-125.5036 269.5028,-132.2008"/>
<text text-anchor="middle" x="258.2083" y="-129.2" font-family="Times,serif" font-size="14.00" fill="#000000">a</text>
</g>
<!-- 1&#45;&gt;4 -->
<g id="edge5" class="edge">
<title>1&#45;&gt;4</title>
<path fill="none" stroke="#000000" d="M146.9397,-64.3692C158.4147,-72.3879 174.6058,-83.7021 188.3283,-93.2914"/>
<polygon fill="#000000" stroke="#000000" points="186.7134,-96.4327 196.9152,-99.2918 190.723,-90.6948 186.7134,-96.4327"/>
<text text-anchor="middle" x="171.601" y="-87.2" font-family="Times,serif" font-size="14.00" fill="#000000">b</text>
</g>
<!-- 2 -->
<g id="node4" class="node">
<title>2</title>
<ellipse fill="none" stroke="#000000" cx="215.101" cy="-54" rx="18" ry="18"/>
<text text-anchor="middle" x="215.101" y="-49.8" font-family="Times,serif" font-size="14.00" fill="#000000">2</text>
</g>
<!-- 1&#45;&gt;2 -->
<g id="edge2" class="edge">
<title>1&#45;&gt;2</title>
<path fill="none" stroke="#000000" d="M150.1108,-54C160.8047,-54 174.6016,-54 186.7304,-54"/>
<polygon fill="#000000" stroke="#000000" points="186.8398,-57.5001 196.8398,-54 186.8397,-50.5001 186.8398,-57.5001"/>
<text text-anchor="middle" x="171.601" y="-58.2" font-family="Times,serif" font-size="14.00" fill="#000000">a</text>
</g>
<!-- 3 -->
<g id="node5" class="node">
<title>3</title>
<ellipse fill="none" stroke="#000000" cx="297.3156" cy="-18" rx="18" ry="18"/>
<text text-anchor="middle" x="297.3156" y="-13.8" font-family="Times,serif" font-size="14.00" fill="#000000">3</text>
</g>
<!-- 2&#45;&gt;3 -->
<g id="edge3" class="edge">
<title>2&#45;&gt;3</title>
<path fill="none" stroke="#000000" d="M231.7384,-46.7149C243.1049,-41.7377 258.3959,-35.0421 271.3531,-29.3684"/>
<polygon fill="#000000" stroke="#000000" points="272.9466,-32.4916 280.703,-25.2743 270.1388,-26.0794 272.9466,-32.4916"/>
<text text-anchor="middle" x="258.2083" y="-40.2" font-family="Times,serif" font-size="14.00" fill="#000000">a</text>
</g>
<!-- 3&#45;&gt;1 -->
<g id="edge4" class="edge">
<title>3&#45;&gt;1</title>
<path fill="none" stroke="#000000" d="M279.8749,-12.7515C258.7842,-7.291 222.4617,-.7508 193.101,-10.2 178.0686,-15.0379 163.6054,-25.1031 152.538,-34.366"/>
<polygon fill="#000000" stroke="#000000" points="149.9763,-31.9581 144.7834,-41.1931 154.6019,-37.2121 149.9763,-31.9581"/>
<text text-anchor="middle" x="215.101" y="-15.2" font-family="Times,serif" font-size="14.00" fill="#000000">b</text>
</g>
<!-- 6 -->
<g id="node7" class="node">
<title>6</title>
<ellipse fill="none" stroke="#000000" cx="376.3156" cy="-100" rx="18" ry="18"/>
<text text-anchor="middle" x="376.3156" y="-95.8" font-family="Times,serif" font-size="14.00" fill="#000000">6</text>
</g>
<!-- 5&#45;&gt;6 -->
<g id="edge7" class="edge">
<title>5&#45;&gt;6</title>
<path fill="none" stroke="#000000" d="M313.6845,-129.3336C324.3828,-124.3229 338.5766,-117.6752 350.7468,-111.9753"/>
<polygon fill="#000000" stroke="#000000" points="352.3963,-115.0677 359.9677,-107.6566 349.4272,-108.7285 352.3963,-115.0677"/>
<text text-anchor="middle" x="336.8156" y="-123.2" font-family="Times,serif" font-size="14.00" fill="#000000">b</text>
</g>
<!-- 6&#45;&gt;4 -->
<g id="edge8" class="edge">
<title>6&#45;&gt;4</title>
<path fill="none" stroke="#000000" d="M358.3554,-96.4742C338.8222,-93.1666 306.7212,-89.2707 279.3156,-93.2 268.0747,-94.8117 256.0549,-97.9339 245.4903,-101.178"/>
<polygon fill="#000000" stroke="#000000" points="244.3213,-97.8775 235.8802,-104.2804 246.4718,-104.539 244.3213,-97.8775"/>
<text text-anchor="middle" x="297.3156" y="-97.2" font-family="Times,serif" font-size="14.00" fill="#000000">a</text>
</g>
</g>
</svg>
