<?xml version="1.0" encoding="UTF-8" standalone="no"?>
<!DOCTYPE svg PUBLIC "-//W3C//DTD SVG 1.1//EN"
 "http://www.w3.org/Graphics/SVG/1.1/DTD/svg11.dtd">
<!-- Generated by graphviz version 2.40.1 (20161225.0304)
 -->
<!-- Title: graph_3_1 Pages: 1 -->
<svg width="687pt" height="166pt"
 viewBox="0.00 0.00 686.90 166.00" xmlns="http://www.w3.org/2000/svg" xmlns:xlink="http://www.w3.org/1999/xlink">
<g id="graph0" class="graph" transform="scale(1 1) rotate(0) translate(4 162)">
<title>graph_3_1</title>
<polygon fill="#ffffff" stroke="transparent" points="-4,4 -4,-162 682.8989,-162 682.8989,4 -4,4"/>
<g id="node1" class="node">
<title></title>
</g>
<!-- 1 -->
<g id="node3" class="node">
<title>1</title>
<ellipse fill="none" stroke="#000000" cx="132.101" cy="-56" rx="18" ry="18"/>
<text text-anchor="middle" x="132.101" y="-51.8" font-family="Times,serif" font-size="14.00" fill="#000000">1</text>
</g>
<!-- &#45;&gt;1 -->
<g id="edge1" class="edge">
<title>&#45;&gt;1</title>
<path fill="none" stroke="#000000" d="M54.0661,-56C69.3856,-56 88.5175,-56 104.0034,-56"/>
<polygon fill="#000000" stroke="#000000" points="104.0503,-59.5001 114.0503,-56 104.0503,-52.5001 104.0503,-59.5001"/>
<text text-anchor="middle" x="84.0505" y="-60.2" font-family="Times,serif" font-size="14.00" fill="#000000">start</text>
</g>
<!-- 10 -->
<g id="node2" class="node">
<title>10</title>
<ellipse fill="none" stroke="#000000" cx="654.2055" cy="-63" rx="20.8568" ry="20.8568"/>
<ellipse fill="none" stroke="#000000" cx="654.2055" cy="-63" rx="24.8884" ry="24.8884"/>
<text text-anchor="middle" x="654.2055" y="-58.8" font-family="Times,serif" font-size="14.00" fill="#000000">10</text>
</g>
<!-- 2 -->
<g id="node4" class="node">
<title>2</title>
<ellipse fill="none" stroke="#000000" cx="215.7616" cy="-140" rx="18" ry="18"/>
<text text-anchor="middle" x="215.7616" y="-135.8" font-family="Times,serif" font-size="14.00" fill="#000000">2</text>
</g>
<!-- 1&#45;&gt;2 -->
<g id="edge2" class="edge">
<title>1&#45;&gt;2</title>
<path fill="none" stroke="#000000" d="M144.6977,-69.078C151.578,-76.188 160.2691,-85.1153 168.101,-93 177.0046,-101.9637 186.9417,-111.7906 195.4286,-120.1309"/>
<polygon fill="#000000" stroke="#000000" points="193.1535,-122.802 202.7437,-127.3051 198.0548,-117.8043 193.1535,-122.802"/>
<text text-anchor="middle" x="173.9313" y="-107.2" font-family="Times,serif" font-size="14.00" fill="#000000">λ</text>
</g>
<!-- 5 -->
<g id="node7" class="node">
<title>5</title>
<ellipse fill="none" stroke="#000000" cx="215.7616" cy="-86" rx="18" ry="18"/>
<text text-anchor="middle" x="215.7616" y="-81.8" font-family="Times,serif" font-size="14.00" fill="#000000">5</text>
</g>
<!-- 1&#45;&gt;5 -->
<g id="edge5" class="edge">
<title>1&#45;&gt;5</title>
<path fill="none" stroke="#000000" d="M149.4355,-62.216C160.8406,-66.3058 175.9968,-71.7407 188.9418,-76.3826"/>
<polygon fill="#000000" stroke="#000000" points="188.141,-79.8137 198.7355,-79.8946 190.5039,-73.2245 188.141,-79.8137"/>
<text text-anchor="middle" x="173.9313" y="-76.2" font-family="Times,serif" font-size="14.00" fill="#000000">λ</text>
</g>
<!-- 9 -->
<g id="node11" class="node">
<title>9</title>
<ellipse fill="none" stroke="#000000" cx="569.2974" cy="-63" rx="18" ry="18"/>
<text text-anchor="middle" x="569.2974" y="-58.8" font-family="Times,serif" font-size="14.00" fill="#000000">9</text>
</g>
<!-- 1&#45;&gt;9 -->
<g id="edge11" class="edge">
<title>1&#45;&gt;9</title>
<path fill="none" stroke="#000000" d="M149.5425,-50.6722C166.3391,-46.0178 192.545,-40 215.7616,-40 215.7616,-40 215.7616,-40 485.6368,-40 505.4709,-40 527.0343,-46.0846 543.3009,-51.9947"/>
<polygon fill="#000000" stroke="#000000" points="542.0918,-55.2795 552.6819,-55.5961 544.6006,-48.7445 542.0918,-55.2795"/>
<text text-anchor="middle" x="335.8065" y="-44.2" font-family="Times,serif" font-size="14.00" fill="#000000">λ</text>
</g>
<!-- 3 -->
<g id="node5" class="node">
<title>3</title>
<ellipse fill="none" stroke="#000000" cx="293.9762" cy="-140" rx="18" ry="18"/>
<text text-anchor="middle" x="293.9762" y="-135.8" font-family="Times,serif" font-size="14.00" fill="#000000">3</text>
</g>
<!-- 2&#45;&gt;3 -->
<g id="edge3" class="edge">
<title>2&#45;&gt;3</title>
<path fill="none" stroke="#000000" d="M233.9022,-140C243.379,-140 255.188,-140 265.8218,-140"/>
<polygon fill="#000000" stroke="#000000" points="265.934,-143.5001 275.934,-140 265.9339,-136.5001 265.934,-143.5001"/>
<text text-anchor="middle" x="254.8689" y="-144.2" font-family="Times,serif" font-size="14.00" fill="#000000">a</text>
</g>
<!-- 4 -->
<g id="node6" class="node">
<title>4</title>
<ellipse fill="none" stroke="#000000" cx="431.6368" cy="-140" rx="18" ry="18"/>
<text text-anchor="middle" x="431.6368" y="-135.8" font-family="Times,serif" font-size="14.00" fill="#000000">4</text>
</g>
<!-- 3&#45;&gt;4 -->
<g id="edge4" class="edge">
<title>3&#45;&gt;4</title>
<path fill="none" stroke="#000000" d="M312.2565,-140C335.5005,-140 375.8856,-140 403.176,-140"/>
<polygon fill="#000000" stroke="#000000" points="403.281,-143.5001 413.2809,-140 403.2809,-136.5001 403.281,-143.5001"/>
<text text-anchor="middle" x="335.8065" y="-144.2" font-family="Times,serif" font-size="14.00" fill="#000000">b</text>
</g>
<!-- 4&#45;&gt;9 -->
<g id="edge9" class="edge">
<title>4&#45;&gt;9</title>
<path fill="none" stroke="#000000" d="M449.0361,-135.0873C470.3076,-128.5191 506.7478,-115.4064 533.2974,-96 538.6878,-92.0599 544.1684,-87.4212 549.1737,-82.8865"/>
<polygon fill="#000000" stroke="#000000" points="551.6611,-85.3522 556.5667,-75.9614 546.8756,-80.2434 551.6611,-85.3522"/>
<text text-anchor="middle" x="485.6368" y="-132.2" font-family="Times,serif" font-size="14.00" fill="#000000">λ</text>
</g>
<!-- 6 -->
<g id="node8" class="node">
<title>6</title>
<ellipse fill="none" stroke="#000000" cx="293.9762" cy="-86" rx="18" ry="18"/>
<text text-anchor="middle" x="293.9762" y="-81.8" font-family="Times,serif" font-size="14.00" fill="#000000">6</text>
</g>
<!-- 5&#45;&gt;6 -->
<g id="edge6" class="edge">
<title>5&#45;&gt;6</title>
<path fill="none" stroke="#000000" d="M233.9022,-86C243.379,-86 255.188,-86 265.8218,-86"/>
<polygon fill="#000000" stroke="#000000" points="265.934,-89.5001 275.934,-86 265.9339,-82.5001 265.934,-89.5001"/>
<text text-anchor="middle" x="254.8689" y="-90.2" font-family="Times,serif" font-size="14.00" fill="#000000">a</text>
</g>
<!-- 7 -->
<g id="node9" class="node">
<title>7</title>
<ellipse fill="none" stroke="#000000" cx="377.6368" cy="-86" rx="18" ry="18"/>
<text text-anchor="middle" x="377.6368" y="-81.8" font-family="Times,serif" font-size="14.00" fill="#000000">7</text>
</g>
<!-- 6&#45;&gt;7 -->
<g id="edge7" class="edge">
<title>6&#45;&gt;7</title>
<path fill="none" stroke="#000000" d="M312.1293,-86C322.9827,-86 337.007,-86 349.2931,-86"/>
<polygon fill="#000000" stroke="#000000" points="349.5192,-89.5001 359.5191,-86 349.5191,-82.5001 349.5192,-89.5001"/>
<text text-anchor="middle" x="335.8065" y="-90.2" font-family="Times,serif" font-size="14.00" fill="#000000">b</text>
</g>
<!-- 8 -->
<g id="node10" class="node">
<title>8</title>
<ellipse fill="none" stroke="#000000" cx="485.6368" cy="-86" rx="18" ry="18"/>
<text text-anchor="middle" x="485.6368" y="-81.8" font-family="Times,serif" font-size="14.00" fill="#000000">8</text>
</g>
<!-- 7&#45;&gt;8 -->
<g id="edge8" class="edge">
<title>7&#45;&gt;8</title>
<path fill="none" stroke="#000000" d="M395.9575,-86C412.8158,-86 438.0717,-86 457.4898,-86"/>
<polygon fill="#000000" stroke="#000000" points="457.5867,-89.5001 467.5866,-86 457.5866,-82.5001 457.5867,-89.5001"/>
<text text-anchor="middle" x="431.6368" y="-90.2" font-family="Times,serif" font-size="14.00" fill="#000000">a</text>
</g>
<!-- 8&#45;&gt;9 -->
<g id="edge10" class="edge">
<title>8&#45;&gt;9</title>
<path fill="none" stroke="#000000" d="M503.3791,-81.1223C514.6575,-78.0216 529.4799,-73.9466 542.2122,-70.4463"/>
<polygon fill="#000000" stroke="#000000" points="543.1532,-73.8175 551.8676,-67.7918 541.2975,-67.0679 543.1532,-73.8175"/>
<text text-anchor="middle" x="527.4671" y="-79.2" font-family="Times,serif" font-size="14.00" fill="#000000">λ</text>
</g>
<!-- 9&#45;&gt;10 -->
<g id="edge13" class="edge">
<title>9&#45;&gt;10</title>
<path fill="none" stroke="#000000" d="M587.3042,-63C596.6005,-63 608.2692,-63 619.2473,-63"/>
<polygon fill="#000000" stroke="#000000" points="619.4612,-66.5001 629.4611,-63 619.4611,-59.5001 619.4612,-66.5001"/>
<text text-anchor="middle" x="608.4047" y="-67.2" font-family="Times,serif" font-size="14.00" fill="#000000">a</text>
</g>
<!-- 9&#45;&gt;1 -->
<g id="edge12" class="edge">
<title>9&#45;&gt;1</title>
<path fill="none" stroke="#000000" d="M559.0274,-48.0699C544.8666,-29.4399 517.4554,0 485.6368,0 215.7616,0 215.7616,0 215.7616,0 189.9269,0 166.0348,-18.6694 150.4548,-34.4491"/>
<polygon fill="#000000" stroke="#000000" points="147.7858,-32.1786 143.5021,-41.8688 152.8938,-36.965 147.7858,-32.1786"/>
<text text-anchor="middle" x="335.8065" y="-4.2" font-family="Times,serif" font-size="14.00" fill="#000000">λ</text>
</g>
</g>
</svg>
