<?xml version="1.0" encoding="UTF-8" standalone="no"?>
<!DOCTYPE svg PUBLIC "-//W3C//DTD SVG 1.1//EN"
 "http://www.w3.org/Graphics/SVG/1.1/DTD/svg11.dtd">
<!-- Generated by graphviz version 2.40.1 (20161225.0304)
 -->
<!-- Title: graph_3_3 Pages: 1 -->
<svg width="813pt" height="367pt"
 viewBox="0.00 0.00 812.65 366.63" xmlns="http://www.w3.org/2000/svg" xmlns:xlink="http://www.w3.org/1999/xlink">
<g id="graph0" class="graph" transform="scale(1 1) rotate(0) translate(4 362.6334)">
<title>graph_3_3</title>
<polygon fill="#ffffff" stroke="transparent" points="-4,4 -4,-362.6334 808.6492,-362.6334 808.6492,4 -4,4"/>
<g id="node1" class="node">
<title></title>
</g>
<!-- {1,2,4} -->
<g id="node3" class="node">
<title>{1,2,4}</title>
<ellipse fill="none" stroke="#000000" cx="153.7201" cy="-161.9167" rx="39.7386" ry="39.7386"/>
<text text-anchor="middle" x="153.7201" y="-157.7167" font-family="Times,serif" font-size="14.00" fill="#000000">{1,2,4}</text>
</g>
<!-- &#45;&gt;{1,2,4} -->
<g id="edge1" class="edge">
<title>&#45;&gt;{1,2,4}</title>
<path fill="none" stroke="#000000" d="M54.1846,-161.9167C68.6385,-161.9167 86.8695,-161.9167 103.7672,-161.9167"/>
<polygon fill="#000000" stroke="#000000" points="104.0705,-165.4168 114.0704,-161.9167 104.0704,-158.4168 104.0705,-165.4168"/>
<text text-anchor="middle" x="84.0505" y="-166.1167" font-family="Times,serif" font-size="14.00" fill="#000000">start</text>
</g>
<!-- {3,5,6,7,8,9,12,13,14,15,17,18,19,20} -->
<g id="node2" class="node">
<title>{3,5,6,7,8,9,12,13,14,15,17,18,19,20}</title>
<ellipse fill="none" stroke="#000000" cx="398.256" cy="-161.9167" rx="157.8355" ry="157.8355"/>
<ellipse fill="none" stroke="#000000" cx="398.256" cy="-161.9167" rx="161.8335" ry="161.8335"/>
<text text-anchor="middle" x="398.256" y="-157.7167" font-family="Times,serif" font-size="14.00" fill="#000000">{3,5,6,7,8,9,12,13,14,15,17,18,19,20}</text>
</g>
<!-- {3,5,6,7,8,9,12,13,14,15,17,18,19,20}&#45;&gt;{3,5,6,7,8,9,12,13,14,15,17,18,19,20} -->
<g id="edge6" class="edge">
<title>{3,5,6,7,8,9,12,13,14,15,17,18,19,20}&#45;&gt;{3,5,6,7,8,9,12,13,14,15,17,18,19,20}</title>
<path fill="none" stroke="#000000" d="M372.5294,-321.8686C378.2166,-334.2193 386.7921,-341.8334 398.256,-341.8334 406.6747,-341.8334 413.5358,-337.7271 418.8392,-330.6541"/>
<polygon fill="#000000" stroke="#000000" points="421.9506,-332.2668 423.9825,-321.8686 415.9097,-328.7302 421.9506,-332.2668"/>
<text text-anchor="middle" x="398.256" y="-346.0334" font-family="Times,serif" font-size="14.00" fill="#000000">c</text>
</g>
<!-- {10} -->
<g id="node4" class="node">
<title>{10}</title>
<ellipse fill="none" stroke="#000000" cx="633.1349" cy="-236.9167" rx="29.9244" ry="29.9244"/>
<text text-anchor="middle" x="633.1349" y="-232.7167" font-family="Times,serif" font-size="14.00" fill="#000000">{10}</text>
</g>
<!-- {3,5,6,7,8,9,12,13,14,15,17,18,19,20}&#45;&gt;{10} -->
<g id="edge4" class="edge">
<title>{3,5,6,7,8,9,12,13,14,15,17,18,19,20}&#45;&gt;{10}</title>
<path fill="none" stroke="#000000" d="M552.6315,-211.2109C567.9823,-216.1126 582.3957,-220.715 594.6659,-224.6331"/>
<polygon fill="#000000" stroke="#000000" points="593.8516,-228.0471 604.4424,-227.7548 595.9809,-221.3788 593.8516,-228.0471"/>
<text text-anchor="middle" x="581.6727" y="-224.1167" font-family="Times,serif" font-size="14.00" fill="#000000">a</text>
</g>
<!-- {16} -->
<g id="node5" class="node">
<title>{16}</title>
<ellipse fill="none" stroke="#000000" cx="633.1349" cy="-158.9167" rx="29.9244" ry="29.9244"/>
<text text-anchor="middle" x="633.1349" y="-154.7167" font-family="Times,serif" font-size="14.00" fill="#000000">{16}</text>
</g>
<!-- {3,5,6,7,8,9,12,13,14,15,17,18,19,20}&#45;&gt;{16} -->
<g id="edge5" class="edge">
<title>{3,5,6,7,8,9,12,13,14,15,17,18,19,20}&#45;&gt;{16}</title>
<path fill="none" stroke="#000000" d="M560.3578,-160.2828C568.7502,-160.1667 577.0605,-160.0447 585.1727,-159.9167 587.6866,-159.877 590.2745,-159.8328 592.884,-159.7857"/>
<polygon fill="#000000" stroke="#000000" points="593.0142,-163.284 602.9453,-159.5928 592.88,-156.2852 593.0142,-163.284"/>
<text text-anchor="middle" x="581.6727" y="-165.1167" font-family="Times,serif" font-size="14.00" fill="#000000">b</text>
</g>
<!-- {1,2,4}&#45;&gt;{3,5,6,7,8,9,12,13,14,15,17,18,19,20} -->
<g id="edge2" class="edge">
<title>{1,2,4}&#45;&gt;{3,5,6,7,8,9,12,13,14,15,17,18,19,20}</title>
<path fill="none" stroke="#000000" d="M193.5533,-161.9167C203.2806,-161.9167 214.3108,-161.9167 226.0866,-161.9167"/>
<polygon fill="#000000" stroke="#000000" points="226.1413,-165.4168 236.1413,-161.9167 226.1412,-158.4168 226.1413,-165.4168"/>
<text text-anchor="middle" x="214.8393" y="-166.1167" font-family="Times,serif" font-size="14.00" fill="#000000">b</text>
</g>
<!-- {1,2,4}&#45;&gt;{3,5,6,7,8,9,12,13,14,15,17,18,19,20} -->
<g id="edge3" class="edge">
<title>{1,2,4}&#45;&gt;{3,5,6,7,8,9,12,13,14,15,17,18,19,20}</title>
<path fill="none" stroke="#000000" d="M190.3988,-146.5506C197.2463,-144.295 204.4251,-142.3265 211.3393,-141.1167 216.7667,-140.1671 222.2908,-139.433 227.8752,-138.8902"/>
<polygon fill="#000000" stroke="#000000" points="228.2815,-142.3694 237.9844,-138.1146 227.7459,-135.3899 228.2815,-142.3694"/>
<text text-anchor="middle" x="214.8393" y="-146.1167" font-family="Times,serif" font-size="14.00" fill="#000000">c</text>
</g>
<!-- {9,11,12} -->
<g id="node6" class="node">
<title>{9,11,12}</title>
<ellipse fill="none" stroke="#000000" cx="755.3731" cy="-196.9167" rx="49.0532" ry="49.0532"/>
<text text-anchor="middle" x="755.3731" y="-192.7167" font-family="Times,serif" font-size="14.00" fill="#000000">{9,11,12}</text>
</g>
<!-- {10}&#45;&gt;{9,11,12} -->
<g id="edge7" class="edge">
<title>{10}&#45;&gt;{9,11,12}</title>
<path fill="none" stroke="#000000" d="M661.7943,-227.5385C672.8159,-223.9319 685.8213,-219.6761 698.5747,-215.5028"/>
<polygon fill="#000000" stroke="#000000" points="699.8255,-218.7763 708.241,-212.3397 697.6484,-212.1234 699.8255,-218.7763"/>
<text text-anchor="middle" x="684.597" y="-224.1167" font-family="Times,serif" font-size="14.00" fill="#000000">b</text>
</g>
<!-- {16}&#45;&gt;{3,5,6,7,8,9,12,13,14,15,17,18,19,20} -->
<g id="edge8" class="edge">
<title>{16}&#45;&gt;{3,5,6,7,8,9,12,13,14,15,17,18,19,20}</title>
<path fill="none" stroke="#000000" d="M606.0673,-145.5948C599.3931,-142.9164 592.1534,-140.501 585.1727,-139.1167 579.6612,-138.0238 574.0472,-137.1804 568.3693,-136.558"/>
<polygon fill="#000000" stroke="#000000" points="568.3527,-133.0436 558.0885,-135.67 567.7503,-140.0176 568.3527,-133.0436"/>
<text text-anchor="middle" x="581.6727" y="-144.1167" font-family="Times,serif" font-size="14.00" fill="#000000">a</text>
</g>
<!-- {9,11,12}&#45;&gt;{3,5,6,7,8,9,12,13,14,15,17,18,19,20} -->
<g id="edge10" class="edge">
<title>{9,11,12}&#45;&gt;{3,5,6,7,8,9,12,13,14,15,17,18,19,20}</title>
<path fill="none" stroke="#000000" d="M727.5172,-156.0628C711.3261,-136.0534 689.0118,-113.9755 663.097,-103.1167 629.7436,-89.141 592.5733,-88.838 556.876,-95.2634"/>
<polygon fill="#000000" stroke="#000000" points="555.9807,-91.8727 546.851,-97.2484 557.3404,-98.7394 555.9807,-91.8727"/>
<text text-anchor="middle" x="633.1349" y="-108.1167" font-family="Times,serif" font-size="14.00" fill="#000000">c</text>
</g>
<!-- {9,11,12}&#45;&gt;{10} -->
<g id="edge9" class="edge">
<title>{9,11,12}&#45;&gt;{10}</title>
<path fill="none" stroke="#000000" d="M706.1901,-193.1477C697.6439,-193.7716 688.977,-195.2566 681.097,-198.1167 674.4681,-200.5227 668.0763,-204.2578 662.2382,-208.4791"/>
<polygon fill="#000000" stroke="#000000" points="659.7818,-205.9599 654.1176,-214.9136 664.1291,-211.4464 659.7818,-205.9599"/>
<text text-anchor="middle" x="684.597" y="-202.1167" font-family="Times,serif" font-size="14.00" fill="#000000">a</text>
</g>
</g>
</svg>
