<?xml version="1.0" encoding="UTF-8" standalone="no"?>
<!DOCTYPE svg PUBLIC "-//W3C//DTD SVG 1.1//EN"
 "http://www.w3.org/Graphics/SVG/1.1/DTD/svg11.dtd">
<!-- Generated by graphviz version 2.40.1 (20161225.0304)
 -->
<!-- Title: graph_3_3 Pages: 1 -->
<svg width="482pt" height="279pt"
 viewBox="0.00 0.00 481.92 278.55" xmlns="http://www.w3.org/2000/svg" xmlns:xlink="http://www.w3.org/1999/xlink">
<g id="graph0" class="graph" transform="scale(1 1) rotate(0) translate(4 274.5498)">
<title>graph_3_3</title>
<polygon fill="#ffffff" stroke="transparent" points="-4,4 -4,-274.5498 477.9187,-274.5498 477.9187,4 -4,4"/>
<g id="node1" class="node">
<title></title>
</g>
<!-- 1 -->
<g id="node2" class="node">
<title>1</title>
<ellipse fill="none" stroke="#000000" cx="136.101" cy="-45.8563" rx="18" ry="18"/>
<ellipse fill="none" stroke="#000000" cx="136.101" cy="-45.8563" rx="22" ry="22"/>
<text text-anchor="middle" x="136.101" y="-41.6563" font-family="Times,serif" font-size="14.00" fill="#000000">1</text>
</g>
<!-- &#45;&gt;1 -->
<g id="edge1" class="edge">
<title>&#45;&gt;1</title>
<path fill="none" stroke="#000000" d="M54.2494,-45.8563C69.2234,-45.8563 87.8953,-45.8563 103.6229,-45.8563"/>
<polygon fill="#000000" stroke="#000000" points="103.9592,-49.3564 113.9591,-45.8563 103.9591,-42.3564 103.9592,-49.3564"/>
<text text-anchor="middle" x="84.0505" y="-50.0563" font-family="Times,serif" font-size="14.00" fill="#000000">start</text>
</g>
<!-- 12 -->
<g id="node3" class="node">
<title>12</title>
<ellipse fill="none" stroke="#000000" cx="225.7945" cy="-173.8563" rx="20.8568" ry="20.8568"/>
<ellipse fill="none" stroke="#000000" cx="225.7945" cy="-173.8563" rx="24.8884" ry="24.8884"/>
<text text-anchor="middle" x="225.7945" y="-169.6563" font-family="Times,serif" font-size="14.00" fill="#000000">12</text>
</g>
<!-- 1&#45;&gt;12 -->
<g id="edge2" class="edge">
<title>1&#45;&gt;12</title>
<path fill="none" stroke="#000000" d="M148.7616,-63.9241C163.5347,-85.0066 188.1564,-120.1437 205.5827,-145.0125"/>
<polygon fill="#000000" stroke="#000000" points="202.8136,-147.1599 211.4186,-153.3408 208.5463,-143.1428 202.8136,-147.1599"/>
<text text-anchor="middle" x="179.601" y="-114.0563" font-family="Times,serif" font-size="14.00" fill="#000000">a</text>
</g>
<!-- 2 -->
<g id="node6" class="node">
<title>2</title>
<ellipse fill="none" stroke="#000000" cx="286.4879" cy="-45.8563" rx="18" ry="18"/>
<text text-anchor="middle" x="286.4879" y="-41.6563" font-family="Times,serif" font-size="14.00" fill="#000000">2</text>
</g>
<!-- 1&#45;&gt;2 -->
<g id="edge3" class="edge">
<title>1&#45;&gt;2</title>
<path fill="none" stroke="#000000" d="M158.2911,-45.8563C184.8074,-45.8563 229.2157,-45.8563 258.18,-45.8563"/>
<polygon fill="#000000" stroke="#000000" points="258.4552,-49.3564 268.4551,-45.8563 258.4551,-42.3564 258.4552,-49.3564"/>
<text text-anchor="middle" x="179.601" y="-50.0563" font-family="Times,serif" font-size="14.00" fill="#000000">b</text>
</g>
<!-- 123 -->
<g id="node5" class="node">
<title>123</title>
<ellipse fill="none" stroke="#000000" cx="352.0098" cy="-109.8563" rx="25.5409" ry="25.5409"/>
<ellipse fill="none" stroke="#000000" cx="352.0098" cy="-109.8563" rx="29.5439" ry="29.5439"/>
<text text-anchor="middle" x="352.0098" y="-105.6563" font-family="Times,serif" font-size="14.00" fill="#000000">123</text>
</g>
<!-- 12&#45;&gt;123 -->
<g id="edge4" class="edge">
<title>12&#45;&gt;123</title>
<path fill="none" stroke="#000000" d="M248.0687,-162.5617C267.0172,-152.9535 294.5729,-138.9809 316.5516,-127.8361"/>
<polygon fill="#000000" stroke="#000000" points="318.2522,-130.8981 325.5882,-123.2539 315.0864,-124.6549 318.2522,-130.8981"/>
<text text-anchor="middle" x="286.4879" y="-155.0563" font-family="Times,serif" font-size="14.00" fill="#000000">a</text>
</g>
<!-- 23 -->
<g id="node7" class="node">
<title>23</title>
<ellipse fill="none" stroke="#000000" cx="352.0098" cy="-211.8563" rx="20.8887" ry="20.8887"/>
<text text-anchor="middle" x="352.0098" y="-207.6563" font-family="Times,serif" font-size="14.00" fill="#000000">23</text>
</g>
<!-- 12&#45;&gt;23 -->
<g id="edge5" class="edge">
<title>12&#45;&gt;23</title>
<path fill="none" stroke="#000000" d="M249.5346,-181.0038C270.2176,-187.2309 300.2939,-196.2861 322.5169,-202.9768"/>
<polygon fill="#000000" stroke="#000000" points="321.5284,-206.3343 332.1129,-205.8659 323.5465,-199.6315 321.5284,-206.3343"/>
<text text-anchor="middle" x="286.4879" y="-201.0563" font-family="Times,serif" font-size="14.00" fill="#000000">b</text>
</g>
<!-- 13 -->
<g id="node4" class="node">
<title>13</title>
<ellipse fill="none" stroke="#000000" cx="449.2252" cy="-245.8563" rx="20.8568" ry="20.8568"/>
<ellipse fill="none" stroke="#000000" cx="449.2252" cy="-245.8563" rx="24.8884" ry="24.8884"/>
<text text-anchor="middle" x="449.2252" y="-241.6563" font-family="Times,serif" font-size="14.00" fill="#000000">13</text>
</g>
<!-- 13&#45;&gt;12 -->
<g id="edge11" class="edge">
<title>13&#45;&gt;12</title>
<path fill="none" stroke="#000000" d="M424.4538,-249.9341C418.5942,-250.733 412.3558,-251.4491 406.5318,-251.8563 369.0071,-254.4802 358.7045,-252.022 322.4879,-241.8563 297.2015,-234.7587 290.0247,-232.8878 268.4879,-217.8563 261.4917,-212.9734 254.6911,-206.8345 248.6495,-200.705"/>
<polygon fill="#000000" stroke="#000000" points="250.8446,-197.93 241.4451,-193.0412 245.7443,-202.7245 250.8446,-197.93"/>
<text text-anchor="middle" x="352.0098" y="-256.0563" font-family="Times,serif" font-size="14.00" fill="#000000">a, b</text>
</g>
<!-- 123&#45;&gt;123 -->
<g id="edge7" class="edge">
<title>123&#45;&gt;123</title>
<path fill="none" stroke="#000000" d="M342.6554,-138.1528C342.3487,-148.698 345.4669,-157.3783 352.0098,-157.3783 356.2014,-157.3783 358.9875,-153.8159 360.3679,-148.483"/>
<polygon fill="#000000" stroke="#000000" points="363.888,-148.4427 361.3642,-138.1528 356.9203,-147.7706 363.888,-148.4427"/>
<text text-anchor="middle" x="352.0098" y="-161.5783" font-family="Times,serif" font-size="14.00" fill="#000000">a, b</text>
</g>
<!-- 3 -->
<g id="node8" class="node">
<title>3</title>
<ellipse fill="none" stroke="#000000" cx="449.2252" cy="-45.8563" rx="18" ry="18"/>
<text text-anchor="middle" x="449.2252" y="-41.6563" font-family="Times,serif" font-size="14.00" fill="#000000">3</text>
</g>
<!-- 2&#45;&gt;3 -->
<g id="edge6" class="edge">
<title>2&#45;&gt;3</title>
<path fill="none" stroke="#000000" d="M304.5254,-45.8563C332.7521,-45.8563 387.5883,-45.8563 421.0534,-45.8563"/>
<polygon fill="#000000" stroke="#000000" points="421.1069,-49.3564 431.1069,-45.8563 421.1069,-42.3564 421.1069,-49.3564"/>
<text text-anchor="middle" x="352.0098" y="-50.0563" font-family="Times,serif" font-size="14.00" fill="#000000">a, b</text>
</g>
<!-- 23&#45;&gt;13 -->
<g id="edge9" class="edge">
<title>23&#45;&gt;13</title>
<path fill="none" stroke="#000000" d="M371.6828,-218.7367C384.3951,-223.1827 401.2586,-229.0805 416.0122,-234.2404"/>
<polygon fill="#000000" stroke="#000000" points="415.2173,-237.6703 425.8121,-237.6679 417.5282,-231.0627 415.2173,-237.6703"/>
<text text-anchor="middle" x="403.0318" y="-235.0563" font-family="Times,serif" font-size="14.00" fill="#000000">b</text>
</g>
<!-- 23&#45;&gt;3 -->
<g id="edge8" class="edge">
<title>23&#45;&gt;3</title>
<path fill="none" stroke="#000000" d="M367.7561,-198.2867C372.5392,-193.6898 377.5714,-188.3267 381.5318,-182.8563 407.1382,-147.486 427.8006,-100.9652 439.2913,-72.2536"/>
<polygon fill="#000000" stroke="#000000" points="442.5715,-73.4756 442.9662,-62.8881 436.0552,-70.9186 442.5715,-73.4756"/>
<text text-anchor="middle" x="403.0318" y="-158.0563" font-family="Times,serif" font-size="14.00" fill="#000000">a</text>
</g>
<!-- 3&#45;&gt;1 -->
<g id="edge10" class="edge">
<title>3&#45;&gt;1</title>
<path fill="none" stroke="#000000" d="M432.9523,-37.4031C401.4933,-22.0723 330.0069,7.8562 268.4879,-2.0563 232.0354,-7.9299 192.0284,-22.3511 165.6404,-33.0504"/>
<polygon fill="#000000" stroke="#000000" points="164.1323,-29.8866 156.2295,-36.9433 166.808,-36.355 164.1323,-29.8866"/>
<text text-anchor="middle" x="286.4879" y="-7.0563" font-family="Times,serif" font-size="14.00" fill="#000000">b</text>
</g>
</g>
</svg>
