<?xml version="1.0" encoding="UTF-8" standalone="no"?>
<!DOCTYPE svg PUBLIC "-//W3C//DTD SVG 1.1//EN"
 "http://www.w3.org/Graphics/SVG/1.1/DTD/svg11.dtd">
<!-- Generated by graphviz version 2.40.1 (20161225.0304)
 -->
<!-- Title: graph_2_2 Pages: 1 -->
<svg width="324pt" height="120pt"
 viewBox="0.00 0.00 324.10 119.80" xmlns="http://www.w3.org/2000/svg" xmlns:xlink="http://www.w3.org/1999/xlink">
<g id="graph0" class="graph" transform="scale(1 1) rotate(0) translate(4 115.8)">
<title>graph_2_2</title>
<polygon fill="#ffffff" stroke="transparent" points="-4,4 -4,-115.8 320.101,-115.8 320.101,4 -4,4"/>
<g id="node1" class="node">
<title></title>
</g>
<!-- 1 -->
<g id="node2" class="node">
<title>1</title>
<ellipse fill="none" stroke="#000000" cx="136.101" cy="-22" rx="18" ry="18"/>
<ellipse fill="none" stroke="#000000" cx="136.101" cy="-22" rx="22" ry="22"/>
<text text-anchor="middle" x="136.101" y="-17.8" font-family="Times,serif" font-size="14.00" fill="#000000">1</text>
</g>
<!-- &#45;&gt;1 -->
<g id="edge1" class="edge">
<title>&#45;&gt;1</title>
<path fill="none" stroke="#000000" d="M54.2494,-22C69.2234,-22 87.8953,-22 103.6229,-22"/>
<polygon fill="#000000" stroke="#000000" points="103.9592,-25.5001 113.9591,-22 103.9591,-18.5001 103.9592,-25.5001"/>
<text text-anchor="middle" x="84.0505" y="-26.2" font-family="Times,serif" font-size="14.00" fill="#000000">start</text>
</g>
<!-- 1&#45;&gt;1 -->
<g id="edge2" class="edge">
<title>1&#45;&gt;1</title>
<path fill="none" stroke="#000000" d="M128.4183,-42.9908C127.4698,-53.0872 130.0307,-62 136.101,-62 139.9898,-62 142.4383,-58.3422 143.4466,-53.0587"/>
<polygon fill="#000000" stroke="#000000" points="146.947,-53.1023 143.7837,-42.9908 139.9509,-52.868 146.947,-53.1023"/>
<text text-anchor="middle" x="136.101" y="-66.2" font-family="Times,serif" font-size="14.00" fill="#000000">a</text>
</g>
<!-- 2 -->
<g id="node3" class="node">
<title>2</title>
<ellipse fill="none" stroke="#000000" cx="219.101" cy="-59" rx="18" ry="18"/>
<text text-anchor="middle" x="219.101" y="-54.8" font-family="Times,serif" font-size="14.00" fill="#000000">2</text>
</g>
<!-- 1&#45;&gt;2 -->
<g id="edge3" class="edge">
<title>1&#45;&gt;2</title>
<path fill="none" stroke="#000000" d="M156.6179,-31.1461C167.6441,-36.0614 181.3521,-42.1722 193.1167,-47.4166"/>
<polygon fill="#000000" stroke="#000000" points="191.8817,-50.6981 202.4404,-51.573 194.7319,-44.3046 191.8817,-50.6981"/>
<text text-anchor="middle" x="179.601" y="-46.2" font-family="Times,serif" font-size="14.00" fill="#000000">b</text>
</g>
<!-- 2&#45;&gt;2 -->
<g id="edge4" class="edge">
<title>2&#45;&gt;2</title>
<path fill="none" stroke="#000000" d="M212.3674,-76.0373C210.9932,-85.8579 213.2377,-95 219.101,-95 222.7656,-95 225.0165,-91.4289 225.8539,-86.3529"/>
<polygon fill="#000000" stroke="#000000" points="229.3534,-86.0307 225.8346,-76.0373 222.3534,-86.0439 229.3534,-86.0307"/>
<text text-anchor="middle" x="219.101" y="-99.2" font-family="Times,serif" font-size="14.00" fill="#000000">a</text>
</g>
<!-- 3 -->
<g id="node4" class="node">
<title>3</title>
<ellipse fill="none" stroke="#000000" cx="298.101" cy="-22" rx="18" ry="18"/>
<text text-anchor="middle" x="298.101" y="-17.8" font-family="Times,serif" font-size="14.00" fill="#000000">3</text>
</g>
<!-- 2&#45;&gt;3 -->
<g id="edge5" class="edge">
<title>2&#45;&gt;3</title>
<path fill="none" stroke="#000000" d="M235.4699,-51.3336C246.1682,-46.3229 260.362,-39.6752 272.5322,-33.9753"/>
<polygon fill="#000000" stroke="#000000" points="274.1817,-37.0677 281.7531,-29.6566 271.2126,-30.7285 274.1817,-37.0677"/>
<text text-anchor="middle" x="258.601" y="-45.2" font-family="Times,serif" font-size="14.00" fill="#000000">b</text>
</g>
<!-- 3&#45;&gt;1 -->
<g id="edge7" class="edge">
<title>3&#45;&gt;1</title>
<path fill="none" stroke="#000000" d="M280.2613,-19.483C268.1221,-17.9004 251.6771,-16.0099 237.101,-15.2 221.1256,-14.3123 217.0793,-14.3665 201.101,-15.2 190.3083,-15.763 178.5485,-16.8484 168.0354,-17.9896"/>
<polygon fill="#000000" stroke="#000000" points="167.5588,-14.5211 158.0199,-19.132 168.3521,-21.476 167.5588,-14.5211"/>
<text text-anchor="middle" x="219.101" y="-20.2" font-family="Times,serif" font-size="14.00" fill="#000000">b</text>
</g>
<!-- 3&#45;&gt;3 -->
<g id="edge6" class="edge">
<title>3&#45;&gt;3</title>
<path fill="none" stroke="#000000" d="M291.3674,-39.0373C289.9932,-48.8579 292.2377,-58 298.101,-58 301.7656,-58 304.0165,-54.4289 304.8539,-49.3529"/>
<polygon fill="#000000" stroke="#000000" points="308.3534,-49.0307 304.8346,-39.0373 301.3534,-49.0439 308.3534,-49.0307"/>
<text text-anchor="middle" x="298.101" y="-62.2" font-family="Times,serif" font-size="14.00" fill="#000000">a</text>
</g>
</g>
</svg>
