<?xml version="1.0" encoding="UTF-8" standalone="no"?>
<!DOCTYPE svg PUBLIC "-//W3C//DTD SVG 1.1//EN"
 "http://www.w3.org/Graphics/SVG/1.1/DTD/svg11.dtd">
<!-- Generated by graphviz version 2.40.1 (20161225.0304)
 -->
<!-- Title: graph_2_2 Pages: 1 -->
<svg width="591pt" height="221pt"
 viewBox="0.00 0.00 591.07 220.80" xmlns="http://www.w3.org/2000/svg" xmlns:xlink="http://www.w3.org/1999/xlink">
<g id="graph0" class="graph" transform="scale(1 1) rotate(0) translate(4 216.8)">
<title>graph_2_2</title>
<polygon fill="#ffffff" stroke="transparent" points="-4,4 -4,-216.8 587.0662,-216.8 587.0662,4 -4,4"/>
<g id="node1" class="node">
<title></title>
</g>
<!-- 11 -->
<g id="node2" class="node">
<title>11</title>
<ellipse fill="none" stroke="#000000" cx="138.7945" cy="-134" rx="20.8568" ry="20.8568"/>
<ellipse fill="none" stroke="#000000" cx="138.7945" cy="-134" rx="24.8884" ry="24.8884"/>
<text text-anchor="middle" x="138.7945" y="-129.8" font-family="Times,serif" font-size="14.00" fill="#000000">11</text>
</g>
<!-- &#45;&gt;11 -->
<g id="edge1" class="edge">
<title>&#45;&gt;11</title>
<path fill="none" stroke="#000000" d="M54.0623,-134C69.0109,-134 87.7484,-134 103.7994,-134"/>
<polygon fill="#000000" stroke="#000000" points="103.8926,-137.5001 113.8925,-134 103.8925,-130.5001 103.8926,-137.5001"/>
<text text-anchor="middle" x="84.0505" y="-138.2" font-family="Times,serif" font-size="14.00" fill="#000000">start</text>
</g>
<!-- 21 -->
<g id="node3" class="node">
<title>21</title>
<ellipse fill="none" stroke="#000000" cx="226.396" cy="-78" rx="20.8887" ry="20.8887"/>
<text text-anchor="middle" x="226.396" y="-73.8" font-family="Times,serif" font-size="14.00" fill="#000000">21</text>
</g>
<!-- 11&#45;&gt;21 -->
<g id="edge2" class="edge">
<title>11&#45;&gt;21</title>
<path fill="none" stroke="#000000" d="M160.0003,-120.444C172.1784,-112.659 187.5655,-102.8227 200.4599,-94.5799"/>
<polygon fill="#000000" stroke="#000000" points="202.378,-97.5078 208.9184,-89.1727 198.6077,-91.6099 202.378,-97.5078"/>
<text text-anchor="middle" x="184.5952" y="-110.2" font-family="Times,serif" font-size="14.00" fill="#000000">a</text>
</g>
<!-- 12 -->
<g id="node4" class="node">
<title>12</title>
<ellipse fill="none" stroke="#000000" cx="394.3844" cy="-118" rx="20.8887" ry="20.8887"/>
<text text-anchor="middle" x="394.3844" y="-113.8" font-family="Times,serif" font-size="14.00" fill="#000000">12</text>
</g>
<!-- 11&#45;&gt;12 -->
<g id="edge3" class="edge">
<title>11&#45;&gt;12</title>
<path fill="none" stroke="#000000" d="M163.5247,-132.659C203.8012,-130.4433 286.0672,-125.7852 355.6909,-121 358.22,-120.8262 360.8416,-120.6386 363.4737,-120.4452"/>
<polygon fill="#000000" stroke="#000000" points="363.7975,-123.9308 373.5049,-119.6862 363.2693,-116.9507 363.7975,-123.9308"/>
<text text-anchor="middle" x="268.5894" y="-131.2" font-family="Times,serif" font-size="14.00" fill="#000000">b</text>
</g>
<!-- 21&#45;&gt;11 -->
<g id="edge8" class="edge">
<title>21&#45;&gt;11</title>
<path fill="none" stroke="#000000" d="M205.2994,-77.8141C197.4313,-78.5198 188.6726,-80.2784 181.4879,-84.2 172.5321,-89.0883 164.6157,-96.6547 158.1081,-104.4259"/>
<polygon fill="#000000" stroke="#000000" points="154.9646,-102.7697 151.6171,-112.8219 160.5025,-107.0512 154.9646,-102.7697"/>
<text text-anchor="middle" x="184.5952" y="-89.2" font-family="Times,serif" font-size="14.00" fill="#000000">a</text>
</g>
<!-- 22 -->
<g id="node5" class="node">
<title>22</title>
<ellipse fill="none" stroke="#000000" cx="310.7829" cy="-78" rx="20.8887" ry="20.8887"/>
<text text-anchor="middle" x="310.7829" y="-73.8" font-family="Times,serif" font-size="14.00" fill="#000000">22</text>
</g>
<!-- 21&#45;&gt;22 -->
<g id="edge9" class="edge">
<title>21&#45;&gt;22</title>
<path fill="none" stroke="#000000" d="M247.2556,-78C256.9927,-78 268.7868,-78 279.5565,-78"/>
<polygon fill="#000000" stroke="#000000" points="279.8707,-81.5001 289.8707,-78 279.8706,-74.5001 279.8707,-81.5001"/>
<text text-anchor="middle" x="268.5894" y="-82.2" font-family="Times,serif" font-size="14.00" fill="#000000">b</text>
</g>
<!-- 12&#45;&gt;22 -->
<g id="edge4" class="edge">
<title>12&#45;&gt;22</title>
<path fill="none" stroke="#000000" d="M382.4398,-101.0111C375.6375,-92.8188 366.3502,-83.7916 355.6909,-79.2 351.3842,-77.3448 346.6232,-76.2948 341.8591,-75.7742"/>
<polygon fill="#000000" stroke="#000000" points="341.7285,-72.2665 331.5993,-75.3729 341.4549,-79.2612 341.7285,-72.2665"/>
<text text-anchor="middle" x="352.5836" y="-84.2" font-family="Times,serif" font-size="14.00" fill="#000000">a</text>
</g>
<!-- 13 -->
<g id="node6" class="node">
<title>13</title>
<ellipse fill="none" stroke="#000000" cx="478.7713" cy="-118" rx="20.8887" ry="20.8887"/>
<text text-anchor="middle" x="478.7713" y="-113.8" font-family="Times,serif" font-size="14.00" fill="#000000">13</text>
</g>
<!-- 12&#45;&gt;13 -->
<g id="edge5" class="edge">
<title>12&#45;&gt;13</title>
<path fill="none" stroke="#000000" d="M415.2441,-118C424.9811,-118 436.7752,-118 447.5449,-118"/>
<polygon fill="#000000" stroke="#000000" points="447.8591,-121.5001 457.8591,-118 447.8591,-114.5001 447.8591,-121.5001"/>
<text text-anchor="middle" x="436.5778" y="-122.2" font-family="Times,serif" font-size="14.00" fill="#000000">b</text>
</g>
<!-- 22&#45;&gt;12 -->
<g id="edge10" class="edge">
<title>22&#45;&gt;12</title>
<path fill="none" stroke="#000000" d="M329.7533,-87.0766C340.5492,-92.242 354.2759,-98.8097 366.2997,-104.5626"/>
<polygon fill="#000000" stroke="#000000" points="364.9577,-107.8005 375.489,-108.9593 367.9789,-101.486 364.9577,-107.8005"/>
<text text-anchor="middle" x="352.5836" y="-104.2" font-family="Times,serif" font-size="14.00" fill="#000000">a</text>
</g>
<!-- 23 -->
<g id="node7" class="node">
<title>23</title>
<ellipse fill="none" stroke="#000000" cx="562.3728" cy="-61" rx="20.8887" ry="20.8887"/>
<text text-anchor="middle" x="562.3728" y="-56.8" font-family="Times,serif" font-size="14.00" fill="#000000">23</text>
</g>
<!-- 22&#45;&gt;23 -->
<g id="edge11" class="edge">
<title>22&#45;&gt;23</title>
<path fill="none" stroke="#000000" d="M331.6524,-75.6803C337.4219,-75.0832 343.6879,-74.4757 349.4763,-74 414.1516,-68.6848 490.0453,-64.5547 531.4907,-62.478"/>
<polygon fill="#000000" stroke="#000000" points="531.686,-65.9727 541.5008,-61.9829 531.3401,-58.9812 531.686,-65.9727"/>
<text text-anchor="middle" x="436.5778" y="-72.2" font-family="Times,serif" font-size="14.00" fill="#000000">b</text>
</g>
<!-- 13&#45;&gt;11 -->
<g id="edge7" class="edge">
<title>13&#45;&gt;11</title>
<path fill="none" stroke="#000000" d="M469.2585,-136.4849C455.9118,-159.5506 429.2974,-196 394.3844,-196 226.396,-196 226.396,-196 226.396,-196 200.5436,-196 176.9814,-177.7872 160.8211,-161.1039"/>
<polygon fill="#000000" stroke="#000000" points="163.281,-158.6082 153.9353,-153.6172 158.1287,-163.3468 163.281,-158.6082"/>
<text text-anchor="middle" x="310.7829" y="-200.2" font-family="Times,serif" font-size="14.00" fill="#000000">b</text>
</g>
<!-- 13&#45;&gt;23 -->
<g id="edge6" class="edge">
<title>13&#45;&gt;23</title>
<path fill="none" stroke="#000000" d="M492.2267,-101.7425C499.1598,-94.1358 508.1114,-85.4073 517.4647,-79.2 522.196,-76.0601 527.5545,-73.3107 532.8804,-70.9641"/>
<polygon fill="#000000" stroke="#000000" points="534.3188,-74.1581 542.2894,-67.1781 531.7057,-67.6641 534.3188,-74.1581"/>
<text text-anchor="middle" x="520.572" y="-84.2" font-family="Times,serif" font-size="14.00" fill="#000000">a</text>
</g>
<!-- 23&#45;&gt;21 -->
<g id="edge13" class="edge">
<title>23&#45;&gt;21</title>
<path fill="none" stroke="#000000" d="M549.9647,-44.0081C535.2109,-25.9587 508.7762,0 478.7713,0 310.7829,0 310.7829,0 310.7829,0 279.9612,0 255.6072,-28.4072 241.1396,-50.9349"/>
<polygon fill="#000000" stroke="#000000" points="238.1257,-49.1548 235.9087,-59.5151 244.1026,-52.7985 238.1257,-49.1548"/>
<text text-anchor="middle" x="394.3844" y="-4.2" font-family="Times,serif" font-size="14.00" fill="#000000">b</text>
</g>
<!-- 23&#45;&gt;13 -->
<g id="edge12" class="edge">
<title>23&#45;&gt;13</title>
<path fill="none" stroke="#000000" d="M547.7558,-76.0138C540.8366,-82.6344 532.2285,-90.2084 523.6793,-96 518.6142,-99.4313 512.9348,-102.6406 507.3631,-105.49"/>
<polygon fill="#000000" stroke="#000000" points="505.6892,-102.4118 498.2155,-109.9214 508.741,-108.7115 505.6892,-102.4118"/>
<text text-anchor="middle" x="520.572" y="-104.2" font-family="Times,serif" font-size="14.00" fill="#000000">a</text>
</g>
</g>
</svg>
