<?xml version="1.0" encoding="UTF-8" standalone="no"?>
<!DOCTYPE svg PUBLIC "-//W3C//DTD SVG 1.1//EN"
 "http://www.w3.org/Graphics/SVG/1.1/DTD/svg11.dtd">
<!-- Generated by graphviz version 2.40.1 (20161225.0304)
 -->
<!-- Title: graph_2_2 Pages: 1 -->
<svg width="1480pt" height="567pt"
 viewBox="0.00 0.00 1479.98 566.80" xmlns="http://www.w3.org/2000/svg" xmlns:xlink="http://www.w3.org/1999/xlink">
<g id="graph0" class="graph" transform="scale(1 1) rotate(0) translate(4 562.8)">
<title>graph_2_2</title>
<polygon fill="#ffffff" stroke="transparent" points="-4,4 -4,-562.8 1475.9815,-562.8 1475.9815,4 -4,4"/>
<g id="node1" class="node">
<title></title>
</g>
<!-- 11.11 -->
<g id="node7" class="node">
<title>11.11</title>
<ellipse fill="none" stroke="#000000" cx="146.8656" cy="-380" rx="32.5309" ry="32.5309"/>
<text text-anchor="middle" x="146.8656" y="-375.8" font-family="Times,serif" font-size="14.00" fill="#000000">11.11</text>
</g>
<!-- &#45;&gt;11.11 -->
<g id="edge1" class="edge">
<title>&#45;&gt;11.11</title>
<path fill="none" stroke="#000000" d="M54.1994,-380C68.8428,-380 87.2471,-380 103.7872,-380"/>
<polygon fill="#000000" stroke="#000000" points="103.7946,-383.5001 113.7945,-380 103.7945,-376.5001 103.7946,-383.5001"/>
<text text-anchor="middle" x="84.0505" y="-384.2" font-family="Times,serif" font-size="14.00" fill="#000000">start</text>
</g>
<!-- 12.42 -->
<g id="node2" class="node">
<title>12.42</title>
<ellipse fill="none" stroke="#000000" cx="476.4534" cy="-245" rx="32.5562" ry="32.5562"/>
<ellipse fill="none" stroke="#000000" cx="476.4534" cy="-245" rx="36.5308" ry="36.5308"/>
<text text-anchor="middle" x="476.4534" y="-240.8" font-family="Times,serif" font-size="14.00" fill="#000000">12.42</text>
</g>
<!-- 22.41 -->
<g id="node23" class="node">
<title>22.41</title>
<ellipse fill="none" stroke="#000000" cx="588.9827" cy="-259" rx="32.5309" ry="32.5309"/>
<text text-anchor="middle" x="588.9827" y="-254.8" font-family="Times,serif" font-size="14.00" fill="#000000">22.41</text>
</g>
<!-- 12.42&#45;&gt;22.41 -->
<g id="edge18" class="edge">
<title>12.42&#45;&gt;22.41</title>
<path fill="none" stroke="#000000" d="M509.1174,-227.7319C518.5025,-224.759 528.7573,-223.4095 538.2181,-226.2 543.8273,-227.8545 549.4003,-230.3432 554.687,-233.2246"/>
<polygon fill="#000000" stroke="#000000" points="552.8925,-236.2295 563.2697,-238.3663 556.49,-230.2246 552.8925,-236.2295"/>
<text text-anchor="middle" x="534.7181" y="-230.2" font-family="Times,serif" font-size="14.00" fill="#000000">a</text>
</g>
<!-- 13.41 -->
<g id="node24" class="node">
<title>13.41</title>
<ellipse fill="none" stroke="#000000" cx="814.0412" cy="-503" rx="32.5309" ry="32.5309"/>
<text text-anchor="middle" x="814.0412" y="-498.8" font-family="Times,serif" font-size="14.00" fill="#000000">13.41</text>
</g>
<!-- 12.42&#45;&gt;13.41 -->
<g id="edge19" class="edge">
<title>12.42&#45;&gt;13.41</title>
<path fill="none" stroke="#000000" d="M506.5531,-266.567C521.4044,-277.0966 539.6461,-289.8645 556.2181,-301 647.4025,-362.2714 685.5952,-358.3186 763.2766,-436 772.9579,-445.6813 773.0644,-450.0448 781.2766,-461 783.2181,-463.5899 785.2411,-466.2567 787.2871,-468.9309"/>
<polygon fill="#000000" stroke="#000000" points="784.5581,-471.1236 793.4354,-476.9066 790.102,-466.8498 784.5581,-471.1236"/>
<text text-anchor="middle" x="643.2473" y="-356.2" font-family="Times,serif" font-size="14.00" fill="#000000">b</text>
</g>
<!-- 13.42 -->
<g id="node3" class="node">
<title>13.42</title>
<ellipse fill="none" stroke="#000000" cx="1210.1583" cy="-262" rx="32.5562" ry="32.5562"/>
<ellipse fill="none" stroke="#000000" cx="1210.1583" cy="-262" rx="36.5308" ry="36.5308"/>
<text text-anchor="middle" x="1210.1583" y="-257.8" font-family="Times,serif" font-size="14.00" fill="#000000">13.42</text>
</g>
<!-- 11.41 -->
<g id="node17" class="node">
<title>11.41</title>
<ellipse fill="none" stroke="#000000" cx="1322.6876" cy="-231" rx="32.5309" ry="32.5309"/>
<text text-anchor="middle" x="1322.6876" y="-226.8" font-family="Times,serif" font-size="14.00" fill="#000000">11.41</text>
</g>
<!-- 13.42&#45;&gt;11.41 -->
<g id="edge29" class="edge">
<title>13.42&#45;&gt;11.41</title>
<path fill="none" stroke="#000000" d="M1242.3743,-243.7209C1249.5948,-240.3439 1257.361,-237.2428 1264.9229,-235.2 1269.5914,-233.9388 1274.5446,-233.0033 1279.5106,-232.3156"/>
<polygon fill="#000000" stroke="#000000" points="1280.0667,-235.776 1289.6351,-231.227 1279.3183,-228.8162 1280.0667,-235.776"/>
<text text-anchor="middle" x="1268.4229" y="-239.2" font-family="Times,serif" font-size="14.00" fill="#000000">b</text>
</g>
<!-- 23.41 -->
<g id="node28" class="node">
<title>23.41</title>
<ellipse fill="none" stroke="#000000" cx="1322.6876" cy="-315" rx="32.5309" ry="32.5309"/>
<text text-anchor="middle" x="1322.6876" y="-310.8" font-family="Times,serif" font-size="14.00" fill="#000000">23.41</text>
</g>
<!-- 13.42&#45;&gt;23.41 -->
<g id="edge28" class="edge">
<title>13.42&#45;&gt;23.41</title>
<path fill="none" stroke="#000000" d="M1246.6254,-267.6762C1255.1626,-269.7358 1264.056,-272.5033 1271.9229,-276.2 1278.1286,-279.1161 1284.2972,-282.8861 1290.0846,-286.9276"/>
<polygon fill="#000000" stroke="#000000" points="1288.132,-289.8367 1298.2513,-292.9752 1292.2978,-284.2112 1288.132,-289.8367"/>
<text text-anchor="middle" x="1268.4229" y="-280.2" font-family="Times,serif" font-size="14.00" fill="#000000">a</text>
</g>
<!-- 21.42 -->
<g id="node4" class="node">
<title>21.42</title>
<ellipse fill="none" stroke="#000000" cx="1435.2168" cy="-186" rx="32.5562" ry="32.5562"/>
<ellipse fill="none" stroke="#000000" cx="1435.2168" cy="-186" rx="36.5308" ry="36.5308"/>
<text text-anchor="middle" x="1435.2168" y="-181.8" font-family="Times,serif" font-size="14.00" fill="#000000">21.42</text>
</g>
<!-- 21.42&#45;&gt;11.41 -->
<g id="edge38" class="edge">
<title>21.42&#45;&gt;11.41</title>
<path fill="none" stroke="#000000" d="M1398.6929,-192.3662C1390.2441,-194.3923 1381.404,-196.9716 1373.4522,-200.2 1368.5631,-202.185 1363.5995,-204.6075 1358.7868,-207.2133"/>
<polygon fill="#000000" stroke="#000000" points="1356.7083,-204.3707 1349.7767,-212.3834 1360.1922,-210.4421 1356.7083,-204.3707"/>
<text text-anchor="middle" x="1376.9522" y="-204.2" font-family="Times,serif" font-size="14.00" fill="#000000">a</text>
</g>
<!-- 21.42&#45;&gt;22.41 -->
<g id="edge39" class="edge">
<title>21.42&#45;&gt;22.41</title>
<path fill="none" stroke="#000000" d="M1399.1668,-178.2343C1377.1779,-174.1578 1348.4389,-170 1322.6876,-170 1097.629,-170 1097.629,-170 1097.629,-170 1071.9257,-170 1065.5072,-165.4378 1039.8644,-167.2 871.9596,-178.7383 824.9491,-167.4197 664.7473,-219 651.434,-223.2865 637.679,-229.8207 625.603,-236.3731"/>
<polygon fill="#000000" stroke="#000000" points="623.7397,-233.4052 616.7308,-241.3504 627.1646,-239.5102 623.7397,-233.4052"/>
<text text-anchor="middle" x="1043.3644" y="-171.2" font-family="Times,serif" font-size="14.00" fill="#000000">b</text>
</g>
<!-- 22.42 -->
<g id="node5" class="node">
<title>22.42</title>
<ellipse fill="none" stroke="#000000" cx="985.0998" cy="-329" rx="32.5562" ry="32.5562"/>
<ellipse fill="none" stroke="#000000" cx="985.0998" cy="-329" rx="36.5308" ry="36.5308"/>
<text text-anchor="middle" x="985.0998" y="-324.8" font-family="Times,serif" font-size="14.00" fill="#000000">22.42</text>
</g>
<!-- 12.41 -->
<g id="node16" class="node">
<title>12.41</title>
<ellipse fill="none" stroke="#000000" cx="1097.629" cy="-311" rx="32.5309" ry="32.5309"/>
<text text-anchor="middle" x="1097.629" y="-306.8" font-family="Times,serif" font-size="14.00" fill="#000000">12.41</text>
</g>
<!-- 22.42&#45;&gt;12.41 -->
<g id="edge48" class="edge">
<title>22.42&#45;&gt;12.41</title>
<path fill="none" stroke="#000000" d="M1015.7726,-308.1622C1023.3344,-304.0572 1031.6336,-300.3558 1039.8644,-298.2 1045.3296,-296.7686 1051.1127,-296.5431 1056.8249,-297.0713"/>
<polygon fill="#000000" stroke="#000000" points="1056.5104,-300.5666 1066.9464,-298.7387 1057.6483,-293.6597 1056.5104,-300.5666"/>
<text text-anchor="middle" x="1043.3644" y="-302.2" font-family="Times,serif" font-size="14.00" fill="#000000">a</text>
</g>
<!-- 22.42&#45;&gt;23.41 -->
<g id="edge49" class="edge">
<title>22.42&#45;&gt;23.41</title>
<path fill="none" stroke="#000000" d="M1019.9362,-341.8918C1033.7239,-346.3542 1049.8419,-350.7889 1064.8644,-353 1141.4499,-364.2721 1230.8281,-343.5036 1281.6909,-328.4873"/>
<polygon fill="#000000" stroke="#000000" points="1282.7754,-331.816 1291.3347,-325.5719 1280.7497,-325.1154 1282.7754,-331.816"/>
<text text-anchor="middle" x="1151.8937" y="-358.2" font-family="Times,serif" font-size="14.00" fill="#000000">b</text>
</g>
<!-- 23.42 -->
<g id="node6" class="node">
<title>23.42</title>
<ellipse fill="none" stroke="#000000" cx="701.512" cy="-464" rx="32.5562" ry="32.5562"/>
<ellipse fill="none" stroke="#000000" cx="701.512" cy="-464" rx="36.5308" ry="36.5308"/>
<text text-anchor="middle" x="701.512" y="-459.8" font-family="Times,serif" font-size="14.00" fill="#000000">23.42</text>
</g>
<!-- 21.41 -->
<g id="node15" class="node">
<title>21.41</title>
<ellipse fill="none" stroke="#000000" cx="814.0412" cy="-419" rx="32.5309" ry="32.5309"/>
<text text-anchor="middle" x="814.0412" y="-414.8" font-family="Times,serif" font-size="14.00" fill="#000000">21.41</text>
</g>
<!-- 23.42&#45;&gt;21.41 -->
<g id="edge59" class="edge">
<title>23.42&#45;&gt;21.41</title>
<path fill="none" stroke="#000000" d="M735.8859,-450.254C747.82,-445.4816 761.3108,-440.0867 773.6835,-435.1389"/>
<polygon fill="#000000" stroke="#000000" points="775.3298,-438.2501 783.3154,-431.2872 772.7307,-431.7505 775.3298,-438.2501"/>
<text text-anchor="middle" x="759.7766" y="-445.2" font-family="Times,serif" font-size="14.00" fill="#000000">b</text>
</g>
<!-- 23.42&#45;&gt;13.41 -->
<g id="edge58" class="edge">
<title>23.42&#45;&gt;13.41</title>
<path fill="none" stroke="#000000" d="M736.5001,-476.1261C748.0932,-480.144 761.0996,-484.6517 773.0994,-488.8105"/>
<polygon fill="#000000" stroke="#000000" points="772.2945,-492.2358 782.8893,-492.2035 774.5869,-485.6217 772.2945,-492.2358"/>
<text text-anchor="middle" x="759.7766" y="-488.2" font-family="Times,serif" font-size="14.00" fill="#000000">a</text>
</g>
<!-- 21.22 -->
<g id="node8" class="node">
<title>21.22</title>
<ellipse fill="none" stroke="#000000" cx="255.3949" cy="-299" rx="32.5309" ry="32.5309"/>
<text text-anchor="middle" x="255.3949" y="-294.8" font-family="Times,serif" font-size="14.00" fill="#000000">21.22</text>
</g>
<!-- 11.11&#45;&gt;21.22 -->
<g id="edge2" class="edge">
<title>11.11&#45;&gt;21.22</title>
<path fill="none" stroke="#000000" d="M173.1375,-360.3922C187.429,-349.7258 205.2877,-336.3971 220.7098,-324.887"/>
<polygon fill="#000000" stroke="#000000" points="223.0681,-327.4942 228.9888,-318.708 218.8813,-321.8844 223.0681,-327.4942"/>
<text text-anchor="middle" x="201.1303" y="-345.2" font-family="Times,serif" font-size="14.00" fill="#000000">a</text>
</g>
<!-- 12.22 -->
<g id="node9" class="node">
<title>12.22</title>
<ellipse fill="none" stroke="#000000" cx="255.3949" cy="-442" rx="32.5309" ry="32.5309"/>
<text text-anchor="middle" x="255.3949" y="-437.8" font-family="Times,serif" font-size="14.00" fill="#000000">12.22</text>
</g>
<!-- 11.11&#45;&gt;12.22 -->
<g id="edge3" class="edge">
<title>11.11&#45;&gt;12.22</title>
<path fill="none" stroke="#000000" d="M175.3804,-396.2898C188.3631,-403.7064 203.9056,-412.5855 217.8246,-420.5371"/>
<polygon fill="#000000" stroke="#000000" points="216.2746,-423.6824 226.6937,-425.6038 219.7469,-417.6043 216.2746,-423.6824"/>
<text text-anchor="middle" x="201.1303" y="-416.2" font-family="Times,serif" font-size="14.00" fill="#000000">b</text>
</g>
<!-- 11.31 -->
<g id="node13" class="node">
<title>11.31</title>
<ellipse fill="none" stroke="#000000" cx="363.9242" cy="-197" rx="32.5309" ry="32.5309"/>
<text text-anchor="middle" x="363.9242" y="-192.8" font-family="Times,serif" font-size="14.00" fill="#000000">11.31</text>
</g>
<!-- 21.22&#45;&gt;11.31 -->
<g id="edge34" class="edge">
<title>21.22&#45;&gt;11.31</title>
<path fill="none" stroke="#000000" d="M279.4811,-276.3629C295.0776,-261.7047 315.5509,-242.4631 332.4322,-226.5973"/>
<polygon fill="#000000" stroke="#000000" points="335.0154,-228.9727 339.9053,-219.5738 330.2215,-223.8719 335.0154,-228.9727"/>
<text text-anchor="middle" x="309.6595" y="-255.2" font-family="Times,serif" font-size="14.00" fill="#000000">a</text>
</g>
<!-- 22.31 -->
<g id="node21" class="node">
<title>22.31</title>
<ellipse fill="none" stroke="#000000" cx="363.9242" cy="-331" rx="32.5309" ry="32.5309"/>
<text text-anchor="middle" x="363.9242" y="-326.8" font-family="Times,serif" font-size="14.00" fill="#000000">22.31</text>
</g>
<!-- 21.22&#45;&gt;22.31 -->
<g id="edge35" class="edge">
<title>21.22&#45;&gt;22.31</title>
<path fill="none" stroke="#000000" d="M287.0778,-308.3417C298.2224,-311.6278 310.9137,-315.3698 322.7265,-318.8528"/>
<polygon fill="#000000" stroke="#000000" points="321.8079,-322.2309 332.3895,-321.702 323.7876,-315.5166 321.8079,-322.2309"/>
<text text-anchor="middle" x="309.6595" y="-319.2" font-family="Times,serif" font-size="14.00" fill="#000000">b</text>
</g>
<!-- 12.22&#45;&gt;22.31 -->
<g id="edge14" class="edge">
<title>12.22&#45;&gt;22.31</title>
<path fill="none" stroke="#000000" d="M278.4112,-418.4598C294.5267,-401.9773 316.2201,-379.7901 333.7243,-361.8874"/>
<polygon fill="#000000" stroke="#000000" points="336.4526,-364.1034 340.9411,-354.5063 331.4474,-359.2097 336.4526,-364.1034"/>
<text text-anchor="middle" x="309.6595" y="-393.2" font-family="Times,serif" font-size="14.00" fill="#000000">a</text>
</g>
<!-- 13.31 -->
<g id="node22" class="node">
<title>13.31</title>
<ellipse fill="none" stroke="#000000" cx="588.9827" cy="-498" rx="32.5309" ry="32.5309"/>
<text text-anchor="middle" x="588.9827" y="-493.8" font-family="Times,serif" font-size="14.00" fill="#000000">13.31</text>
</g>
<!-- 12.22&#45;&gt;13.31 -->
<g id="edge15" class="edge">
<title>12.22&#45;&gt;13.31</title>
<path fill="none" stroke="#000000" d="M286.4356,-452.6296C300.0324,-456.9707 316.2558,-461.7292 331.1595,-465 405.7972,-481.38 494.5005,-490.5291 546.0055,-494.8464"/>
<polygon fill="#000000" stroke="#000000" points="545.8526,-498.3455 556.1042,-495.6707 546.4221,-491.3687 545.8526,-498.3455"/>
<text text-anchor="middle" x="418.1888" y="-484.2" font-family="Times,serif" font-size="14.00" fill="#000000">b</text>
</g>
<!-- 11.22 -->
<g id="node10" class="node">
<title>11.22</title>
<ellipse fill="none" stroke="#000000" cx="701.512" cy="-261" rx="32.5309" ry="32.5309"/>
<text text-anchor="middle" x="701.512" y="-256.8" font-family="Times,serif" font-size="14.00" fill="#000000">11.22</text>
</g>
<!-- 21.31 -->
<g id="node11" class="node">
<title>21.31</title>
<ellipse fill="none" stroke="#000000" cx="814.0412" cy="-334" rx="32.5309" ry="32.5309"/>
<text text-anchor="middle" x="814.0412" y="-329.8" font-family="Times,serif" font-size="14.00" fill="#000000">21.31</text>
</g>
<!-- 11.22&#45;&gt;21.31 -->
<g id="edge4" class="edge">
<title>11.22&#45;&gt;21.31</title>
<path fill="none" stroke="#000000" d="M731.8538,-274.0123C742.1288,-278.8901 753.4769,-284.8128 763.2766,-291.2 769.5841,-295.3111 775.9775,-300.1104 782.0023,-304.979"/>
<polygon fill="#000000" stroke="#000000" points="780.0249,-307.8873 789.9469,-311.603 784.5077,-302.5109 780.0249,-307.8873"/>
<text text-anchor="middle" x="759.7766" y="-295.2" font-family="Times,serif" font-size="14.00" fill="#000000">a</text>
</g>
<!-- 12.31 -->
<g id="node12" class="node">
<title>12.31</title>
<ellipse fill="none" stroke="#000000" cx="814.0412" cy="-250" rx="32.5309" ry="32.5309"/>
<text text-anchor="middle" x="814.0412" y="-245.8" font-family="Times,serif" font-size="14.00" fill="#000000">12.31</text>
</g>
<!-- 11.22&#45;&gt;12.31 -->
<g id="edge5" class="edge">
<title>11.22&#45;&gt;12.31</title>
<path fill="none" stroke="#000000" d="M733.8283,-254.3536C741.1776,-253.0832 748.9718,-251.925 756.2766,-251.2 761.0179,-250.7294 765.9885,-250.3922 770.9399,-250.155"/>
<polygon fill="#000000" stroke="#000000" points="771.1277,-253.6506 780.9972,-249.7979 770.8792,-246.655 771.1277,-253.6506"/>
<text text-anchor="middle" x="759.7766" y="-255.2" font-family="Times,serif" font-size="14.00" fill="#000000">b</text>
</g>
<!-- 21.31&#45;&gt;22.42 -->
<g id="edge37" class="edge">
<title>21.31&#45;&gt;22.42</title>
<path fill="none" stroke="#000000" d="M846.1329,-326.8472C852.3,-325.745 858.7299,-324.7811 864.8059,-324.2 888.964,-321.8895 915.9543,-322.6623 938.2379,-324.1969"/>
<polygon fill="#000000" stroke="#000000" points="938.204,-327.7043 948.441,-324.974 938.7357,-320.7246 938.204,-327.7043"/>
<text text-anchor="middle" x="897.5705" y="-328.2" font-family="Times,serif" font-size="14.00" fill="#000000">b</text>
</g>
<!-- 11.42 -->
<g id="node14" class="node">
<title>11.42</title>
<ellipse fill="none" stroke="#000000" cx="985.0998" cy="-463" rx="32.5309" ry="32.5309"/>
<text text-anchor="middle" x="985.0998" y="-458.8" font-family="Times,serif" font-size="14.00" fill="#000000">11.42</text>
</g>
<!-- 21.31&#45;&gt;11.42 -->
<g id="edge36" class="edge">
<title>21.31&#45;&gt;11.42</title>
<path fill="none" stroke="#000000" d="M836.4664,-358.3331C844.7829,-366.3438 854.671,-374.7816 864.8059,-381 891.2684,-397.2366 904.4179,-388.1063 930.3351,-405.2 940.3314,-411.7931 949.8332,-420.5423 958.0306,-429.2337"/>
<polygon fill="#000000" stroke="#000000" points="955.5732,-431.7345 964.8782,-436.801 960.7637,-427.0377 955.5732,-431.7345"/>
<text text-anchor="middle" x="897.5705" y="-409.2" font-family="Times,serif" font-size="14.00" fill="#000000">a</text>
</g>
<!-- 12.31&#45;&gt;13.42 -->
<g id="edge17" class="edge">
<title>12.31&#45;&gt;13.42</title>
<path fill="none" stroke="#000000" d="M846.7942,-250.9922C916.8655,-253.115 1081.5483,-258.1039 1162.9341,-260.5694"/>
<polygon fill="#000000" stroke="#000000" points="1163.275,-264.0812 1173.3765,-260.8857 1163.4871,-257.0844 1163.275,-264.0812"/>
<text text-anchor="middle" x="1043.3644" y="-260.2" font-family="Times,serif" font-size="14.00" fill="#000000">b</text>
</g>
<!-- 12.31&#45;&gt;22.42 -->
<g id="edge16" class="edge">
<title>12.31&#45;&gt;22.42</title>
<path fill="none" stroke="#000000" d="M844.3668,-262.8092C867.9559,-272.9033 901.4252,-287.511 930.3351,-301.2 934.4579,-303.1522 938.7322,-305.2282 942.9921,-307.3323"/>
<polygon fill="#000000" stroke="#000000" points="941.7205,-310.6094 952.2307,-311.9458 944.8479,-304.3468 941.7205,-310.6094"/>
<text text-anchor="middle" x="897.5705" y="-305.2" font-family="Times,serif" font-size="14.00" fill="#000000">a</text>
</g>
<!-- 11.31&#45;&gt;12.42 -->
<g id="edge7" class="edge">
<title>11.31&#45;&gt;12.42</title>
<path fill="none" stroke="#000000" d="M394.0799,-209.8631C406.0242,-214.958 419.9856,-220.9133 432.9847,-226.4582"/>
<polygon fill="#000000" stroke="#000000" points="431.666,-229.7007 442.2374,-230.405 434.4125,-223.262 431.666,-229.7007"/>
<text text-anchor="middle" x="418.1888" y="-225.2" font-family="Times,serif" font-size="14.00" fill="#000000">b</text>
</g>
<!-- 11.31&#45;&gt;21.42 -->
<g id="edge6" class="edge">
<title>11.31&#45;&gt;21.42</title>
<path fill="none" stroke="#000000" d="M389.6748,-176.4701C425.1183,-149.2315 491.8808,-101.5079 556.2181,-75 699.8366,-15.8272 742.2396,0 897.5705,0 897.5705,0 897.5705,0 1322.6876,0 1387.7076,0 1416.1775,-84.2344 1427.845,-139.3307"/>
<polygon fill="#000000" stroke="#000000" points="1424.4365,-140.1349 1429.833,-149.2524 1431.3,-138.7596 1424.4365,-140.1349"/>
<text text-anchor="middle" x="897.5705" y="-5.2" font-family="Times,serif" font-size="14.00" fill="#000000">a</text>
</g>
<!-- 11.42&#45;&gt;21.41 -->
<g id="edge8" class="edge">
<title>11.42&#45;&gt;21.41</title>
<path fill="none" stroke="#000000" d="M952.6306,-468.1452C927.7944,-470.749 893.1174,-471.4601 864.8059,-461 857.6505,-458.3563 850.7782,-454.2399 844.527,-449.5974"/>
<polygon fill="#000000" stroke="#000000" points="846.3929,-446.6047 836.4195,-443.0296 841.9867,-452.0439 846.3929,-446.6047"/>
<text text-anchor="middle" x="897.5705" y="-473.2" font-family="Times,serif" font-size="14.00" fill="#000000">a</text>
</g>
<!-- 11.42&#45;&gt;12.41 -->
<g id="edge9" class="edge">
<title>11.42&#45;&gt;12.41</title>
<path fill="none" stroke="#000000" d="M1004.7009,-436.5236C1023.3615,-411.3176 1051.5521,-373.2388 1071.9895,-345.6328"/>
<polygon fill="#000000" stroke="#000000" points="1074.927,-347.5473 1078.0641,-337.4275 1069.3009,-343.3822 1074.927,-347.5473"/>
<text text-anchor="middle" x="1043.3644" y="-391.2" font-family="Times,serif" font-size="14.00" fill="#000000">b</text>
</g>
<!-- 21.41&#45;&gt;22.42 -->
<g id="edge41" class="edge">
<title>21.41&#45;&gt;22.42</title>
<path fill="none" stroke="#000000" d="M833.6218,-392.3384C842.2015,-382.2734 853.0059,-371.502 864.8059,-364.2 877.4683,-356.3643 910.974,-346.846 939.4173,-339.6838"/>
<polygon fill="#000000" stroke="#000000" points="940.3589,-343.0564 949.2244,-337.2553 938.6763,-336.2616 940.3589,-343.0564"/>
<text text-anchor="middle" x="897.5705" y="-368.2" font-family="Times,serif" font-size="14.00" fill="#000000">b</text>
</g>
<!-- 21.41&#45;&gt;11.42 -->
<g id="edge40" class="edge">
<title>21.41&#45;&gt;11.42</title>
<path fill="none" stroke="#000000" d="M846.5607,-423.0248C870.1246,-426.3991 902.5852,-431.9973 930.3351,-440.2 935.3304,-441.6766 940.4896,-443.4597 945.5528,-445.3705"/>
<polygon fill="#000000" stroke="#000000" points="944.5171,-448.7249 955.1032,-449.1557 947.0964,-442.2174 944.5171,-448.7249"/>
<text text-anchor="middle" x="897.5705" y="-444.2" font-family="Times,serif" font-size="14.00" fill="#000000">a</text>
</g>
<!-- 12.41&#45;&gt;13.42 -->
<g id="edge21" class="edge">
<title>12.41&#45;&gt;13.42</title>
<path fill="none" stroke="#000000" d="M1127.7848,-297.8689C1139.8339,-292.6222 1153.9355,-286.4818 1167.0314,-280.7793"/>
<polygon fill="#000000" stroke="#000000" points="1168.5746,-283.9248 1176.3458,-276.7234 1165.7799,-277.5068 1168.5746,-283.9248"/>
<text text-anchor="middle" x="1151.8937" y="-291.2" font-family="Times,serif" font-size="14.00" fill="#000000">b</text>
</g>
<!-- 12.41&#45;&gt;22.42 -->
<g id="edge20" class="edge">
<title>12.41&#45;&gt;22.42</title>
<path fill="none" stroke="#000000" d="M1065.0726,-316.2077C1054.6648,-317.8725 1042.9323,-319.7492 1031.7257,-321.5418"/>
<polygon fill="#000000" stroke="#000000" points="1030.9564,-318.1203 1021.6348,-323.1559 1032.0621,-325.0324 1030.9564,-318.1203"/>
<text text-anchor="middle" x="1043.3644" y="-324.2" font-family="Times,serif" font-size="14.00" fill="#000000">a</text>
</g>
<!-- 11.41&#45;&gt;12.42 -->
<g id="edge11" class="edge">
<title>11.41&#45;&gt;12.42</title>
<path fill="none" stroke="#000000" d="M1293.0225,-216.9974C1259.7756,-201.4693 1204.1365,-175.976 1155.3937,-156 1056.6308,-115.5246 1035.3795,-91.1219 930.3351,-72.2 916.0037,-69.6184 912.1326,-72.2 897.5705,-72.2 643.2473,-76 643.2473,-76 643.2473,-76 572.4227,-76 521.5374,-152.1179 495.7276,-202.1852"/>
<polygon fill="#000000" stroke="#000000" points="492.5576,-200.6989 491.2011,-211.2065 498.8142,-203.8382 492.5576,-200.6989"/>
<text text-anchor="middle" x="897.5705" y="-80.2" font-family="Times,serif" font-size="14.00" fill="#000000">b</text>
</g>
<!-- 11.41&#45;&gt;21.42 -->
<g id="edge10" class="edge">
<title>11.41&#45;&gt;21.42</title>
<path fill="none" stroke="#000000" d="M1355.3832,-227.6575C1363.7356,-226.1804 1372.5765,-224.0551 1380.4522,-221 1385.9784,-218.8563 1391.5426,-216.1186 1396.8966,-213.121"/>
<polygon fill="#000000" stroke="#000000" points="1398.8701,-216.0192 1405.6645,-207.8898 1395.2836,-210.0078 1398.8701,-216.0192"/>
<text text-anchor="middle" x="1376.9522" y="-227.2" font-family="Times,serif" font-size="14.00" fill="#000000">a</text>
</g>
<!-- 12.11 -->
<g id="node18" class="node">
<title>12.11</title>
<ellipse fill="none" stroke="#000000" cx="146.8656" cy="-49" rx="32.5309" ry="32.5309"/>
<text text-anchor="middle" x="146.8656" y="-44.8" font-family="Times,serif" font-size="14.00" fill="#000000">12.11</text>
</g>
<!-- 22.22 -->
<g id="node19" class="node">
<title>22.22</title>
<ellipse fill="none" stroke="#000000" cx="701.512" cy="-138" rx="32.5309" ry="32.5309"/>
<text text-anchor="middle" x="701.512" y="-133.8" font-family="Times,serif" font-size="14.00" fill="#000000">22.22</text>
</g>
<!-- 12.11&#45;&gt;22.22 -->
<g id="edge12" class="edge">
<title>12.11&#45;&gt;22.22</title>
<path fill="none" stroke="#000000" d="M179.8042,-47.3972C212.0093,-45.9157 262.4411,-43.8231 306.1595,-43 439.628,-40.4873 591.643,-93.5252 661.9747,-121.4152"/>
<polygon fill="#000000" stroke="#000000" points="660.7621,-124.6998 671.3463,-125.1753 663.3687,-118.2032 660.7621,-124.6998"/>
<text text-anchor="middle" x="418.1888" y="-56.2" font-family="Times,serif" font-size="14.00" fill="#000000">a</text>
</g>
<!-- 13.22 -->
<g id="node20" class="node">
<title>13.22</title>
<ellipse fill="none" stroke="#000000" cx="255.3949" cy="-97" rx="32.5309" ry="32.5309"/>
<text text-anchor="middle" x="255.3949" y="-92.8" font-family="Times,serif" font-size="14.00" fill="#000000">13.22</text>
</g>
<!-- 12.11&#45;&gt;13.22 -->
<g id="edge13" class="edge">
<title>12.11&#45;&gt;13.22</title>
<path fill="none" stroke="#000000" d="M177.0971,-62.3707C189.0924,-67.6759 203.0511,-73.8496 215.8328,-79.5026"/>
<polygon fill="#000000" stroke="#000000" points="214.7644,-82.8571 225.3256,-83.701 217.5958,-76.4552 214.7644,-82.8571"/>
<text text-anchor="middle" x="201.1303" y="-79.2" font-family="Times,serif" font-size="14.00" fill="#000000">b</text>
</g>
<!-- 22.22&#45;&gt;12.31 -->
<g id="edge44" class="edge">
<title>22.22&#45;&gt;12.31</title>
<path fill="none" stroke="#000000" d="M724.8281,-161.2065C741.8777,-178.1759 765.1596,-201.3482 783.6642,-219.7658"/>
<polygon fill="#000000" stroke="#000000" points="781.1982,-222.2496 790.755,-226.8233 786.1363,-217.2881 781.1982,-222.2496"/>
<text text-anchor="middle" x="759.7766" y="-201.2" font-family="Times,serif" font-size="14.00" fill="#000000">a</text>
</g>
<!-- 23.31 -->
<g id="node27" class="node">
<title>23.31</title>
<ellipse fill="none" stroke="#000000" cx="897.5705" cy="-131" rx="32.5309" ry="32.5309"/>
<text text-anchor="middle" x="897.5705" y="-126.8" font-family="Times,serif" font-size="14.00" fill="#000000">23.31</text>
</g>
<!-- 22.22&#45;&gt;23.31 -->
<g id="edge45" class="edge">
<title>22.22&#45;&gt;23.31</title>
<path fill="none" stroke="#000000" d="M734.3278,-136.8284C767.2675,-135.6523 818.1859,-133.8343 854.3884,-132.5418"/>
<polygon fill="#000000" stroke="#000000" points="854.7789,-136.0301 864.6477,-132.1755 854.5291,-129.0346 854.7789,-136.0301"/>
<text text-anchor="middle" x="759.7766" y="-139.2" font-family="Times,serif" font-size="14.00" fill="#000000">b</text>
</g>
<!-- 13.22&#45;&gt;11.31 -->
<g id="edge25" class="edge">
<title>13.22&#45;&gt;11.31</title>
<path fill="none" stroke="#000000" d="M279.751,-119.442C295.251,-133.7238 315.4856,-152.3682 332.2307,-167.7973"/>
<polygon fill="#000000" stroke="#000000" points="329.9235,-170.4307 339.6494,-174.6329 334.6669,-165.2828 329.9235,-170.4307"/>
<text text-anchor="middle" x="309.6595" y="-153.2" font-family="Times,serif" font-size="14.00" fill="#000000">b</text>
</g>
<!-- 13.22&#45;&gt;23.31 -->
<g id="edge24" class="edge">
<title>13.22&#45;&gt;23.31</title>
<path fill="none" stroke="#000000" d="M286.1824,-85.617C347.3796,-63.2175 482.5996,-14.9151 531.2181,-7.2 656.9241,12.7478 797.3623,-64.7447 861.7721,-106.2969"/>
<polygon fill="#000000" stroke="#000000" points="860.0624,-109.3608 870.3465,-111.9077 863.8953,-103.5034 860.0624,-109.3608"/>
<text text-anchor="middle" x="534.7181" y="-12.2" font-family="Times,serif" font-size="14.00" fill="#000000">a</text>
</g>
<!-- 22.31&#45;&gt;12.42 -->
<g id="edge46" class="edge">
<title>22.31&#45;&gt;12.42</title>
<path fill="none" stroke="#000000" d="M390.0235,-311.0537C404.5092,-299.9831 422.7822,-286.018 438.7912,-273.7832"/>
<polygon fill="#000000" stroke="#000000" points="441.1044,-276.4205 446.9245,-267.5674 436.8538,-270.8587 441.1044,-276.4205"/>
<text text-anchor="middle" x="418.1888" y="-294.2" font-family="Times,serif" font-size="14.00" fill="#000000">a</text>
</g>
<!-- 22.31&#45;&gt;23.42 -->
<g id="edge47" class="edge">
<title>22.31&#45;&gt;23.42</title>
<path fill="none" stroke="#000000" d="M396.3007,-325.6299C432.5003,-321.1133 492.0922,-318.2045 538.2181,-338.2 596.272,-363.3663 587.0869,-402.9219 639.7473,-438 645.1485,-441.5978 651.1284,-444.8622 657.1784,-447.7676"/>
<polygon fill="#000000" stroke="#000000" points="656.1141,-451.1265 666.67,-452.0341 658.9841,-444.7419 656.1141,-451.1265"/>
<text text-anchor="middle" x="534.7181" y="-342.2" font-family="Times,serif" font-size="14.00" fill="#000000">b</text>
</g>
<!-- 13.31&#45;&gt;23.42 -->
<g id="edge26" class="edge">
<title>13.31&#45;&gt;23.42</title>
<path fill="none" stroke="#000000" d="M620.6278,-488.4386C631.6993,-485.0935 644.3549,-481.2696 656.3158,-477.6557"/>
<polygon fill="#000000" stroke="#000000" points="657.5892,-480.9273 666.1495,-474.6846 655.5645,-474.2265 657.5892,-480.9273"/>
<text text-anchor="middle" x="643.2473" y="-486.2" font-family="Times,serif" font-size="14.00" fill="#000000">a</text>
</g>
<!-- 13.31&#45;&gt;11.42 -->
<g id="edge27" class="edge">
<title>13.31&#45;&gt;11.42</title>
<path fill="none" stroke="#000000" d="M620.2003,-508.086C657.8938,-519.6887 723.4423,-538.0347 781.2766,-545 810.1918,-548.4824 817.812,-547.7519 846.8059,-545 884.4358,-541.4285 897.793,-548.2296 930.3351,-529 942.5929,-521.7567 953.3344,-510.7158 961.9822,-499.725"/>
<polygon fill="#000000" stroke="#000000" points="965.0189,-501.5068 968.1775,-491.3937 959.4017,-497.3297 965.0189,-501.5068"/>
<text text-anchor="middle" x="759.7766" y="-546.2" font-family="Times,serif" font-size="14.00" fill="#000000">b</text>
</g>
<!-- 22.41&#45;&gt;12.42 -->
<g id="edge50" class="edge">
<title>22.41&#45;&gt;12.42</title>
<path fill="none" stroke="#000000" d="M556.4263,-254.9496C546.0184,-253.6547 534.286,-252.1951 523.0793,-250.8008"/>
<polygon fill="#000000" stroke="#000000" points="523.3441,-247.3069 512.9885,-249.5454 522.4798,-254.2533 523.3441,-247.3069"/>
<text text-anchor="middle" x="534.7181" y="-256.2" font-family="Times,serif" font-size="14.00" fill="#000000">a</text>
</g>
<!-- 22.41&#45;&gt;23.42 -->
<g id="edge51" class="edge">
<title>22.41&#45;&gt;23.42</title>
<path fill="none" stroke="#000000" d="M594.8655,-291.2869C601.7913,-323.2063 615.5403,-372.4363 639.7473,-409 646.2456,-418.8154 654.9163,-427.9848 663.7016,-435.9154"/>
<polygon fill="#000000" stroke="#000000" points="661.5401,-438.673 671.3998,-442.5509 666.1104,-433.3708 661.5401,-438.673"/>
<text text-anchor="middle" x="643.2473" y="-421.2" font-family="Times,serif" font-size="14.00" fill="#000000">b</text>
</g>
<!-- 13.41&#45;&gt;23.42 -->
<g id="edge30" class="edge">
<title>13.41&#45;&gt;23.42</title>
<path fill="none" stroke="#000000" d="M790.009,-480.3669C782.0875,-474.2758 772.8412,-468.4733 763.2766,-465.2 758.6374,-463.6123 753.6853,-462.5535 748.68,-461.8852"/>
<polygon fill="#000000" stroke="#000000" points="748.6738,-458.3723 738.4145,-461.0176 748.0842,-465.3474 748.6738,-458.3723"/>
<text text-anchor="middle" x="759.7766" y="-469.2" font-family="Times,serif" font-size="14.00" fill="#000000">a</text>
</g>
<!-- 13.41&#45;&gt;11.42 -->
<g id="edge31" class="edge">
<title>13.41&#45;&gt;11.42</title>
<path fill="none" stroke="#000000" d="M846.7029,-507.4197C870.4794,-509.4544 903.1408,-509.7681 930.3351,-501 937.8471,-498.578 945.2435,-494.7493 952.0528,-490.4354"/>
<polygon fill="#000000" stroke="#000000" points="954.0462,-493.3124 960.3283,-484.781 950.0971,-487.5327 954.0462,-493.3124"/>
<text text-anchor="middle" x="897.5705" y="-512.2" font-family="Times,serif" font-size="14.00" fill="#000000">b</text>
</g>
<!-- 13.11 -->
<g id="node25" class="node">
<title>13.11</title>
<ellipse fill="none" stroke="#000000" cx="363.9242" cy="-423" rx="32.5309" ry="32.5309"/>
<text text-anchor="middle" x="363.9242" y="-418.8" font-family="Times,serif" font-size="14.00" fill="#000000">13.11</text>
</g>
<!-- 13.11&#45;&gt;11.22 -->
<g id="edge23" class="edge">
<title>13.11&#45;&gt;11.22</title>
<path fill="none" stroke="#000000" d="M394.6846,-411.3509C408.3717,-406.346 424.7419,-400.6027 439.6888,-396 530.581,-368.0107 569.1073,-396.9255 646.7473,-342 661.9228,-331.2643 674.1362,-314.8917 683.1448,-299.6692"/>
<polygon fill="#000000" stroke="#000000" points="686.23,-301.3233 688.0768,-290.8906 680.1272,-297.8946 686.23,-301.3233"/>
<text text-anchor="middle" x="534.7181" y="-384.2" font-family="Times,serif" font-size="14.00" fill="#000000">b</text>
</g>
<!-- 23.22 -->
<g id="node26" class="node">
<title>23.22</title>
<ellipse fill="none" stroke="#000000" cx="476.4534" cy="-438" rx="32.5309" ry="32.5309"/>
<text text-anchor="middle" x="476.4534" y="-433.8" font-family="Times,serif" font-size="14.00" fill="#000000">23.22</text>
</g>
<!-- 13.11&#45;&gt;23.22 -->
<g id="edge22" class="edge">
<title>13.11&#45;&gt;23.22</title>
<path fill="none" stroke="#000000" d="M396.4723,-427.3386C408.0345,-428.8798 421.2322,-430.6391 433.528,-432.2781"/>
<polygon fill="#000000" stroke="#000000" points="433.2138,-435.7671 443.5886,-433.6192 434.1388,-428.8285 433.2138,-435.7671"/>
<text text-anchor="middle" x="418.1888" y="-434.2" font-family="Times,serif" font-size="14.00" fill="#000000">a</text>
</g>
<!-- 23.22&#45;&gt;21.31 -->
<g id="edge55" class="edge">
<title>23.22&#45;&gt;21.31</title>
<path fill="none" stroke="#000000" d="M507.9097,-428.3093C569.2222,-409.4209 704.675,-367.6923 772.9696,-346.6528"/>
<polygon fill="#000000" stroke="#000000" points="774.0155,-349.9931 782.5418,-343.704 771.9545,-343.3033 774.0155,-349.9931"/>
<text text-anchor="middle" x="643.2473" y="-391.2" font-family="Times,serif" font-size="14.00" fill="#000000">b</text>
</g>
<!-- 23.22&#45;&gt;13.31 -->
<g id="edge54" class="edge">
<title>23.22&#45;&gt;13.31</title>
<path fill="none" stroke="#000000" d="M506.2171,-451.9874C516.4457,-456.9433 527.9124,-462.666 538.2181,-468.2 542.7171,-470.6159 547.3938,-473.224 552.0076,-475.8573"/>
<polygon fill="#000000" stroke="#000000" points="550.3304,-478.9305 560.739,-480.9083 553.8356,-472.8713 550.3304,-478.9305"/>
<text text-anchor="middle" x="534.7181" y="-472.2" font-family="Times,serif" font-size="14.00" fill="#000000">a</text>
</g>
<!-- 23.31&#45;&gt;13.42 -->
<g id="edge56" class="edge">
<title>23.31&#45;&gt;13.42</title>
<path fill="none" stroke="#000000" d="M928.0641,-143.1671C986.5507,-166.5451 1112.4924,-217.0982 1155.3937,-236 1159.4584,-237.7909 1163.6714,-239.6979 1167.8732,-241.6341"/>
<polygon fill="#000000" stroke="#000000" points="1166.4496,-244.8321 1176.9919,-245.8856 1169.4076,-238.4877 1166.4496,-244.8321"/>
<text text-anchor="middle" x="1043.3644" y="-194.2" font-family="Times,serif" font-size="14.00" fill="#000000">a</text>
</g>
<!-- 23.31&#45;&gt;21.42 -->
<g id="edge57" class="edge">
<title>23.31&#45;&gt;21.42</title>
<path fill="none" stroke="#000000" d="M929.4717,-123.3336C977.4396,-112.496 1071.1348,-94 1151.8937,-94 1151.8937,-94 1151.8937,-94 1322.6876,-94 1358.2091,-94 1388.6899,-121.8164 1408.9335,-146.8587"/>
<polygon fill="#000000" stroke="#000000" points="1406.2428,-149.1003 1415.1398,-154.853 1411.7721,-144.8076 1406.2428,-149.1003"/>
<text text-anchor="middle" x="1151.8937" y="-98.2" font-family="Times,serif" font-size="14.00" fill="#000000">b</text>
</g>
<!-- 23.41&#45;&gt;13.42 -->
<g id="edge60" class="edge">
<title>23.41&#45;&gt;13.42</title>
<path fill="none" stroke="#000000" d="M1291.7489,-304.2029C1282.9654,-300.8733 1273.469,-297.018 1264.9229,-293 1260.2837,-290.8188 1255.5054,-288.3958 1250.7947,-285.8928"/>
<polygon fill="#000000" stroke="#000000" points="1252.3281,-282.7424 1241.8736,-281.0236 1248.9744,-288.8868 1252.3281,-282.7424"/>
<text text-anchor="middle" x="1268.4229" y="-299.2" font-family="Times,serif" font-size="14.00" fill="#000000">a</text>
</g>
<!-- 23.41&#45;&gt;21.42 -->
<g id="edge61" class="edge">
<title>23.41&#45;&gt;21.42</title>
<path fill="none" stroke="#000000" d="M1344.3843,-290.1275C1361.3349,-270.6959 1385.1196,-243.4298 1404.0984,-221.6731"/>
<polygon fill="#000000" stroke="#000000" points="1406.9155,-223.768 1410.8516,-213.9315 1401.6405,-219.1665 1406.9155,-223.768"/>
<text text-anchor="middle" x="1376.9522" y="-258.2" font-family="Times,serif" font-size="14.00" fill="#000000">b</text>
</g>
<!-- 21.11 -->
<g id="node29" class="node">
<title>21.11</title>
<ellipse fill="none" stroke="#000000" cx="588.9827" cy="-175" rx="32.5309" ry="32.5309"/>
<text text-anchor="middle" x="588.9827" y="-170.8" font-family="Times,serif" font-size="14.00" fill="#000000">21.11</text>
</g>
<!-- 21.11&#45;&gt;11.22 -->
<g id="edge32" class="edge">
<title>21.11&#45;&gt;11.22</title>
<path fill="none" stroke="#000000" d="M615.082,-194.9463C630.5933,-206.8007 650.4473,-221.9741 667.214,-234.7879"/>
<polygon fill="#000000" stroke="#000000" points="665.0937,-237.5726 675.1644,-240.864 669.3443,-232.0109 665.0937,-237.5726"/>
<text text-anchor="middle" x="643.2473" y="-222.2" font-family="Times,serif" font-size="14.00" fill="#000000">a</text>
</g>
<!-- 21.11&#45;&gt;22.22 -->
<g id="edge33" class="edge">
<title>21.11&#45;&gt;22.22</title>
<path fill="none" stroke="#000000" d="M617.2588,-158.0225C624.4,-154.3146 632.1911,-150.7436 639.7473,-148.2 645.7634,-146.1749 652.2493,-144.5429 658.6775,-143.2301"/>
<polygon fill="#000000" stroke="#000000" points="659.4415,-146.6487 668.6557,-141.4191 658.1914,-139.7612 659.4415,-146.6487"/>
<text text-anchor="middle" x="643.2473" y="-152.2" font-family="Times,serif" font-size="14.00" fill="#000000">b</text>
</g>
<!-- 22.11 -->
<g id="node30" class="node">
<title>22.11</title>
<ellipse fill="none" stroke="#000000" cx="146.8656" cy="-492" rx="32.5309" ry="32.5309"/>
<text text-anchor="middle" x="146.8656" y="-487.8" font-family="Times,serif" font-size="14.00" fill="#000000">22.11</text>
</g>
<!-- 22.11&#45;&gt;12.22 -->
<g id="edge42" class="edge">
<title>22.11&#45;&gt;12.22</title>
<path fill="none" stroke="#000000" d="M176.809,-478.2049C189.0271,-472.576 203.3193,-465.9915 216.3403,-459.9926"/>
<polygon fill="#000000" stroke="#000000" points="217.9313,-463.1133 225.5492,-455.7501 215.0022,-456.7556 217.9313,-463.1133"/>
<text text-anchor="middle" x="201.1303" y="-472.2" font-family="Times,serif" font-size="14.00" fill="#000000">a</text>
</g>
<!-- 22.11&#45;&gt;23.22 -->
<g id="edge43" class="edge">
<title>22.11&#45;&gt;23.22</title>
<path fill="none" stroke="#000000" d="M177.0597,-505.532C230.0527,-527.1088 341.7533,-562.7377 421.6888,-520 438.5996,-510.9586 451.1966,-494.1298 460.0172,-478.0597"/>
<polygon fill="#000000" stroke="#000000" points="463.3411,-479.247 464.7783,-468.7501 457.1088,-476.0596 463.3411,-479.247"/>
<text text-anchor="middle" x="309.6595" y="-543.2" font-family="Times,serif" font-size="14.00" fill="#000000">b</text>
</g>
<!-- 23.11 -->
<g id="node31" class="node">
<title>23.11</title>
<ellipse fill="none" stroke="#000000" cx="146.8656" cy="-186" rx="32.5309" ry="32.5309"/>
<text text-anchor="middle" x="146.8656" y="-181.8" font-family="Times,serif" font-size="14.00" fill="#000000">23.11</text>
</g>
<!-- 23.11&#45;&gt;21.22 -->
<g id="edge53" class="edge">
<title>23.11&#45;&gt;21.22</title>
<path fill="none" stroke="#000000" d="M169.6169,-209.6885C185.8243,-226.5635 207.7712,-249.4145 225.4081,-267.7779"/>
<polygon fill="#000000" stroke="#000000" points="223.2223,-270.5548 232.6736,-275.3427 228.2709,-265.7059 223.2223,-270.5548"/>
<text text-anchor="middle" x="201.1303" y="-249.2" font-family="Times,serif" font-size="14.00" fill="#000000">b</text>
</g>
<!-- 23.11&#45;&gt;13.22 -->
<g id="edge52" class="edge">
<title>23.11&#45;&gt;13.22</title>
<path fill="none" stroke="#000000" d="M172.3109,-165.1335C187.0362,-153.0579 205.75,-137.7116 221.6876,-124.6419"/>
<polygon fill="#000000" stroke="#000000" points="224.2199,-127.0916 229.733,-118.0442 219.7811,-121.6789 224.2199,-127.0916"/>
<text text-anchor="middle" x="201.1303" y="-148.2" font-family="Times,serif" font-size="14.00" fill="#000000">a</text>
</g>
</g>
</svg>
