<?xml version="1.0" encoding="UTF-8" standalone="no"?>
<!DOCTYPE svg PUBLIC "-//W3C//DTD SVG 1.1//EN"
 "http://www.w3.org/Graphics/SVG/1.1/DTD/svg11.dtd">
<!-- Generated by graphviz version 2.40.1 (20161225.0304)
 -->
<!-- Title: graph_1_1 Pages: 1 -->
<svg width="339pt" height="87pt"
 viewBox="0.00 0.00 338.53 86.80" xmlns="http://www.w3.org/2000/svg" xmlns:xlink="http://www.w3.org/1999/xlink">
<g id="graph0" class="graph" transform="scale(1 1) rotate(0) translate(4 82.8)">
<title>graph_1_1</title>
<polygon fill="#ffffff" stroke="transparent" points="-4,4 -4,-82.8 334.5302,-82.8 334.5302,4 -4,4"/>
<g id="node1" class="node">
<title></title>
</g>
<!-- 1 -->
<g id="node2" class="node">
<title>1</title>
<ellipse fill="none" stroke="#000000" cx="136.101" cy="-22" rx="18" ry="18"/>
<ellipse fill="none" stroke="#000000" cx="136.101" cy="-22" rx="22" ry="22"/>
<text text-anchor="middle" x="136.101" y="-17.8" font-family="Times,serif" font-size="14.00" fill="#000000">1</text>
</g>
<!-- &#45;&gt;1 -->
<g id="edge1" class="edge">
<title>&#45;&gt;1</title>
<path fill="none" stroke="#000000" d="M54.2494,-22C69.2234,-22 87.8953,-22 103.6229,-22"/>
<polygon fill="#000000" stroke="#000000" points="103.9592,-25.5001 113.9591,-22 103.9591,-18.5001 103.9592,-25.5001"/>
<text text-anchor="middle" x="84.0505" y="-26.2" font-family="Times,serif" font-size="14.00" fill="#000000">start</text>
</g>
<!-- 1&#45;&gt;1 -->
<g id="edge2" class="edge">
<title>1&#45;&gt;1</title>
<path fill="none" stroke="#000000" d="M128.4183,-42.9908C127.4698,-53.0872 130.0307,-62 136.101,-62 139.9898,-62 142.4383,-58.3422 143.4466,-53.0587"/>
<polygon fill="#000000" stroke="#000000" points="146.947,-53.1023 143.7837,-42.9908 139.9509,-52.868 146.947,-53.1023"/>
<text text-anchor="middle" x="136.101" y="-66.2" font-family="Times,serif" font-size="14.00" fill="#000000">b</text>
</g>
<!-- 2 -->
<g id="node3" class="node">
<title>2</title>
<ellipse fill="none" stroke="#000000" cx="222.3156" cy="-22" rx="18" ry="18"/>
<ellipse fill="none" stroke="#000000" cx="222.3156" cy="-22" rx="22" ry="22"/>
<text text-anchor="middle" x="222.3156" y="-17.8" font-family="Times,serif" font-size="14.00" fill="#000000">2</text>
</g>
<!-- 1&#45;&gt;2 -->
<g id="edge3" class="edge">
<title>1&#45;&gt;2</title>
<path fill="none" stroke="#000000" d="M158.3034,-22C167.9575,-22 179.4574,-22 190.029,-22"/>
<polygon fill="#000000" stroke="#000000" points="190.1885,-25.5001 200.1884,-22 190.1884,-18.5001 190.1885,-25.5001"/>
<text text-anchor="middle" x="179.2083" y="-26.2" font-family="Times,serif" font-size="14.00" fill="#000000">a</text>
</g>
<!-- 2&#45;&gt;2 -->
<g id="edge4" class="edge">
<title>2&#45;&gt;2</title>
<path fill="none" stroke="#000000" d="M214.6329,-42.9908C213.6844,-53.0872 216.2453,-62 222.3156,-62 226.2044,-62 228.6529,-58.3422 229.6612,-53.0587"/>
<polygon fill="#000000" stroke="#000000" points="233.1616,-53.1023 229.9983,-42.9908 226.1655,-52.868 233.1616,-53.1023"/>
<text text-anchor="middle" x="222.3156" y="-66.2" font-family="Times,serif" font-size="14.00" fill="#000000">b</text>
</g>
<!-- 3 -->
<g id="node4" class="node">
<title>3</title>
<ellipse fill="none" stroke="#000000" cx="308.5302" cy="-22" rx="18" ry="18"/>
<ellipse fill="none" stroke="#000000" cx="308.5302" cy="-22" rx="22" ry="22"/>
<text text-anchor="middle" x="308.5302" y="-17.8" font-family="Times,serif" font-size="14.00" fill="#000000">3</text>
</g>
<!-- 2&#45;&gt;3 -->
<g id="edge5" class="edge">
<title>2&#45;&gt;3</title>
<path fill="none" stroke="#000000" d="M244.518,-22C254.1721,-22 265.672,-22 276.2436,-22"/>
<polygon fill="#000000" stroke="#000000" points="276.4031,-25.5001 286.403,-22 276.403,-18.5001 276.4031,-25.5001"/>
<text text-anchor="middle" x="265.4229" y="-26.2" font-family="Times,serif" font-size="14.00" fill="#000000">a</text>
</g>
<!-- 3&#45;&gt;3 -->
<g id="edge6" class="edge">
<title>3&#45;&gt;3</title>
<path fill="none" stroke="#000000" d="M300.8475,-42.9908C299.899,-53.0872 302.4599,-62 308.5302,-62 312.419,-62 314.8675,-58.3422 315.8758,-53.0587"/>
<polygon fill="#000000" stroke="#000000" points="319.3762,-53.1023 316.2129,-42.9908 312.3801,-52.868 319.3762,-53.1023"/>
<text text-anchor="middle" x="308.5302" y="-66.2" font-family="Times,serif" font-size="14.00" fill="#000000">b</text>
</g>
</g>
</svg>
