<?xml version="1.0" encoding="UTF-8" standalone="no"?>
<!DOCTYPE svg PUBLIC "-//W3C//DTD SVG 1.1//EN"
 "http://www.w3.org/Graphics/SVG/1.1/DTD/svg11.dtd">
<!-- Generated by graphviz version 2.40.1 (20161225.0304)
 -->
<!-- Title: graph_2_2 Pages: 1 -->
<svg width="244pt" height="87pt"
 viewBox="0.00 0.00 244.32 86.80" xmlns="http://www.w3.org/2000/svg" xmlns:xlink="http://www.w3.org/1999/xlink">
<g id="graph0" class="graph" transform="scale(1 1) rotate(0) translate(4 82.8)">
<title>graph_2_2</title>
<polygon fill="#ffffff" stroke="transparent" points="-4,4 -4,-82.8 240.3156,-82.8 240.3156,4 -4,4"/>
<g id="node1" class="node">
<title></title>
</g>
<!-- 1 -->
<g id="node2" class="node">
<title>1</title>
<ellipse fill="none" stroke="#000000" cx="136.101" cy="-22" rx="18" ry="18"/>
<ellipse fill="none" stroke="#000000" cx="136.101" cy="-22" rx="22" ry="22"/>
<text text-anchor="middle" x="136.101" y="-17.8" font-family="Times,serif" font-size="14.00" fill="#000000">1</text>
</g>
<!-- &#45;&gt;1 -->
<g id="edge1" class="edge">
<title>&#45;&gt;1</title>
<path fill="none" stroke="#000000" d="M54.2494,-22C69.2234,-22 87.8953,-22 103.6229,-22"/>
<polygon fill="#000000" stroke="#000000" points="103.9592,-25.5001 113.9591,-22 103.9591,-18.5001 103.9592,-25.5001"/>
<text text-anchor="middle" x="84.0505" y="-26.2" font-family="Times,serif" font-size="14.00" fill="#000000">start</text>
</g>
<!-- 1&#45;&gt;1 -->
<g id="edge4" class="edge">
<title>1&#45;&gt;1</title>
<path fill="none" stroke="#000000" d="M128.4183,-42.9908C127.4698,-53.0872 130.0307,-62 136.101,-62 139.9898,-62 142.4383,-58.3422 143.4466,-53.0587"/>
<polygon fill="#000000" stroke="#000000" points="146.947,-53.1023 143.7837,-42.9908 139.9509,-52.868 146.947,-53.1023"/>
<text text-anchor="middle" x="136.101" y="-66.2" font-family="Times,serif" font-size="14.00" fill="#000000">b</text>
</g>
<!-- 2 -->
<g id="node3" class="node">
<title>2</title>
<ellipse fill="none" stroke="#000000" cx="218.3156" cy="-22" rx="18" ry="18"/>
<text text-anchor="middle" x="218.3156" y="-17.8" font-family="Times,serif" font-size="14.00" fill="#000000">2</text>
</g>
<!-- 1&#45;&gt;2 -->
<g id="edge2" class="edge">
<title>1&#45;&gt;2</title>
<path fill="none" stroke="#000000" d="M158.133,-22C167.8763,-22 179.4566,-22 189.8444,-22"/>
<polygon fill="#000000" stroke="#000000" points="190.111,-25.5001 200.111,-22 190.1109,-18.5001 190.111,-25.5001"/>
<text text-anchor="middle" x="179.2083" y="-26.2" font-family="Times,serif" font-size="14.00" fill="#000000">a</text>
</g>
<!-- 2&#45;&gt;1 -->
<g id="edge3" class="edge">
<title>2&#45;&gt;1</title>
<path fill="none" stroke="#000000" d="M203.6811,-11.2066C197.4291,-7.2363 189.8453,-3.2189 182.3156,-1.2 175.578,.6065 168.5811,-.7008 162.1318,-3.3666"/>
<polygon fill="#000000" stroke="#000000" points="160.4176,-.3131 153.1685,-8.0398 163.6538,-6.5202 160.4176,-.3131"/>
<text text-anchor="middle" x="179.2083" y="-5.2" font-family="Times,serif" font-size="14.00" fill="#000000">a</text>
</g>
<!-- 2&#45;&gt;2 -->
<g id="edge5" class="edge">
<title>2&#45;&gt;2</title>
<path fill="none" stroke="#000000" d="M211.582,-39.0373C210.2078,-48.8579 212.4523,-58 218.3156,-58 221.9802,-58 224.2311,-54.4289 225.0685,-49.3529"/>
<polygon fill="#000000" stroke="#000000" points="228.568,-49.0307 225.0492,-39.0373 221.568,-49.0439 228.568,-49.0307"/>
<text text-anchor="middle" x="218.3156" y="-62.2" font-family="Times,serif" font-size="14.00" fill="#000000">b</text>
</g>
</g>
</svg>
