<?xml version="1.0" encoding="UTF-8" standalone="no"?>
<!DOCTYPE svg PUBLIC "-//W3C//DTD SVG 1.1//EN"
 "http://www.w3.org/Graphics/SVG/1.1/DTD/svg11.dtd">
<!-- Generated by graphviz version 2.40.1 (20161225.0304)
 -->
<!-- Title: graph_3_3 Pages: 1 -->
<svg width="1450pt" height="560pt"
 viewBox="0.00 0.00 1449.70 560.06" xmlns="http://www.w3.org/2000/svg" xmlns:xlink="http://www.w3.org/1999/xlink">
<g id="graph0" class="graph" transform="scale(1 1) rotate(0) translate(4 556.0633)">
<title>graph_3_3</title>
<polygon fill="#ffffff" stroke="transparent" points="-4,4 -4,-556.0633 1445.7022,-556.0633 1445.7022,4 -4,4"/>
<g id="node1" class="node">
<title></title>
</g>
<!-- {1,2,4} -->
<g id="node6" class="node">
<title>{1,2,4}</title>
<ellipse fill="none" stroke="#000000" cx="153.7201" cy="-269.5316" rx="39.7386" ry="39.7386"/>
<text text-anchor="middle" x="153.7201" y="-265.3316" font-family="Times,serif" font-size="14.00" fill="#000000">{1,2,4}</text>
</g>
<!-- &#45;&gt;{1,2,4} -->
<g id="edge1" class="edge">
<title>&#45;&gt;{1,2,4}</title>
<path fill="none" stroke="#000000" d="M54.1846,-269.5316C68.6385,-269.5316 86.8695,-269.5316 103.7672,-269.5316"/>
<polygon fill="#000000" stroke="#000000" points="104.0705,-273.0317 114.0704,-269.5316 104.0704,-266.0317 104.0705,-273.0317"/>
<text text-anchor="middle" x="84.0505" y="-273.7316" font-family="Times,serif" font-size="14.00" fill="#000000">start</text>
</g>
<!-- {3,6,7,8,9,12,14,15,18,19,20} -->
<g id="node2" class="node">
<title>{3,6,7,8,9,12,14,15,18,19,20}</title>
<ellipse fill="none" stroke="#000000" cx="366.8709" cy="-421.5316" rx="126.5623" ry="126.5623"/>
<ellipse fill="none" stroke="#000000" cx="366.8709" cy="-421.5316" rx="130.5633" ry="130.5633"/>
<text text-anchor="middle" x="366.8709" y="-417.3316" font-family="Times,serif" font-size="14.00" fill="#000000">{3,6,7,8,9,12,14,15,18,19,20}</text>
</g>
<!-- {7,8,9,12,13,14,15,18,19,20} -->
<g id="node4" class="node">
<title>{7,8,9,12,13,14,15,18,19,20}</title>
<ellipse fill="none" stroke="#000000" cx="667.7345" cy="-268.5316" rx="124.2312" ry="124.2312"/>
<ellipse fill="none" stroke="#000000" cx="667.7345" cy="-268.5316" rx="128.2349" ry="128.2349"/>
<text text-anchor="middle" x="667.7345" y="-264.3316" font-family="Times,serif" font-size="14.00" fill="#000000">{7,8,9,12,13,14,15,18,19,20}</text>
</g>
<!-- {3,6,7,8,9,12,14,15,18,19,20}&#45;&gt;{7,8,9,12,13,14,15,18,19,20} -->
<g id="edge6" class="edge">
<title>{3,6,7,8,9,12,14,15,18,19,20}&#45;&gt;{7,8,9,12,13,14,15,18,19,20}</title>
<path fill="none" stroke="#000000" d="M483.6233,-362.1589C503.5335,-352.0338 524.2736,-341.4867 544.3491,-331.2776"/>
<polygon fill="#000000" stroke="#000000" points="546.1937,-334.2661 553.5208,-326.6134 543.0207,-328.0266 546.1937,-334.2661"/>
<text text-anchor="middle" x="518.5098" y="-348.7316" font-family="Times,serif" font-size="14.00" fill="#000000">c</text>
</g>
<!-- {10} -->
<g id="node7" class="node">
<title>{10}</title>
<ellipse fill="none" stroke="#000000" cx="1270.1879" cy="-291.5316" rx="29.9244" ry="29.9244"/>
<text text-anchor="middle" x="1270.1879" y="-287.3316" font-family="Times,serif" font-size="14.00" fill="#000000">{10}</text>
</g>
<!-- {3,6,7,8,9,12,14,15,18,19,20}&#45;&gt;{10} -->
<g id="edge4" class="edge">
<title>{3,6,7,8,9,12,14,15,18,19,20}&#45;&gt;{10}</title>
<path fill="none" stroke="#000000" d="M484.6449,-478.0621C502.7509,-485.1662 521.4642,-491.6427 539.6171,-496.5316 594.9747,-511.4405 610.4045,-511.5316 667.7345,-511.5316 667.7345,-511.5316 667.7345,-511.5316 1069.8937,-511.5316 1131.3462,-511.5316 1150.0564,-497.9602 1198.0111,-459.5316 1237.6922,-427.7332 1255.9739,-369.9516 1264.1001,-331.1536"/>
<polygon fill="#000000" stroke="#000000" points="1267.5544,-331.7258 1266.0433,-321.2392 1260.6851,-330.3793 1267.5544,-331.7258"/>
<text text-anchor="middle" x="868.8141" y="-515.7316" font-family="Times,serif" font-size="14.00" fill="#000000">a</text>
</g>
<!-- {16} -->
<g id="node8" class="node">
<title>{16}</title>
<ellipse fill="none" stroke="#000000" cx="868.8141" cy="-323.5316" rx="29.9244" ry="29.9244"/>
<text text-anchor="middle" x="868.8141" y="-319.3316" font-family="Times,serif" font-size="14.00" fill="#000000">{16}</text>
</g>
<!-- {3,6,7,8,9,12,14,15,18,19,20}&#45;&gt;{16} -->
<g id="edge5" class="edge">
<title>{3,6,7,8,9,12,14,15,18,19,20}&#45;&gt;{16}</title>
<path fill="none" stroke="#000000" d="M492.1451,-459.7199C582.2024,-479.653 703.525,-490.5311 795.8519,-439.5316 825.6209,-423.0879 844.8938,-388.8404 856.1106,-361.7987"/>
<polygon fill="#000000" stroke="#000000" points="859.4796,-362.7954 859.8832,-352.2083 852.9654,-360.2329 859.4796,-362.7954"/>
<text text-anchor="middle" x="667.7345" y="-479.7316" font-family="Times,serif" font-size="14.00" fill="#000000">b</text>
</g>
<!-- {5,6,7,8,9,12,14,15,18,19,20} -->
<g id="node3" class="node">
<title>{5,6,7,8,9,12,14,15,18,19,20}</title>
<ellipse fill="none" stroke="#000000" cx="366.8709" cy="-130.5316" rx="126.5623" ry="126.5623"/>
<ellipse fill="none" stroke="#000000" cx="366.8709" cy="-130.5316" rx="130.5633" ry="130.5633"/>
<text text-anchor="middle" x="366.8709" y="-126.3316" font-family="Times,serif" font-size="14.00" fill="#000000">{5,6,7,8,9,12,14,15,18,19,20}</text>
</g>
<!-- {5,6,7,8,9,12,14,15,18,19,20}&#45;&gt;{7,8,9,12,13,14,15,18,19,20} -->
<g id="edge9" class="edge">
<title>{5,6,7,8,9,12,14,15,18,19,20}&#45;&gt;{7,8,9,12,13,14,15,18,19,20}</title>
<path fill="none" stroke="#000000" d="M485.7802,-185.0729C504.2713,-193.5544 523.4276,-202.341 542.0628,-210.8886"/>
<polygon fill="#000000" stroke="#000000" points="540.6152,-214.0752 551.1639,-215.0631 543.5336,-207.7125 540.6152,-214.0752"/>
<text text-anchor="middle" x="518.5098" y="-203.7316" font-family="Times,serif" font-size="14.00" fill="#000000">c</text>
</g>
<!-- {5,6,7,8,9,12,14,15,18,19,20}&#45;&gt;{10} -->
<g id="edge7" class="edge">
<title>{5,6,7,8,9,12,14,15,18,19,20}&#45;&gt;{10}</title>
<path fill="none" stroke="#000000" d="M490.4903,-87.7967C544.2685,-72.7599 608.4314,-59.5316 667.7345,-59.5316 667.7345,-59.5316 667.7345,-59.5316 1069.8937,-59.5316 1130.5454,-59.5316 1154.6892,-64.0835 1198.0111,-106.5316 1238.1925,-145.9026 1256.4745,-210.2435 1264.4496,-251.728"/>
<polygon fill="#000000" stroke="#000000" points="1261.0388,-252.5357 1266.2621,-261.7534 1267.9271,-251.2902 1261.0388,-252.5357"/>
<text text-anchor="middle" x="868.8141" y="-63.7316" font-family="Times,serif" font-size="14.00" fill="#000000">a</text>
</g>
<!-- {5,6,7,8,9,12,14,15,18,19,20}&#45;&gt;{16} -->
<g id="edge8" class="edge">
<title>{5,6,7,8,9,12,14,15,18,19,20}&#45;&gt;{16}</title>
<path fill="none" stroke="#000000" d="M495.6524,-108.1213C604.841,-92.2423 750.7003,-79.3896 795.8519,-114.7316 858.5124,-163.7786 802.4407,-217.7774 838.8519,-288.5316 839.7578,-290.2919 840.7686,-292.039 841.8555,-293.7589"/>
<polygon fill="#000000" stroke="#000000" points="839.1307,-295.9658 847.7915,-302.0683 844.8266,-291.8968 839.1307,-295.9658"/>
<text text-anchor="middle" x="667.7345" y="-119.7316" font-family="Times,serif" font-size="14.00" fill="#000000">b</text>
</g>
<!-- {7,8,9,12,13,14,15,18,19,20}&#45;&gt;{7,8,9,12,13,14,15,18,19,20} -->
<g id="edge14" class="edge">
<title>{7,8,9,12,13,14,15,18,19,20}&#45;&gt;{7,8,9,12,13,14,15,18,19,20}</title>
<path fill="none" stroke="#000000" d="M645.2961,-394.7835C649.8488,-406.9436 657.3283,-414.649 667.7345,-414.649 675.214,-414.649 681.1815,-410.6684 685.6371,-403.9142"/>
<polygon fill="#000000" stroke="#000000" points="688.8584,-405.2965 690.173,-394.7835 682.5894,-402.1821 688.8584,-405.2965"/>
<text text-anchor="middle" x="667.7345" y="-418.849" font-family="Times,serif" font-size="14.00" fill="#000000">c</text>
</g>
<!-- {7,8,9,12,13,14,15,18,19,20}&#45;&gt;{10} -->
<g id="edge12" class="edge">
<title>{7,8,9,12,13,14,15,18,19,20}&#45;&gt;{10}</title>
<path fill="none" stroke="#000000" d="M770.2211,-345.8299C819.3744,-378.1646 880.7521,-412.0211 941.7763,-428.5316 1051.706,-458.2739 1100.5068,-487.3709 1198.0111,-428.5316 1232.9508,-407.4472 1251.8322,-363.1982 1261.4144,-330.669"/>
<polygon fill="#000000" stroke="#000000" points="1264.7993,-331.5602 1264.0971,-320.9887 1258.0535,-329.6907 1264.7993,-331.5602"/>
<text text-anchor="middle" x="920.2763" y="-426.7316" font-family="Times,serif" font-size="14.00" fill="#000000">a</text>
</g>
<!-- {7,8,9,12,13,14,15,18,19,20}&#45;&gt;{16} -->
<g id="edge13" class="edge">
<title>{7,8,9,12,13,14,15,18,19,20}&#45;&gt;{16}</title>
<path fill="none" stroke="#000000" d="M791.3591,-302.3459C805.1363,-306.1143 818.3021,-309.7154 829.7442,-312.8451"/>
<polygon fill="#000000" stroke="#000000" points="829.1666,-316.3156 839.7357,-315.578 831.0134,-309.5636 829.1666,-316.3156"/>
<text text-anchor="middle" x="817.3519" y="-313.7316" font-family="Times,serif" font-size="14.00" fill="#000000">b</text>
</g>
<!-- {7,8,9,12,14,15,17,18,19,20} -->
<g id="node5" class="node">
<title>{7,8,9,12,14,15,17,18,19,20}</title>
<ellipse fill="none" stroke="#000000" cx="1069.8937" cy="-291.5316" rx="124.2312" ry="124.2312"/>
<ellipse fill="none" stroke="#000000" cx="1069.8937" cy="-291.5316" rx="128.2349" ry="128.2349"/>
<text text-anchor="middle" x="1069.8937" y="-287.3316" font-family="Times,serif" font-size="14.00" fill="#000000">{7,8,9,12,14,15,17,18,19,20}</text>
</g>
<!-- {7,8,9,12,14,15,17,18,19,20}&#45;&gt;{7,8,9,12,13,14,15,18,19,20} -->
<g id="edge19" class="edge">
<title>{7,8,9,12,14,15,17,18,19,20}&#45;&gt;{7,8,9,12,13,14,15,18,19,20}</title>
<path fill="none" stroke="#000000" d="M943.0128,-271.8967C928.1315,-270.1837 913.139,-268.7257 898.7763,-267.7316 868.8464,-265.6602 836.6834,-264.8675 806.1471,-264.7831"/>
<polygon fill="#000000" stroke="#000000" points="805.8601,-261.2831 795.8593,-264.7808 805.8585,-268.2831 805.8601,-261.2831"/>
<text text-anchor="middle" x="868.8141" y="-271.7316" font-family="Times,serif" font-size="14.00" fill="#000000">c</text>
</g>
<!-- {7,8,9,12,14,15,17,18,19,20}&#45;&gt;{10} -->
<g id="edge17" class="edge">
<title>{7,8,9,12,14,15,17,18,19,20}&#45;&gt;{10}</title>
<path fill="none" stroke="#000000" d="M1198.1601,-291.5316C1209.3768,-291.5316 1220.0814,-291.5316 1229.6458,-291.5316"/>
<polygon fill="#000000" stroke="#000000" points="1229.9264,-295.0317 1239.9264,-291.5316 1229.9264,-288.0317 1229.9264,-295.0317"/>
<text text-anchor="middle" x="1219.1184" y="-295.7316" font-family="Times,serif" font-size="14.00" fill="#000000">a</text>
</g>
<!-- {7,8,9,12,14,15,17,18,19,20}&#45;&gt;{16} -->
<g id="edge18" class="edge">
<title>{7,8,9,12,14,15,17,18,19,20}&#45;&gt;{16}</title>
<path fill="none" stroke="#000000" d="M941.7015,-288.2047C933.1895,-289.5664 924.8126,-291.3758 916.7763,-293.7316 911.7317,-295.2105 906.6959,-297.3773 901.8867,-299.8791"/>
<polygon fill="#000000" stroke="#000000" points="899.8948,-296.9872 892.9748,-305.01 903.3875,-303.0537 899.8948,-296.9872"/>
<text text-anchor="middle" x="920.2763" y="-297.7316" font-family="Times,serif" font-size="14.00" fill="#000000">b</text>
</g>
<!-- {1,2,4}&#45;&gt;{3,6,7,8,9,12,14,15,18,19,20} -->
<g id="edge2" class="edge">
<title>{1,2,4}&#45;&gt;{3,6,7,8,9,12,14,15,18,19,20}</title>
<path fill="none" stroke="#000000" d="M186.0931,-292.6172C204.1947,-305.5256 227.9659,-322.477 252.2962,-339.8272"/>
<polygon fill="#000000" stroke="#000000" points="250.3874,-342.7648 260.5614,-345.7212 254.4517,-337.0655 250.3874,-342.7648"/>
<text text-anchor="middle" x="214.8393" y="-317.7316" font-family="Times,serif" font-size="14.00" fill="#000000">b</text>
</g>
<!-- {1,2,4}&#45;&gt;{5,6,7,8,9,12,14,15,18,19,20} -->
<g id="edge3" class="edge">
<title>{1,2,4}&#45;&gt;{5,6,7,8,9,12,14,15,18,19,20}</title>
<path fill="none" stroke="#000000" d="M187.0249,-247.8129C204.127,-236.6603 226.1079,-222.3261 248.7921,-207.5332"/>
<polygon fill="#000000" stroke="#000000" points="250.7091,-210.4616 257.1736,-202.0675 246.8854,-204.5982 250.7091,-210.4616"/>
<text text-anchor="middle" x="214.8393" y="-232.7316" font-family="Times,serif" font-size="14.00" fill="#000000">c</text>
</g>
<!-- {9,11,12} -->
<g id="node9" class="node">
<title>{9,11,12}</title>
<ellipse fill="none" stroke="#000000" cx="1392.4262" cy="-251.5316" rx="49.0532" ry="49.0532"/>
<text text-anchor="middle" x="1392.4262" y="-247.3316" font-family="Times,serif" font-size="14.00" fill="#000000">{9,11,12}</text>
</g>
<!-- {10}&#45;&gt;{9,11,12} -->
<g id="edge10" class="edge">
<title>{10}&#45;&gt;{9,11,12}</title>
<path fill="none" stroke="#000000" d="M1291.1706,-269.5285C1298.9427,-262.8379 1308.2838,-256.3127 1318.1501,-252.7316 1322.9519,-250.9888 1328.046,-249.7565 1333.2269,-248.9186"/>
<polygon fill="#000000" stroke="#000000" points="1333.7103,-252.3861 1343.2431,-247.7626 1332.9077,-245.4322 1333.7103,-252.3861"/>
<text text-anchor="middle" x="1321.6501" y="-256.7316" font-family="Times,serif" font-size="14.00" fill="#000000">b</text>
</g>
<!-- {16}&#45;&gt;{7,8,9,12,14,15,17,18,19,20} -->
<g id="edge11" class="edge">
<title>{16}&#45;&gt;{7,8,9,12,14,15,17,18,19,20}</title>
<path fill="none" stroke="#000000" d="M898.4841,-318.8099C908.4954,-317.2167 920.4142,-315.3199 933.237,-313.2793"/>
<polygon fill="#000000" stroke="#000000" points="933.8766,-316.7217 943.2022,-311.6934 932.7764,-309.8087 933.8766,-316.7217"/>
<text text-anchor="middle" x="920.2763" y="-319.7316" font-family="Times,serif" font-size="14.00" fill="#000000">a</text>
</g>
<!-- {9,11,12}&#45;&gt;{7,8,9,12,13,14,15,18,19,20} -->
<g id="edge16" class="edge">
<title>{9,11,12}&#45;&gt;{7,8,9,12,13,14,15,18,19,20}</title>
<path fill="none" stroke="#000000" d="M1370.9524,-207.1258C1350.4625,-171.8939 1315.949,-128.5316 1270.1879,-128.5316 920.2763,-128.5316 920.2763,-128.5316 920.2763,-128.5316 867.9918,-128.5316 816.3922,-151.7692 773.5977,-179.3099"/>
<polygon fill="#000000" stroke="#000000" points="771.5836,-176.4455 765.1586,-184.8698 775.4348,-182.2909 771.5836,-176.4455"/>
<text text-anchor="middle" x="1069.8937" y="-132.7316" font-family="Times,serif" font-size="14.00" fill="#000000">c</text>
</g>
<!-- {9,11,12}&#45;&gt;{10} -->
<g id="edge15" class="edge">
<title>{9,11,12}&#45;&gt;{10}</title>
<path fill="none" stroke="#000000" d="M1345.2941,-266.9547C1333.1816,-270.9182 1320.2947,-275.1352 1308.6778,-278.9366"/>
<polygon fill="#000000" stroke="#000000" points="1307.2629,-275.7169 1298.8473,-282.1534 1309.44,-282.3698 1307.2629,-275.7169"/>
<text text-anchor="middle" x="1321.6501" y="-278.7316" font-family="Times,serif" font-size="14.00" fill="#000000">a</text>
</g>
</g>
</svg>
