<?xml version="1.0" encoding="UTF-8" standalone="no"?>
<!DOCTYPE svg PUBLIC "-//W3C//DTD SVG 1.1//EN"
 "http://www.w3.org/Graphics/SVG/1.1/DTD/svg11.dtd">
<!-- Generated by graphviz version 2.40.1 (20161225.0304)
 -->
<!-- Title: graph_3_2 Pages: 1 -->
<svg width="985pt" height="303pt"
 viewBox="0.00 0.00 984.86 303.45" xmlns="http://www.w3.org/2000/svg" xmlns:xlink="http://www.w3.org/1999/xlink">
<g id="graph0" class="graph" transform="scale(1 1) rotate(0) translate(4 299.4518)">
<title>graph_3_2</title>
<polygon fill="#ffffff" stroke="transparent" points="-4,4 -4,-299.4518 980.8604,-299.4518 980.8604,4 -4,4"/>
<g id="node1" class="node">
<title></title>
</g>
<!-- 0 -->
<g id="node5" class="node">
<title>0</title>
<ellipse fill="none" stroke="#000000" cx="132.101" cy="-123.6191" rx="18" ry="18"/>
<text text-anchor="middle" x="132.101" y="-119.4191" font-family="Times,serif" font-size="14.00" fill="#000000">0</text>
</g>
<!-- &#45;&gt;0 -->
<g id="edge1" class="edge">
<title>&#45;&gt;0</title>
<path fill="none" stroke="#000000" d="M54.0661,-123.6191C69.3856,-123.6191 88.5175,-123.6191 104.0034,-123.6191"/>
<polygon fill="#000000" stroke="#000000" points="104.0503,-127.1192 114.0503,-123.6191 104.0503,-120.1192 104.0503,-127.1192"/>
<text text-anchor="middle" x="84.0505" y="-127.8191" font-family="Times,serif" font-size="14.00" fill="#000000">start</text>
</g>
<!-- {1,2,9,10,13} -->
<g id="node2" class="node">
<title>{1,2,9,10,13}</title>
<ellipse fill="none" stroke="#000000" cx="260.0771" cy="-123.6191" rx="63.5379" ry="63.5379"/>
<ellipse fill="none" stroke="#000000" cx="260.0771" cy="-123.6191" rx="67.5238" ry="67.5238"/>
<text text-anchor="middle" x="260.0771" y="-119.4191" font-family="Times,serif" font-size="14.00" fill="#000000">{1,2,9,10,13}</text>
</g>
<!-- {3,4,7,11} -->
<g id="node6" class="node">
<title>{3,4,7,11}</title>
<ellipse fill="none" stroke="#000000" cx="421.7435" cy="-123.6191" rx="51.8813" ry="51.8813"/>
<text text-anchor="middle" x="421.7435" y="-119.4191" font-family="Times,serif" font-size="14.00" fill="#000000">{3,4,7,11}</text>
</g>
<!-- {1,2,9,10,13}&#45;&gt;{3,4,7,11} -->
<g id="edge3" class="edge">
<title>{1,2,9,10,13}&#45;&gt;{3,4,7,11}</title>
<path fill="none" stroke="#000000" d="M328.1696,-123.6191C338.6543,-123.6191 349.4323,-123.6191 359.774,-123.6191"/>
<polygon fill="#000000" stroke="#000000" points="359.9433,-127.1192 369.9433,-123.6191 359.9433,-120.1192 359.9433,-127.1192"/>
<text text-anchor="middle" x="348.9459" y="-127.8191" font-family="Times,serif" font-size="14.00" fill="#000000">a</text>
</g>
<!-- {2,8,9,10,12,13} -->
<g id="node3" class="node">
<title>{2,8,9,10,12,13}</title>
<ellipse fill="none" stroke="#000000" cx="596.2665" cy="-215.6191" rx="75.6741" ry="75.6741"/>
<ellipse fill="none" stroke="#000000" cx="596.2665" cy="-215.6191" rx="79.6657" ry="79.6657"/>
<text text-anchor="middle" x="596.2665" y="-211.4191" font-family="Times,serif" font-size="14.00" fill="#000000">{2,8,9,10,12,13}</text>
</g>
<!-- {2,8,9,10,12,13}&#45;&gt;{3,4,7,11} -->
<g id="edge7" class="edge">
<title>{2,8,9,10,12,13}&#45;&gt;{3,4,7,11}</title>
<path fill="none" stroke="#000000" d="M527.8714,-173.8815C518.0894,-168.3029 508.0751,-162.7964 498.4338,-157.8191 492.1107,-154.5549 485.4107,-151.292 478.7074,-148.1488"/>
<polygon fill="#000000" stroke="#000000" points="480.1462,-144.9581 469.5996,-143.9477 477.2142,-151.3145 480.1462,-144.9581"/>
<text text-anchor="middle" x="494.9338" y="-161.8191" font-family="Times,serif" font-size="14.00" fill="#000000">a</text>
</g>
<!-- {2,8,9,10,13} -->
<g id="node4" class="node">
<title>{2,8,9,10,13}</title>
<ellipse fill="none" stroke="#000000" cx="909.0989" cy="-73.6191" rx="63.5379" ry="63.5379"/>
<ellipse fill="none" stroke="#000000" cx="909.0989" cy="-73.6191" rx="67.5238" ry="67.5238"/>
<text text-anchor="middle" x="909.0989" y="-69.4191" font-family="Times,serif" font-size="14.00" fill="#000000">{2,8,9,10,13}</text>
</g>
<!-- {2,8,9,10,13}&#45;&gt;{3,4,7,11} -->
<g id="edge10" class="edge">
<title>{2,8,9,10,13}&#45;&gt;{3,4,7,11}</title>
<path fill="none" stroke="#000000" d="M841.7962,-83.1931C827.4657,-85.1029 812.4117,-87.0128 798.3374,-88.6191 687.5841,-101.2596 558.1104,-112.5268 483.4499,-118.6833"/>
<polygon fill="#000000" stroke="#000000" points="482.9665,-115.2111 473.2865,-119.5177 483.5394,-122.1876 482.9665,-115.2111"/>
<text text-anchor="middle" x="697.5992" y="-102.8191" font-family="Times,serif" font-size="14.00" fill="#000000">a</text>
</g>
<!-- 0&#45;&gt;{1,2,9,10,13} -->
<g id="edge2" class="edge">
<title>0&#45;&gt;{1,2,9,10,13}</title>
<path fill="none" stroke="#000000" d="M150.1654,-123.6191C158.9394,-123.6191 170.1481,-123.6191 182.0376,-123.6191"/>
<polygon fill="#000000" stroke="#000000" points="182.1465,-127.1192 192.1464,-123.6191 182.1464,-120.1192 182.1465,-127.1192"/>
<text text-anchor="middle" x="171.2083" y="-127.8191" font-family="Times,serif" font-size="14.00" fill="#000000">a</text>
</g>
<!-- {3,4,7,11}&#45;&gt;{2,8,9,10,12,13} -->
<g id="edge5" class="edge">
<title>{3,4,7,11}&#45;&gt;{2,8,9,10,12,13}</title>
<path fill="none" stroke="#000000" d="M460.6962,-157.9965C470.3223,-165.4437 480.9048,-172.8163 491.4338,-178.6191 497.453,-181.9365 503.826,-185.0468 510.3379,-187.9436"/>
<polygon fill="#000000" stroke="#000000" points="509.381,-191.34 519.953,-192.0341 512.1213,-184.8987 509.381,-191.34"/>
<text text-anchor="middle" x="494.9338" y="-184.8191" font-family="Times,serif" font-size="14.00" fill="#000000">b</text>
</g>
<!-- 5 -->
<g id="node7" class="node">
<title>5</title>
<ellipse fill="none" stroke="#000000" cx="596.2665" cy="-61.6191" rx="18" ry="18"/>
<text text-anchor="middle" x="596.2665" y="-57.4191" font-family="Times,serif" font-size="14.00" fill="#000000">5</text>
</g>
<!-- {3,4,7,11}&#45;&gt;5 -->
<g id="edge4" class="edge">
<title>{3,4,7,11}&#45;&gt;5</title>
<path fill="none" stroke="#000000" d="M462.8212,-91.6882C471.8453,-85.9431 481.6419,-80.591 491.4338,-76.8191 516.2446,-67.2621 546.4667,-63.6518 568.0751,-62.3195"/>
<polygon fill="#000000" stroke="#000000" points="568.4057,-65.8076 578.2221,-61.8217 568.0626,-58.816 568.4057,-65.8076"/>
<text text-anchor="middle" x="494.9338" y="-81.8191" font-family="Times,serif" font-size="14.00" fill="#000000">a</text>
</g>
<!-- {4,6,7} -->
<g id="node8" class="node">
<title>{4,6,7}</title>
<ellipse fill="none" stroke="#000000" cx="758.7183" cy="-39.6191" rx="39.7386" ry="39.7386"/>
<text text-anchor="middle" x="758.7183" y="-35.4191" font-family="Times,serif" font-size="14.00" fill="#000000">{4,6,7}</text>
</g>
<!-- 5&#45;&gt;{4,6,7} -->
<g id="edge6" class="edge">
<title>5&#45;&gt;{4,6,7}</title>
<path fill="none" stroke="#000000" d="M614.2724,-59.1807C637.0079,-56.1017 677.0372,-50.6808 709.1994,-46.3252"/>
<polygon fill="#000000" stroke="#000000" points="709.8935,-49.7633 719.3333,-44.9528 708.9541,-42.8266 709.8935,-49.7633"/>
<text text-anchor="middle" x="697.5992" y="-52.8191" font-family="Times,serif" font-size="14.00" fill="#000000">b</text>
</g>
<!-- {4,6,7}&#45;&gt;{2,8,9,10,13} -->
<g id="edge9" class="edge">
<title>{4,6,7}&#45;&gt;{2,8,9,10,13}</title>
<path fill="none" stroke="#000000" d="M797.445,-48.375C808.3633,-50.8435 820.6349,-53.618 832.9411,-56.4004"/>
<polygon fill="#000000" stroke="#000000" points="832.267,-59.8363 842.7927,-58.6278 833.8108,-53.0086 832.267,-59.8363"/>
<text text-anchor="middle" x="819.8374" y="-57.8191" font-family="Times,serif" font-size="14.00" fill="#000000">b</text>
</g>
<!-- {4,6,7}&#45;&gt;5 -->
<g id="edge8" class="edge">
<title>{4,6,7}&#45;&gt;5</title>
<path fill="none" stroke="#000000" d="M719.8298,-30.5462C713.5978,-29.4132 707.1945,-28.4369 701.0992,-27.8191 672.6854,-24.9395 641.7451,-36.9234 620.8967,-47.4084"/>
<polygon fill="#000000" stroke="#000000" points="619.0088,-44.4472 611.8007,-52.2122 622.2778,-50.637 619.0088,-44.4472"/>
<text text-anchor="middle" x="697.5992" y="-32.8191" font-family="Times,serif" font-size="14.00" fill="#000000">a</text>
</g>
</g>
</svg>
