<?xml version="1.0" encoding="UTF-8" standalone="no"?>
<!DOCTYPE svg PUBLIC "-//W3C//DTD SVG 1.1//EN"
 "http://www.w3.org/Graphics/SVG/1.1/DTD/svg11.dtd">
<!-- Generated by graphviz version 2.40.1 (20161225.0304)
 -->
<!-- Title: graph_2_1 Pages: 1 -->
<svg width="323pt" height="87pt"
 viewBox="0.00 0.00 322.53 86.80" xmlns="http://www.w3.org/2000/svg" xmlns:xlink="http://www.w3.org/1999/xlink">
<g id="graph0" class="graph" transform="scale(1 1) rotate(0) translate(4 82.8)">
<title>graph_2_1</title>
<polygon fill="#ffffff" stroke="transparent" points="-4,4 -4,-82.8 318.5302,-82.8 318.5302,4 -4,4"/>
<g id="node1" class="node">
<title></title>
</g>
<!-- 1 -->
<g id="node3" class="node">
<title>1</title>
<ellipse fill="none" stroke="#000000" cx="132.101" cy="-22" rx="18" ry="18"/>
<text text-anchor="middle" x="132.101" y="-17.8" font-family="Times,serif" font-size="14.00" fill="#000000">1</text>
</g>
<!-- &#45;&gt;1 -->
<g id="edge1" class="edge">
<title>&#45;&gt;1</title>
<path fill="none" stroke="#000000" d="M54.0661,-22C69.3856,-22 88.5175,-22 104.0034,-22"/>
<polygon fill="#000000" stroke="#000000" points="104.0503,-25.5001 114.0503,-22 104.0503,-18.5001 104.0503,-25.5001"/>
<text text-anchor="middle" x="84.0505" y="-26.2" font-family="Times,serif" font-size="14.00" fill="#000000">start</text>
</g>
<!-- 3 -->
<g id="node2" class="node">
<title>3</title>
<ellipse fill="none" stroke="#000000" cx="292.5302" cy="-22" rx="18" ry="18"/>
<ellipse fill="none" stroke="#000000" cx="292.5302" cy="-22" rx="22" ry="22"/>
<text text-anchor="middle" x="292.5302" y="-17.8" font-family="Times,serif" font-size="14.00" fill="#000000">3</text>
</g>
<!-- 3&#45;&gt;3 -->
<g id="edge6" class="edge">
<title>3&#45;&gt;3</title>
<path fill="none" stroke="#000000" d="M284.8475,-42.9908C283.899,-53.0872 286.4599,-62 292.5302,-62 296.419,-62 298.8675,-58.3422 299.8758,-53.0587"/>
<polygon fill="#000000" stroke="#000000" points="303.3762,-53.1023 300.2129,-42.9908 296.3801,-52.868 303.3762,-53.1023"/>
<text text-anchor="middle" x="292.5302" y="-66.2" font-family="Times,serif" font-size="14.00" fill="#000000">a, b</text>
</g>
<!-- 1&#45;&gt;1 -->
<g id="edge3" class="edge">
<title>1&#45;&gt;1</title>
<path fill="none" stroke="#000000" d="M125.3674,-39.0373C123.9932,-48.8579 126.2377,-58 132.101,-58 135.7656,-58 138.0165,-54.4289 138.8539,-49.3529"/>
<polygon fill="#000000" stroke="#000000" points="142.3534,-49.0307 138.8346,-39.0373 135.3534,-49.0439 142.3534,-49.0307"/>
<text text-anchor="middle" x="132.101" y="-62.2" font-family="Times,serif" font-size="14.00" fill="#000000">b</text>
</g>
<!-- 2 -->
<g id="node4" class="node">
<title>2</title>
<ellipse fill="none" stroke="#000000" cx="210.3156" cy="-22" rx="18" ry="18"/>
<text text-anchor="middle" x="210.3156" y="-17.8" font-family="Times,serif" font-size="14.00" fill="#000000">2</text>
</g>
<!-- 1&#45;&gt;2 -->
<g id="edge2" class="edge">
<title>1&#45;&gt;2</title>
<path fill="none" stroke="#000000" d="M150.2416,-22C159.7184,-22 171.5274,-22 182.1612,-22"/>
<polygon fill="#000000" stroke="#000000" points="182.2734,-25.5001 192.2734,-22 182.2733,-18.5001 182.2734,-25.5001"/>
<text text-anchor="middle" x="171.2083" y="-26.2" font-family="Times,serif" font-size="14.00" fill="#000000">a</text>
</g>
<!-- 2&#45;&gt;3 -->
<g id="edge4" class="edge">
<title>2&#45;&gt;3</title>
<path fill="none" stroke="#000000" d="M228.5617,-22C237.7865,-22 249.2635,-22 259.939,-22"/>
<polygon fill="#000000" stroke="#000000" points="260.2344,-25.5001 270.2343,-22 260.2343,-18.5001 260.2344,-25.5001"/>
<text text-anchor="middle" x="249.4229" y="-26.2" font-family="Times,serif" font-size="14.00" fill="#000000">a</text>
</g>
<!-- 2&#45;&gt;2 -->
<g id="edge5" class="edge">
<title>2&#45;&gt;2</title>
<path fill="none" stroke="#000000" d="M203.582,-39.0373C202.2078,-48.8579 204.4523,-58 210.3156,-58 213.9802,-58 216.2311,-54.4289 217.0685,-49.3529"/>
<polygon fill="#000000" stroke="#000000" points="220.568,-49.0307 217.0492,-39.0373 213.568,-49.0439 220.568,-49.0307"/>
<text text-anchor="middle" x="210.3156" y="-62.2" font-family="Times,serif" font-size="14.00" fill="#000000">b</text>
</g>
</g>
</svg>
