<?xml version="1.0" encoding="UTF-8" standalone="no"?>
<!DOCTYPE svg PUBLIC "-//W3C//DTD SVG 1.1//EN"
 "http://www.w3.org/Graphics/SVG/1.1/DTD/svg11.dtd">
<!-- Generated by graphviz version 2.40.1 (20161225.0304)
 -->
<!-- Title: graph_3_2 Pages: 1 -->
<svg width="614pt" height="182pt"
 viewBox="0.00 0.00 614.33 182.15" xmlns="http://www.w3.org/2000/svg" xmlns:xlink="http://www.w3.org/1999/xlink">
<g id="graph0" class="graph" transform="scale(1 1) rotate(0) translate(4 178.1508)">
<title>graph_3_2</title>
<polygon fill="#ffffff" stroke="transparent" points="-4,4 -4,-178.1508 610.3324,-178.1508 610.3324,4 -4,4"/>
<g id="node1" class="node">
<title></title>
</g>
<!-- 0 -->
<g id="node3" class="node">
<title>0</title>
<ellipse fill="none" stroke="#000000" cx="132.101" cy="-87.0754" rx="18" ry="18"/>
<text text-anchor="middle" x="132.101" y="-82.8754" font-family="Times,serif" font-size="14.00" fill="#000000">0</text>
</g>
<!-- &#45;&gt;0 -->
<g id="edge1" class="edge">
<title>&#45;&gt;0</title>
<path fill="none" stroke="#000000" d="M54.0661,-87.0754C69.3856,-87.0754 88.5175,-87.0754 104.0034,-87.0754"/>
<polygon fill="#000000" stroke="#000000" points="104.0503,-90.5755 114.0503,-87.0754 104.0503,-83.5755 104.0503,-90.5755"/>
<text text-anchor="middle" x="84.0505" y="-91.2754" font-family="Times,serif" font-size="14.00" fill="#000000">start</text>
</g>
<!-- {1,2,8,9,10,12,13} -->
<g id="node2" class="node">
<title>{1,2,8,9,10,12,13}</title>
<ellipse fill="none" stroke="#000000" cx="279.391" cy="-87.0754" rx="83.1474" ry="83.1474"/>
<ellipse fill="none" stroke="#000000" cx="279.391" cy="-87.0754" rx="87.1508" ry="87.1508"/>
<text text-anchor="middle" x="279.391" y="-82.8754" font-family="Times,serif" font-size="14.00" fill="#000000">{1,2,8,9,10,12,13}</text>
</g>
<!-- {3,4,6,7,11} -->
<g id="node4" class="node">
<title>{3,4,6,7,11}</title>
<ellipse fill="none" stroke="#000000" cx="468.3994" cy="-87.0754" rx="58.8661" ry="58.8661"/>
<text text-anchor="middle" x="468.3994" y="-82.8754" font-family="Times,serif" font-size="14.00" fill="#000000">{3,4,6,7,11}</text>
</g>
<!-- {1,2,8,9,10,12,13}&#45;&gt;{3,4,6,7,11} -->
<g id="edge3" class="edge">
<title>{1,2,8,9,10,12,13}&#45;&gt;{3,4,6,7,11}</title>
<path fill="none" stroke="#000000" d="M366.7028,-87.0754C377.5119,-87.0754 388.4472,-87.0754 398.9387,-87.0754"/>
<polygon fill="#000000" stroke="#000000" points="399.2612,-90.5755 409.2612,-87.0754 399.2612,-83.5755 399.2612,-90.5755"/>
<text text-anchor="middle" x="387.9664" y="-91.2754" font-family="Times,serif" font-size="14.00" fill="#000000">a</text>
</g>
<!-- 0&#45;&gt;{1,2,8,9,10,12,13} -->
<g id="edge2" class="edge">
<title>0&#45;&gt;{1,2,8,9,10,12,13}</title>
<path fill="none" stroke="#000000" d="M150.1616,-87.0754C158.8036,-87.0754 169.887,-87.0754 181.9217,-87.0754"/>
<polygon fill="#000000" stroke="#000000" points="182.2219,-90.5755 192.2219,-87.0754 182.2219,-83.5755 182.2219,-90.5755"/>
<text text-anchor="middle" x="171.2083" y="-91.2754" font-family="Times,serif" font-size="14.00" fill="#000000">a</text>
</g>
<!-- {3,4,6,7,11}&#45;&gt;{1,2,8,9,10,12,13} -->
<g id="edge4" class="edge">
<title>{3,4,6,7,11}&#45;&gt;{1,2,8,9,10,12,13}</title>
<path fill="none" stroke="#000000" d="M411.6045,-69.9264C404.8692,-68.4273 398.0498,-67.1497 391.4664,-66.2754 385.8876,-65.5345 380.1653,-65.2149 374.4002,-65.2322"/>
<polygon fill="#000000" stroke="#000000" points="373.8653,-61.7491 363.9985,-65.6087 374.1186,-68.7446 373.8653,-61.7491"/>
<text text-anchor="middle" x="387.9664" y="-70.2754" font-family="Times,serif" font-size="14.00" fill="#000000">b</text>
</g>
<!-- 5 -->
<g id="node5" class="node">
<title>5</title>
<ellipse fill="none" stroke="#000000" cx="588.3324" cy="-87.0754" rx="18" ry="18"/>
<text text-anchor="middle" x="588.3324" y="-82.8754" font-family="Times,serif" font-size="14.00" fill="#000000">5</text>
</g>
<!-- {3,4,6,7,11}&#45;&gt;5 -->
<g id="edge6" class="edge">
<title>{3,4,6,7,11}&#45;&gt;5</title>
<path fill="none" stroke="#000000" d="M527.6632,-87.0754C538.8972,-87.0754 550.1642,-87.0754 559.8866,-87.0754"/>
<polygon fill="#000000" stroke="#000000" points="560.1233,-90.5755 570.1233,-87.0754 560.1232,-83.5755 560.1233,-90.5755"/>
<text text-anchor="middle" x="548.8324" y="-91.2754" font-family="Times,serif" font-size="14.00" fill="#000000">a</text>
</g>
<!-- 5&#45;&gt;{3,4,6,7,11} -->
<g id="edge5" class="edge">
<title>5&#45;&gt;{3,4,6,7,11}</title>
<path fill="none" stroke="#000000" d="M573.2136,-77.1104C567.0107,-73.5859 559.591,-70.0566 552.3324,-68.2754 546.4793,-66.8391 540.3856,-66.3229 534.2726,-66.4725"/>
<polygon fill="#000000" stroke="#000000" points="533.689,-63.0083 524.0058,-67.3078 534.2567,-69.9853 533.689,-63.0083"/>
<text text-anchor="middle" x="548.8324" y="-72.2754" font-family="Times,serif" font-size="14.00" fill="#000000">b</text>
</g>
</g>
</svg>
