<?xml version="1.0" encoding="UTF-8" standalone="no"?>
<!DOCTYPE svg PUBLIC "-//W3C//DTD SVG 1.1//EN"
 "http://www.w3.org/Graphics/SVG/1.1/DTD/svg11.dtd">
<!-- Generated by graphviz version 2.40.1 (20161225.0304)
 -->
<!-- Title: graph_1_2 Pages: 1 -->
<svg width="525pt" height="209pt"
 viewBox="0.00 0.00 525.04 209.39" xmlns="http://www.w3.org/2000/svg" xmlns:xlink="http://www.w3.org/1999/xlink">
<g id="graph0" class="graph" transform="scale(1 1) rotate(0) translate(4 205.3869)">
<title>graph_1_2</title>
<polygon fill="#ffffff" stroke="transparent" points="-4,4 -4,-205.3869 521.0355,-205.3869 521.0355,4 -4,4"/>
<g id="node1" class="node">
<title></title>
</g>
<!-- 11 -->
<g id="node5" class="node">
<title>11</title>
<ellipse fill="none" stroke="#000000" cx="134.7945" cy="-103.6935" rx="20.8887" ry="20.8887"/>
<text text-anchor="middle" x="134.7945" y="-99.4935" font-family="Times,serif" font-size="14.00" fill="#000000">11</text>
</g>
<!-- &#45;&gt;11 -->
<g id="edge1" class="edge">
<title>&#45;&gt;11</title>
<path fill="none" stroke="#000000" d="M54.2011,-103.6935C69.3023,-103.6935 88.1443,-103.6935 103.8118,-103.6935"/>
<polygon fill="#000000" stroke="#000000" points="104.0665,-107.1936 114.0664,-103.6935 104.0664,-100.1936 104.0665,-107.1936"/>
<text text-anchor="middle" x="84.0505" y="-107.8935" font-family="Times,serif" font-size="14.00" fill="#000000">start</text>
</g>
<!-- 13 -->
<g id="node2" class="node">
<title>13</title>
<ellipse fill="none" stroke="#000000" cx="307.5683" cy="-24.6935" rx="20.8568" ry="20.8568"/>
<ellipse fill="none" stroke="#000000" cx="307.5683" cy="-24.6935" rx="24.8884" ry="24.8884"/>
<text text-anchor="middle" x="307.5683" y="-20.4935" font-family="Times,serif" font-size="14.00" fill="#000000">13</text>
</g>
<!-- 13&#45;&gt;13 -->
<g id="edge7" class="edge">
<title>13&#45;&gt;13</title>
<path fill="none" stroke="#000000" d="M299.078,-47.9685C298.2694,-58.3813 301.0995,-67.3869 307.5683,-67.3869 311.7123,-67.3869 314.363,-63.691 315.5205,-58.2969"/>
<polygon fill="#000000" stroke="#000000" points="319.0334,-58.137 316.0585,-47.9685 312.0429,-57.7728 319.0334,-58.137"/>
<text text-anchor="middle" x="307.5683" y="-71.5869" font-family="Times,serif" font-size="14.00" fill="#000000">b</text>
</g>
<!-- 23 -->
<g id="node3" class="node">
<title>23</title>
<ellipse fill="none" stroke="#000000" cx="399.9552" cy="-45.6935" rx="20.8568" ry="20.8568"/>
<ellipse fill="none" stroke="#000000" cx="399.9552" cy="-45.6935" rx="24.8884" ry="24.8884"/>
<text text-anchor="middle" x="399.9552" y="-41.4935" font-family="Times,serif" font-size="14.00" fill="#000000">23</text>
</g>
<!-- 13&#45;&gt;23 -->
<g id="edge6" class="edge">
<title>13&#45;&gt;23</title>
<path fill="none" stroke="#000000" d="M331.8418,-30.211C342.2386,-32.5742 354.5638,-35.3758 365.8527,-37.9418"/>
<polygon fill="#000000" stroke="#000000" points="365.3166,-41.4092 375.8437,-40.2128 366.8683,-34.5833 365.3166,-41.4092"/>
<text text-anchor="middle" x="353.7617" y="-40.8935" font-family="Times,serif" font-size="14.00" fill="#000000">a</text>
</g>
<!-- 23&#45;&gt;23 -->
<g id="edge13" class="edge">
<title>23&#45;&gt;23</title>
<path fill="none" stroke="#000000" d="M391.4649,-68.9685C390.6563,-79.3813 393.4864,-88.3869 399.9552,-88.3869 404.0992,-88.3869 406.7499,-84.691 407.9074,-79.2969"/>
<polygon fill="#000000" stroke="#000000" points="411.4203,-79.137 408.4454,-68.9685 404.4298,-78.7728 411.4203,-79.137"/>
<text text-anchor="middle" x="399.9552" y="-92.5869" font-family="Times,serif" font-size="14.00" fill="#000000">b</text>
</g>
<!-- 33 -->
<g id="node4" class="node">
<title>33</title>
<ellipse fill="none" stroke="#000000" cx="492.3421" cy="-93.6935" rx="20.8568" ry="20.8568"/>
<ellipse fill="none" stroke="#000000" cx="492.3421" cy="-93.6935" rx="24.8884" ry="24.8884"/>
<text text-anchor="middle" x="492.3421" y="-89.4935" font-family="Times,serif" font-size="14.00" fill="#000000">33</text>
</g>
<!-- 23&#45;&gt;33 -->
<g id="edge12" class="edge">
<title>23&#45;&gt;33</title>
<path fill="none" stroke="#000000" d="M422.3195,-57.3129C434.008,-63.3857 448.4995,-70.9149 461.2615,-77.5454"/>
<polygon fill="#000000" stroke="#000000" points="459.6963,-80.6764 470.1837,-82.181 462.9236,-74.4647 459.6963,-80.6764"/>
<text text-anchor="middle" x="446.1486" y="-75.8935" font-family="Times,serif" font-size="14.00" fill="#000000">a</text>
</g>
<!-- 33&#45;&gt;33 -->
<g id="edge16" class="edge">
<title>33&#45;&gt;33</title>
<path fill="none" stroke="#000000" d="M483.8518,-116.9685C483.0432,-127.3813 485.8733,-136.3869 492.3421,-136.3869 496.4861,-136.3869 499.1368,-132.691 500.2943,-127.2969"/>
<polygon fill="#000000" stroke="#000000" points="503.8072,-127.137 500.8323,-116.9685 496.8167,-126.7728 503.8072,-127.137"/>
<text text-anchor="middle" x="492.3421" y="-140.5869" font-family="Times,serif" font-size="14.00" fill="#000000">b</text>
</g>
<!-- 21 -->
<g id="node6" class="node">
<title>21</title>
<ellipse fill="none" stroke="#000000" cx="219.1814" cy="-133.6935" rx="20.8887" ry="20.8887"/>
<text text-anchor="middle" x="219.1814" y="-129.4935" font-family="Times,serif" font-size="14.00" fill="#000000">21</text>
</g>
<!-- 11&#45;&gt;21 -->
<g id="edge2" class="edge">
<title>11&#45;&gt;21</title>
<path fill="none" stroke="#000000" d="M154.3666,-110.6515C164.9412,-114.4108 178.2073,-119.127 189.9786,-123.3117"/>
<polygon fill="#000000" stroke="#000000" points="188.8283,-126.6173 199.423,-126.6693 191.1731,-120.0217 188.8283,-126.6173"/>
<text text-anchor="middle" x="176.9879" y="-122.8935" font-family="Times,serif" font-size="14.00" fill="#000000">a</text>
</g>
<!-- 12 -->
<g id="node7" class="node">
<title>12</title>
<ellipse fill="none" stroke="#000000" cx="219.1814" cy="-74.6935" rx="20.8887" ry="20.8887"/>
<text text-anchor="middle" x="219.1814" y="-70.4935" font-family="Times,serif" font-size="14.00" fill="#000000">12</text>
</g>
<!-- 11&#45;&gt;12 -->
<g id="edge3" class="edge">
<title>11&#45;&gt;12</title>
<path fill="none" stroke="#000000" d="M154.4501,-96.5913C160.5424,-94.4147 167.2844,-92.0312 173.4879,-89.8935 178.5935,-88.134 184.0317,-86.2948 189.3096,-84.528"/>
<polygon fill="#000000" stroke="#000000" points="190.7484,-87.738 199.1319,-81.2598 188.5384,-81.096 190.7484,-87.738"/>
<text text-anchor="middle" x="176.9879" y="-94.8935" font-family="Times,serif" font-size="14.00" fill="#000000">b</text>
</g>
<!-- 22 -->
<g id="node8" class="node">
<title>22</title>
<ellipse fill="none" stroke="#000000" cx="307.5683" cy="-121.6935" rx="20.8887" ry="20.8887"/>
<text text-anchor="middle" x="307.5683" y="-117.4935" font-family="Times,serif" font-size="14.00" fill="#000000">22</text>
</g>
<!-- 21&#45;&gt;22 -->
<g id="edge9" class="edge">
<title>21&#45;&gt;22</title>
<path fill="none" stroke="#000000" d="M240.1278,-130.8496C251.0252,-129.3701 264.559,-127.5327 276.6364,-125.893"/>
<polygon fill="#000000" stroke="#000000" points="277.334,-129.3305 286.7722,-124.5169 276.3922,-122.3941 277.334,-129.3305"/>
<text text-anchor="middle" x="261.3748" y="-131.8935" font-family="Times,serif" font-size="14.00" fill="#000000">b</text>
</g>
<!-- 31 -->
<g id="node9" class="node">
<title>31</title>
<ellipse fill="none" stroke="#000000" cx="307.5683" cy="-180.6935" rx="20.8887" ry="20.8887"/>
<text text-anchor="middle" x="307.5683" y="-176.4935" font-family="Times,serif" font-size="14.00" fill="#000000">31</text>
</g>
<!-- 21&#45;&gt;31 -->
<g id="edge8" class="edge">
<title>21&#45;&gt;31</title>
<path fill="none" stroke="#000000" d="M237.4952,-143.4319C249.8203,-149.9858 266.2919,-158.7446 280.1685,-166.1235"/>
<polygon fill="#000000" stroke="#000000" points="278.8053,-169.3627 289.2779,-170.9675 282.0918,-163.1822 278.8053,-169.3627"/>
<text text-anchor="middle" x="261.3748" y="-160.8935" font-family="Times,serif" font-size="14.00" fill="#000000">a</text>
</g>
<!-- 12&#45;&gt;13 -->
<g id="edge5" class="edge">
<title>12&#45;&gt;13</title>
<path fill="none" stroke="#000000" d="M237.4952,-64.3334C248.9165,-57.8725 263.8984,-49.3973 277.0764,-41.9425"/>
<polygon fill="#000000" stroke="#000000" points="278.865,-44.952 285.8456,-36.9819 275.4184,-38.8593 278.865,-44.952"/>
<text text-anchor="middle" x="261.3748" y="-56.8935" font-family="Times,serif" font-size="14.00" fill="#000000">b</text>
</g>
<!-- 12&#45;&gt;22 -->
<g id="edge4" class="edge">
<title>12&#45;&gt;22</title>
<path fill="none" stroke="#000000" d="M237.4952,-84.4319C249.8203,-90.9858 266.2919,-99.7446 280.1685,-107.1235"/>
<polygon fill="#000000" stroke="#000000" points="278.8053,-110.3627 289.2779,-111.9675 282.0918,-104.1822 278.8053,-110.3627"/>
<text text-anchor="middle" x="261.3748" y="-102.8935" font-family="Times,serif" font-size="14.00" fill="#000000">a</text>
</g>
<!-- 22&#45;&gt;23 -->
<g id="edge11" class="edge">
<title>22&#45;&gt;23</title>
<path fill="none" stroke="#000000" d="M323.6608,-108.4553C337.2203,-97.3009 356.9086,-81.1047 372.8884,-67.9593"/>
<polygon fill="#000000" stroke="#000000" points="375.3554,-70.462 380.8546,-61.4061 370.9083,-65.0561 375.3554,-70.462"/>
<text text-anchor="middle" x="353.7617" y="-90.8935" font-family="Times,serif" font-size="14.00" fill="#000000">b</text>
</g>
<!-- 32 -->
<g id="node10" class="node">
<title>32</title>
<ellipse fill="none" stroke="#000000" cx="399.9552" cy="-142.6935" rx="20.8887" ry="20.8887"/>
<text text-anchor="middle" x="399.9552" y="-138.4935" font-family="Times,serif" font-size="14.00" fill="#000000">32</text>
</g>
<!-- 22&#45;&gt;32 -->
<g id="edge10" class="edge">
<title>22&#45;&gt;32</title>
<path fill="none" stroke="#000000" d="M328.0719,-126.354C340.2721,-129.1272 355.9779,-132.6972 369.5953,-135.7925"/>
<polygon fill="#000000" stroke="#000000" points="368.9818,-139.2423 379.5088,-138.0459 370.5334,-132.4164 368.9818,-139.2423"/>
<text text-anchor="middle" x="353.7617" y="-136.8935" font-family="Times,serif" font-size="14.00" fill="#000000">a</text>
</g>
<!-- 31&#45;&gt;32 -->
<g id="edge14" class="edge">
<title>31&#45;&gt;32</title>
<path fill="none" stroke="#000000" d="M326.7109,-172.8198C339.5079,-167.5562 356.5815,-160.5337 371.0249,-154.5929"/>
<polygon fill="#000000" stroke="#000000" points="372.6024,-157.7286 380.5192,-150.6877 369.9396,-151.2548 372.6024,-157.7286"/>
<text text-anchor="middle" x="353.7617" y="-166.8935" font-family="Times,serif" font-size="14.00" fill="#000000">b</text>
</g>
<!-- 32&#45;&gt;33 -->
<g id="edge15" class="edge">
<title>32&#45;&gt;33</title>
<path fill="none" stroke="#000000" d="M418.651,-132.7776C430.9346,-126.2627 447.2967,-117.5845 461.4826,-110.0607"/>
<polygon fill="#000000" stroke="#000000" points="463.2313,-113.095 470.4257,-105.3174 459.9514,-106.911 463.2313,-113.095"/>
<text text-anchor="middle" x="446.1486" y="-122.8935" font-family="Times,serif" font-size="14.00" fill="#000000">b</text>
</g>
</g>
</svg>
