<?xml version="1.0" encoding="UTF-8" standalone="no"?>
<!DOCTYPE svg PUBLIC "-//W3C//DTD SVG 1.1//EN"
 "http://www.w3.org/Graphics/SVG/1.1/DTD/svg11.dtd">
<!-- Generated by graphviz version 2.40.1 (20161225.0304)
 -->
<!-- Title: graph_2_2 Pages: 1 -->
<svg width="562pt" height="124pt"
 viewBox="0.00 0.00 561.89 124.39" xmlns="http://www.w3.org/2000/svg" xmlns:xlink="http://www.w3.org/1999/xlink">
<g id="graph0" class="graph" transform="scale(1 1) rotate(0) translate(4 120.3869)">
<title>graph_2_2</title>
<polygon fill="#ffffff" stroke="transparent" points="-4,4 -4,-120.3869 557.8939,-120.3869 557.8939,4 -4,4"/>
<g id="node1" class="node">
<title></title>
</g>
<!-- 11 -->
<g id="node3" class="node">
<title>11</title>
<ellipse fill="none" stroke="#000000" cx="134.7945" cy="-91.6935" rx="20.8887" ry="20.8887"/>
<text text-anchor="middle" x="134.7945" y="-87.4935" font-family="Times,serif" font-size="14.00" fill="#000000">11</text>
</g>
<!-- &#45;&gt;11 -->
<g id="edge1" class="edge">
<title>&#45;&gt;11</title>
<path fill="none" stroke="#000000" d="M54.2011,-91.6935C69.3023,-91.6935 88.1443,-91.6935 103.8118,-91.6935"/>
<polygon fill="#000000" stroke="#000000" points="104.0665,-95.1936 114.0664,-91.6935 104.0664,-88.1936 104.0665,-95.1936"/>
<text text-anchor="middle" x="84.0505" y="-95.8935" font-family="Times,serif" font-size="14.00" fill="#000000">start</text>
</g>
<!-- 42 -->
<g id="node2" class="node">
<title>42</title>
<ellipse fill="none" stroke="#000000" cx="431.599" cy="-91.6935" rx="20.8568" ry="20.8568"/>
<ellipse fill="none" stroke="#000000" cx="431.599" cy="-91.6935" rx="24.8884" ry="24.8884"/>
<text text-anchor="middle" x="431.599" y="-87.4935" font-family="Times,serif" font-size="14.00" fill="#000000">42</text>
</g>
<!-- 41 -->
<g id="node8" class="node">
<title>41</title>
<ellipse fill="none" stroke="#000000" cx="533.2005" cy="-60.6935" rx="20.8887" ry="20.8887"/>
<text text-anchor="middle" x="533.2005" y="-56.4935" font-family="Times,serif" font-size="14.00" fill="#000000">41</text>
</g>
<!-- 42&#45;&gt;41 -->
<g id="edge9" class="edge">
<title>42&#45;&gt;41</title>
<path fill="none" stroke="#000000" d="M456.1416,-87.9835C467.915,-85.8607 482.1196,-82.793 494.507,-78.6935 498.0942,-77.5063 501.7878,-76.0777 505.4031,-74.5511"/>
<polygon fill="#000000" stroke="#000000" points="506.9831,-77.6782 514.6628,-70.3794 504.1077,-71.2959 506.9831,-77.6782"/>
<text text-anchor="middle" x="484.3997" y="-88.8935" font-family="Times,serif" font-size="14.00" fill="#000000">a, b</text>
</g>
<!-- 22 -->
<g id="node4" class="node">
<title>22</title>
<ellipse fill="none" stroke="#000000" cx="232.396" cy="-91.6935" rx="20.8887" ry="20.8887"/>
<text text-anchor="middle" x="232.396" y="-87.4935" font-family="Times,serif" font-size="14.00" fill="#000000">22</text>
</g>
<!-- 11&#45;&gt;22 -->
<g id="edge2" class="edge">
<title>11&#45;&gt;22</title>
<path fill="none" stroke="#000000" d="M155.4932,-91.6935C168.7314,-91.6935 186.155,-91.6935 201.0695,-91.6935"/>
<polygon fill="#000000" stroke="#000000" points="201.3906,-95.1935 211.3905,-91.6935 201.3905,-88.1935 201.3906,-95.1935"/>
<text text-anchor="middle" x="183.5952" y="-95.8935" font-family="Times,serif" font-size="14.00" fill="#000000">a, b</text>
</g>
<!-- 31 -->
<g id="node7" class="node">
<title>31</title>
<ellipse fill="none" stroke="#000000" cx="329.9975" cy="-91.6935" rx="20.8887" ry="20.8887"/>
<text text-anchor="middle" x="329.9975" y="-87.4935" font-family="Times,serif" font-size="14.00" fill="#000000">31</text>
</g>
<!-- 22&#45;&gt;31 -->
<g id="edge7" class="edge">
<title>22&#45;&gt;31</title>
<path fill="none" stroke="#000000" d="M253.0947,-91.6935C266.333,-91.6935 283.7565,-91.6935 298.6711,-91.6935"/>
<polygon fill="#000000" stroke="#000000" points="298.9921,-95.1935 308.9921,-91.6935 298.992,-88.1935 298.9921,-95.1935"/>
<text text-anchor="middle" x="281.1967" y="-95.8935" font-family="Times,serif" font-size="14.00" fill="#000000">a, b</text>
</g>
<!-- 21 -->
<g id="node5" class="node">
<title>21</title>
<ellipse fill="none" stroke="#000000" cx="329.9975" cy="-20.6935" rx="20.8887" ry="20.8887"/>
<text text-anchor="middle" x="329.9975" y="-16.4935" font-family="Times,serif" font-size="14.00" fill="#000000">21</text>
</g>
<!-- 32 -->
<g id="node6" class="node">
<title>32</title>
<ellipse fill="none" stroke="#000000" cx="431.599" cy="-20.6935" rx="20.8887" ry="20.8887"/>
<text text-anchor="middle" x="431.599" y="-16.4935" font-family="Times,serif" font-size="14.00" fill="#000000">32</text>
</g>
<!-- 21&#45;&gt;32 -->
<g id="edge3" class="edge">
<title>21&#45;&gt;32</title>
<path fill="none" stroke="#000000" d="M351.0494,-20.6935C365.3534,-20.6935 384.516,-20.6935 400.562,-20.6935"/>
<polygon fill="#000000" stroke="#000000" points="400.5741,-24.1936 410.574,-20.6935 400.574,-17.1936 400.5741,-24.1936"/>
<text text-anchor="middle" x="378.7982" y="-24.8935" font-family="Times,serif" font-size="14.00" fill="#000000">a, b</text>
</g>
<!-- 32&#45;&gt;41 -->
<g id="edge8" class="edge">
<title>32&#45;&gt;41</title>
<path fill="none" stroke="#000000" d="M451.8886,-24.797C464.4443,-27.6865 480.7394,-32.0777 494.507,-37.8935 498.5472,-39.6001 502.68,-41.6576 506.6697,-43.8292"/>
<polygon fill="#000000" stroke="#000000" points="505.1985,-47.0213 515.6083,-48.9925 508.6998,-40.9599 505.1985,-47.0213"/>
<text text-anchor="middle" x="484.3997" y="-42.8935" font-family="Times,serif" font-size="14.00" fill="#000000">a, b</text>
</g>
<!-- 31&#45;&gt;42 -->
<g id="edge4" class="edge">
<title>31&#45;&gt;42</title>
<path fill="none" stroke="#000000" d="M351.0494,-91.6935C364.1782,-91.6935 381.4001,-91.6935 396.5483,-91.6935"/>
<polygon fill="#000000" stroke="#000000" points="396.6286,-95.1936 406.6286,-91.6935 396.6285,-88.1936 396.6286,-95.1936"/>
<text text-anchor="middle" x="378.7982" y="-95.8935" font-family="Times,serif" font-size="14.00" fill="#000000">a, b</text>
</g>
<!-- 41&#45;&gt;42 -->
<g id="edge5" class="edge">
<title>41&#45;&gt;42</title>
<path fill="none" stroke="#000000" d="M512.537,-58.2195C501.0094,-57.5488 486.5476,-57.9018 474.2924,-61.8935 468.9208,-63.6431 463.6272,-66.3146 458.6939,-69.3536"/>
<polygon fill="#000000" stroke="#000000" points="456.5547,-66.576 450.2638,-75.1009 460.4979,-72.3597 456.5547,-66.576"/>
<text text-anchor="middle" x="484.3997" y="-66.8935" font-family="Times,serif" font-size="14.00" fill="#000000">a, b</text>
</g>
<!-- 12 -->
<g id="node9" class="node">
<title>12</title>
<ellipse fill="none" stroke="#000000" cx="232.396" cy="-20.6935" rx="20.8887" ry="20.8887"/>
<text text-anchor="middle" x="232.396" y="-16.4935" font-family="Times,serif" font-size="14.00" fill="#000000">12</text>
</g>
<!-- 12&#45;&gt;21 -->
<g id="edge6" class="edge">
<title>12&#45;&gt;21</title>
<path fill="none" stroke="#000000" d="M253.0947,-20.6935C266.333,-20.6935 283.7565,-20.6935 298.6711,-20.6935"/>
<polygon fill="#000000" stroke="#000000" points="298.9921,-24.1935 308.9921,-20.6935 298.992,-17.1935 298.9921,-24.1935"/>
<text text-anchor="middle" x="281.1967" y="-24.8935" font-family="Times,serif" font-size="14.00" fill="#000000">a, b</text>
</g>
</g>
</svg>
