<?xml version="1.0" encoding="UTF-8" standalone="no"?>
<!DOCTYPE svg PUBLIC "-//W3C//DTD SVG 1.1//EN"
 "http://www.w3.org/Graphics/SVG/1.1/DTD/svg11.dtd">
<!-- Generated by graphviz version 2.40.1 (20161225.0304)
 -->
<!-- Title: graph_2_2 Pages: 1 -->
<svg width="562pt" height="57pt"
 viewBox="0.00 0.00 561.89 57.39" xmlns="http://www.w3.org/2000/svg" xmlns:xlink="http://www.w3.org/1999/xlink">
<g id="graph0" class="graph" transform="scale(1 1) rotate(0) translate(4 53.3869)">
<title>graph_2_2</title>
<polygon fill="#ffffff" stroke="transparent" points="-4,4 -4,-53.3869 557.8939,-53.3869 557.8939,4 -4,4"/>
<g id="node1" class="node">
<title></title>
</g>
<!-- 11 -->
<g id="node3" class="node">
<title>11</title>
<ellipse fill="none" stroke="#000000" cx="134.7945" cy="-24.6935" rx="20.8887" ry="20.8887"/>
<text text-anchor="middle" x="134.7945" y="-20.4935" font-family="Times,serif" font-size="14.00" fill="#000000">11</text>
</g>
<!-- &#45;&gt;11 -->
<g id="edge1" class="edge">
<title>&#45;&gt;11</title>
<path fill="none" stroke="#000000" d="M54.2011,-24.6935C69.3023,-24.6935 88.1443,-24.6935 103.8118,-24.6935"/>
<polygon fill="#000000" stroke="#000000" points="104.0665,-28.1936 114.0664,-24.6935 104.0664,-21.1936 104.0665,-28.1936"/>
<text text-anchor="middle" x="84.0505" y="-28.8935" font-family="Times,serif" font-size="14.00" fill="#000000">start</text>
</g>
<!-- 42 -->
<g id="node2" class="node">
<title>42</title>
<ellipse fill="none" stroke="#000000" cx="431.599" cy="-24.6935" rx="20.8568" ry="20.8568"/>
<ellipse fill="none" stroke="#000000" cx="431.599" cy="-24.6935" rx="24.8884" ry="24.8884"/>
<text text-anchor="middle" x="431.599" y="-20.4935" font-family="Times,serif" font-size="14.00" fill="#000000">42</text>
</g>
<!-- 41 -->
<g id="node6" class="node">
<title>41</title>
<ellipse fill="none" stroke="#000000" cx="533.2005" cy="-24.6935" rx="20.8887" ry="20.8887"/>
<text text-anchor="middle" x="533.2005" y="-20.4935" font-family="Times,serif" font-size="14.00" fill="#000000">41</text>
</g>
<!-- 42&#45;&gt;41 -->
<g id="edge6" class="edge">
<title>42&#45;&gt;41</title>
<path fill="none" stroke="#000000" d="M456.4535,-24.6935C470.2574,-24.6935 487.5552,-24.6935 502.2328,-24.6935"/>
<polygon fill="#000000" stroke="#000000" points="502.3698,-28.1936 512.3698,-24.6935 502.3697,-21.1936 502.3698,-28.1936"/>
<text text-anchor="middle" x="484.3997" y="-28.8935" font-family="Times,serif" font-size="14.00" fill="#000000">a, b</text>
</g>
<!-- 22 -->
<g id="node4" class="node">
<title>22</title>
<ellipse fill="none" stroke="#000000" cx="232.396" cy="-24.6935" rx="20.8887" ry="20.8887"/>
<text text-anchor="middle" x="232.396" y="-20.4935" font-family="Times,serif" font-size="14.00" fill="#000000">22</text>
</g>
<!-- 11&#45;&gt;22 -->
<g id="edge2" class="edge">
<title>11&#45;&gt;22</title>
<path fill="none" stroke="#000000" d="M155.4932,-24.6935C168.7314,-24.6935 186.155,-24.6935 201.0695,-24.6935"/>
<polygon fill="#000000" stroke="#000000" points="201.3906,-28.1935 211.3905,-24.6935 201.3905,-21.1935 201.3906,-28.1935"/>
<text text-anchor="middle" x="183.5952" y="-28.8935" font-family="Times,serif" font-size="14.00" fill="#000000">a, b</text>
</g>
<!-- 31 -->
<g id="node5" class="node">
<title>31</title>
<ellipse fill="none" stroke="#000000" cx="329.9975" cy="-24.6935" rx="20.8887" ry="20.8887"/>
<text text-anchor="middle" x="329.9975" y="-20.4935" font-family="Times,serif" font-size="14.00" fill="#000000">31</text>
</g>
<!-- 22&#45;&gt;31 -->
<g id="edge3" class="edge">
<title>22&#45;&gt;31</title>
<path fill="none" stroke="#000000" d="M253.0947,-24.6935C266.333,-24.6935 283.7565,-24.6935 298.6711,-24.6935"/>
<polygon fill="#000000" stroke="#000000" points="298.9921,-28.1935 308.9921,-24.6935 298.992,-21.1935 298.9921,-28.1935"/>
<text text-anchor="middle" x="281.1967" y="-28.8935" font-family="Times,serif" font-size="14.00" fill="#000000">a, b</text>
</g>
<!-- 31&#45;&gt;42 -->
<g id="edge4" class="edge">
<title>31&#45;&gt;42</title>
<path fill="none" stroke="#000000" d="M351.0494,-24.6935C364.1782,-24.6935 381.4001,-24.6935 396.5483,-24.6935"/>
<polygon fill="#000000" stroke="#000000" points="396.6286,-28.1936 406.6286,-24.6935 396.6285,-21.1936 396.6286,-28.1936"/>
<text text-anchor="middle" x="378.7982" y="-28.8935" font-family="Times,serif" font-size="14.00" fill="#000000">a, b</text>
</g>
<!-- 41&#45;&gt;42 -->
<g id="edge5" class="edge">
<title>41&#45;&gt;42</title>
<path fill="none" stroke="#000000" d="M515.3278,-13.9246C508.982,-10.6742 501.6399,-7.5345 494.507,-5.8935 484.0927,-3.4974 472.8695,-5.3775 462.8264,-8.7232"/>
<polygon fill="#000000" stroke="#000000" points="461.298,-5.5623 453.2504,-12.4533 463.8388,-12.0849 461.298,-5.5623"/>
<text text-anchor="middle" x="484.3997" y="-9.8935" font-family="Times,serif" font-size="14.00" fill="#000000">a, b</text>
</g>
</g>
</svg>
