<?xml version="1.0" encoding="UTF-8" standalone="no"?>
<!DOCTYPE svg PUBLIC "-//W3C//DTD SVG 1.1//EN"
 "http://www.w3.org/Graphics/SVG/1.1/DTD/svg11.dtd">
<!-- Generated by graphviz version 2.40.1 (20161225.0304)
 -->
<!-- Title: graph_1_1 Pages: 1 -->
<svg width="244pt" height="87pt"
 viewBox="0.00 0.00 244.32 86.80" xmlns="http://www.w3.org/2000/svg" xmlns:xlink="http://www.w3.org/1999/xlink">
<g id="graph0" class="graph" transform="scale(1 1) rotate(0) translate(4 82.8)">
<title>graph_1_1</title>
<polygon fill="#ffffff" stroke="transparent" points="-4,4 -4,-82.8 240.3156,-82.8 240.3156,4 -4,4"/>
<g id="node1" class="node">
<title></title>
</g>
<!-- 1 -->
<g id="node3" class="node">
<title>1</title>
<ellipse fill="none" stroke="#000000" cx="132.101" cy="-22" rx="18" ry="18"/>
<text text-anchor="middle" x="132.101" y="-17.8" font-family="Times,serif" font-size="14.00" fill="#000000">1</text>
</g>
<!-- &#45;&gt;1 -->
<g id="edge1" class="edge">
<title>&#45;&gt;1</title>
<path fill="none" stroke="#000000" d="M54.0661,-22C69.3856,-22 88.5175,-22 104.0034,-22"/>
<polygon fill="#000000" stroke="#000000" points="104.0503,-25.5001 114.0503,-22 104.0503,-18.5001 104.0503,-25.5001"/>
<text text-anchor="middle" x="84.0505" y="-26.2" font-family="Times,serif" font-size="14.00" fill="#000000">start</text>
</g>
<!-- 2 -->
<g id="node2" class="node">
<title>2</title>
<ellipse fill="none" stroke="#000000" cx="214.3156" cy="-22" rx="18" ry="18"/>
<ellipse fill="none" stroke="#000000" cx="214.3156" cy="-22" rx="22" ry="22"/>
<text text-anchor="middle" x="214.3156" y="-17.8" font-family="Times,serif" font-size="14.00" fill="#000000">2</text>
</g>
<!-- 2&#45;&gt;2 -->
<g id="edge4" class="edge">
<title>2&#45;&gt;2</title>
<path fill="none" stroke="#000000" d="M206.6329,-42.9908C205.6844,-53.0872 208.2453,-62 214.3156,-62 218.2044,-62 220.6529,-58.3422 221.6612,-53.0587"/>
<polygon fill="#000000" stroke="#000000" points="225.1616,-53.1023 221.9983,-42.9908 218.1655,-52.868 225.1616,-53.1023"/>
<text text-anchor="middle" x="214.3156" y="-66.2" font-family="Times,serif" font-size="14.00" fill="#000000">a, b</text>
</g>
<!-- 1&#45;&gt;2 -->
<g id="edge3" class="edge">
<title>1&#45;&gt;2</title>
<path fill="none" stroke="#000000" d="M150.3471,-22C159.5719,-22 171.0489,-22 181.7244,-22"/>
<polygon fill="#000000" stroke="#000000" points="182.0198,-25.5001 192.0197,-22 182.0197,-18.5001 182.0198,-25.5001"/>
<text text-anchor="middle" x="171.2083" y="-26.2" font-family="Times,serif" font-size="14.00" fill="#000000">c</text>
</g>
<!-- 1&#45;&gt;1 -->
<g id="edge2" class="edge">
<title>1&#45;&gt;1</title>
<path fill="none" stroke="#000000" d="M125.3674,-39.0373C123.9932,-48.8579 126.2377,-58 132.101,-58 135.7656,-58 138.0165,-54.4289 138.8539,-49.3529"/>
<polygon fill="#000000" stroke="#000000" points="142.3534,-49.0307 138.8346,-39.0373 135.3534,-49.0439 142.3534,-49.0307"/>
<text text-anchor="middle" x="132.101" y="-62.2" font-family="Times,serif" font-size="14.00" fill="#000000">a, b</text>
</g>
</g>
</svg>
